<svg xmlns="http://www.w3.org/2000/svg" width="1267.916" height="537.61" viewBox="0 0 1267.916 537.61">
  <g id="Groupe_23201" data-name="Groupe 23201" transform="translate(945 36.446)">
    <path id="Tracé_58071" data-name="Tracé 58071" d="M40.412,68.149S-41.614,212.874,28.057,268.588c96.056,76.816,204.244,5.344,214.168,1.374s70.016-35.694,74.135-98.847c3.423-52.5-49.422-157.88-155.135-170.235C161.225.88,88.463-12.849,40.412,68.149Z" transform="matrix(-0.875, 0.485, -0.485, -0.875, -520.785, 229.442)" fill="#fb9"/>
    <path id="Tracé_66384" data-name="Tracé 66384" d="M.13,72.424C5.635-22.825,51.47-3.44,77.174,15.935s93.172,82.824,33.734,109.444S-3.015,126.842.13,72.424" transform="matrix(-0.052, -0.999, 0.999, -0.052, 187.04, 501.164)" fill="#f8e5a9"/>
    <path id="Tracé_71765" data-name="Tracé 71765" d="M7.338,12.375s-14.895,26.28-2.244,36.4c17.443,13.949,37.088.97,38.89.249S56.7,42.54,57.447,31.072C58.069,21.539,48.472,2.4,29.276.16,29.276.16,16.064-2.333,7.338,12.375Z" transform="matrix(-0.875, 0.485, -0.485, -0.875, -711.86, 431.174)" fill="#c7edc8"/>
  </g>
</svg>
