<svg xmlns="http://www.w3.org/2000/svg" width="358.537" height="336.822" viewBox="0 0 358.537 336.822">
  <g id="Groupe_23201" data-name="Groupe 23201" transform="translate(-111.708 17.504)">
    <g id="Groupe_26367" data-name="Groupe 26367" transform="translate(309.802 180.129) rotate(-48)">
      <g id="Groupe_26367-2" data-name="Groupe 26367" transform="translate(-114.717 -140.068)">
        <path id="Tracé_61101" data-name="Tracé 61101" d="M219.092,144.618C154.31,261.929,44.733,219.243,17.916,176.758S-18.844-7.243,85.51.29,256.053,77.626,219.092,144.618Z" transform="translate(0 0)" fill="#ffdac7"/>
        <path id="Tracé_86599" data-name="Tracé 86599" d="M51.234,10.366C66.1,39.292,46.916,43.109,34.763,42.707S-11.639,37.685,4.029,17.7,42.8-6.206,51.234,10.366Z" transform="translate(158.962 222.389)" fill="#f8e5a9"/>
      </g>
    </g>
    <g id="Coffee_cup" data-name="Coffee cup" transform="translate(396.5 102.298) rotate(13)">
      <g id="Groupe_16858" data-name="Groupe 16858" transform="translate(-69.343 -69.343)">
        <path id="Tracé_5712" data-name="Tracé 5712" d="M94.864,18.955l-.067-.067-.06-.06-.069-.069-.059-.058-.067-.067-.06-.061-.064-.064-.067-.067-.06-.06-.069-.069-.059-.059-.067-.066-.06-.061-.064-.064-.067-.067-.061-.06-.067-.067L93.71,17.8l-.065-.066-.06-.06-.064-.064-.067-.067-.061-.06-.067-.067-.062-.062-.065-.066-.06-.06-.067-.067-.061-.06-.064-.064-.067-.067-.062-.062-.065-.066-.06-.06-.068-.067-.06-.061-.064-.063-.067-.067-.06-.061-.069-.068-.059-.059-.067-.067-.06-.061-.064-.063-.067-.067-.06-.061-.069-.068-.059-.059-.067-.067-.06-.061A53.675,53.675,0,1,0,15.752,91.661l.066.067.061.061.069.068.058.059.067.067.061.06.064.064.067.067.06.061.069.068.058.059.067.067.061.061.064.063.067.067.06.061.067.067.062.062.065.065.061.061L17.1,93l.067.067.06.061.067.067.062.062.066.065.06.061.067.067.06.06.064.064.067.067.062.062.066.065.06.061.067.067.06.06.064.064.067.067.061.06.068.069.059.059.067.067.06.06.064.064.067.067.061.06.068.069.059.059.067.067.06.06A53.676,53.676,0,1,0,94.864,18.955Z" transform="translate(16.356 17.044)" fill="#314b9a" opacity="0.1"/>
        <ellipse id="Ellipse_47" data-name="Ellipse 47" cx="53.676" cy="53.676" rx="53.676" ry="53.676" transform="matrix(0.934, -0.358, 0.358, 0.934, 0, 38.46)" fill="#eaf0f9"/>
        <ellipse id="Ellipse_48" data-name="Ellipse 48" cx="52.431" cy="52.431" rx="52.431" ry="52.431" transform="translate(16.912 16.912)" fill="#fff"/>
        <path id="Tracé_5714" data-name="Tracé 5714" d="M81.995,29.59,70.4,29.509a38.349,38.349,0,0,0-3.864-9.334l-1-1.719C55.4.93,33.907-5.06,17.208,4.6S-5.067,35.923,5.073,53.448l1,1.718c10.14,17.526,31.9,23.9,48.6,14.237a34.334,34.334,0,0,0,16.81-26.395H82.683c2.352,0,3.442-1.907,3.442-4.259S85.539,29.59,81.995,29.59Z" transform="translate(34.872 34.852)" fill="#eaf0f9"/>
        <ellipse id="Ellipse_49" data-name="Ellipse 49" cx="34.028" cy="34.028" rx="34.028" ry="34.028" transform="translate(30.784 98.135) rotate(-81.748)" fill="#fff"/>
        <ellipse id="Ellipse_50" data-name="Ellipse 50" cx="34.028" cy="34.028" rx="34.028" ry="34.028" transform="translate(30.784 98.135) rotate(-81.748)" fill="#fff"/>
        <ellipse id="Ellipse_51" data-name="Ellipse 51" cx="29.953" cy="29.953" rx="29.953" ry="29.953" transform="translate(34.837 93.914) rotate(-80.453)" fill="#eaf0f9"/>
        <ellipse id="Ellipse_52" data-name="Ellipse 52" cx="28.33" cy="28.33" rx="28.33" ry="28.33" transform="translate(37.199 93.259) rotate(-81.65)" fill="#bf8b6f"/>
        <ellipse id="Ellipse_53" data-name="Ellipse 53" cx="24.537" cy="24.537" rx="24.537" ry="24.537" transform="translate(45.155 94.061) rotate(-89.284)" fill="#49270c"/>
        <g id="Groupe_16857" data-name="Groupe 16857" transform="translate(42.814 43.518)">
          <path id="Tracé_5715" data-name="Tracé 5715" d="M3.972,1.986A1.986,1.986,0,1,1,1.986,0,1.985,1.985,0,0,1,3.972,1.986Z" transform="translate(20.852 0.41)" fill="#bf8b6f"/>
          <path id="Tracé_5716" data-name="Tracé 5716" d="M2.813,1.406A1.407,1.407,0,1,1,1.406,0,1.407,1.407,0,0,1,2.813,1.406Z" transform="translate(24.445 0)" fill="#bf8b6f"/>
          <path id="Tracé_5717" data-name="Tracé 5717" d="M2.812,1.407A1.406,1.406,0,1,1,1.406,0,1.406,1.406,0,0,1,2.812,1.407Z" transform="translate(26.987 0.177)" fill="#bf8b6f"/>
          <ellipse id="Ellipse_54" data-name="Ellipse 54" cx="2.601" cy="2.601" rx="2.601" ry="2.601" transform="translate(29.013 0.41)" fill="#bf8b6f"/>
          <path id="Tracé_5718" data-name="Tracé 5718" d="M3.972,1.986A1.986,1.986,0,1,1,1.986,0,1.986,1.986,0,0,1,3.972,1.986Z" transform="translate(7.061 7.18)" fill="#bf8b6f"/>
          <path id="Tracé_5719" data-name="Tracé 5719" d="M9.23,4.616A4.615,4.615,0,1,1,4.615,0,4.615,4.615,0,0,1,9.23,4.616Z" transform="translate(4.165 9.166)" fill="#bf8b6f"/>
          <path id="Tracé_5720" data-name="Tracé 5720" d="M1.978.989c0,.546-.41,1.569-.989.989C.6,1.592,0,1.536,0,.989a.989.989,0,1,1,1.978,0Z" transform="translate(14.557 3.393)" fill="#bf8b6f"/>
          <path id="Tracé_5721" data-name="Tracé 5721" d="M2.5,1.248A1.249,1.249,0,1,1,1.248,0,1.249,1.249,0,0,1,2.5,1.248Z" transform="translate(13.395 4.935)" fill="#bf8b6f"/>
          <path id="Tracé_5722" data-name="Tracé 5722" d="M1.977.988A.989.989,0,1,1,.989,0,.988.988,0,0,1,1.977.988Z" transform="translate(15.764 7.743)" fill="#bf8b6f"/>
          <path id="Tracé_5723" data-name="Tracé 5723" d="M1.2.6A.6.6,0,1,1,.6,0,.6.6,0,0,1,1.2.6Z" transform="translate(14.557 11.153)" fill="#bf8b6f"/>
          <path id="Tracé_5724" data-name="Tracé 5724" d="M1.2.6A.6.6,0,1,1,.6,0,.6.6,0,0,1,1.2.6Z" transform="translate(4.49 25.715)" fill="#bf8b6f"/>
          <path id="Tracé_5725" data-name="Tracé 5725" d="M1.2.6A.6.6,0,1,1,.6,0,.6.6,0,0,1,1.2.6Z" transform="translate(33.017 5.585)" fill="#bf8b6f"/>
          <ellipse id="Ellipse_55" data-name="Ellipse 55" cx="0.47" cy="0.47" rx="0.47" ry="0.47" transform="translate(7.349 17.926)" fill="#bf8b6f"/>
          <ellipse id="Ellipse_56" data-name="Ellipse 56" cx="2.798" cy="2.798" rx="2.798" ry="2.798" transform="translate(16.54 1.583)" fill="#bf8b6f"/>
          <path id="Tracé_5726" data-name="Tracé 5726" d="M2.583.092A1.986,1.986,0,1,1,.092,1.39,1.985,1.985,0,0,1,2.583.092Z" transform="translate(0.289 23.424)" fill="#bf8b6f"/>
          <path id="Tracé_5727" data-name="Tracé 5727" d="M1.286.046c.521.164,1.374.861.647,1.24-.484.252-.719.81-1.24.647A.989.989,0,1,1,1.286.046Z" transform="translate(2.276 31.831)" fill="#bf8b6f"/>
          <path id="Tracé_5728" data-name="Tracé 5728" d="M1.625.058A1.249,1.249,0,1,1,.058.874,1.249,1.249,0,0,1,1.625.058Z" transform="translate(2.133 32.545)" fill="#bf8b6f"/>
          <path id="Tracé_5729" data-name="Tracé 5729" d="M3.64.13A2.8,2.8,0,1,1,.13,1.959,2.8,2.8,0,0,1,3.64.13Z" transform="translate(0.289 26.744)" fill="#bf8b6f"/>
          <path id="Tracé_5730" data-name="Tracé 5730" d="M4.614,2.308A2.307,2.307,0,1,1,2.306,0,2.308,2.308,0,0,1,4.614,2.308Z" transform="translate(1.956 15.461)" fill="#bf8b6f"/>
          <ellipse id="Ellipse_57" data-name="Ellipse 57" cx="2.61" cy="2.61" rx="2.61" ry="2.61" transform="translate(0 19.177) rotate(-0.774)" fill="#bf8b6f"/>
          <ellipse id="Ellipse_58" data-name="Ellipse 58" cx="2.798" cy="2.798" rx="2.798" ry="2.798" transform="matrix(0.23, -0.973, 0.973, 0.23, 8.479, 10.25)" fill="#bf8b6f"/>
          <path id="Tracé_5731" data-name="Tracé 5731" d="M.591,2.552a1.406,1.406,0,1,1,1.961-.33A1.4,1.4,0,0,1,.591,2.552Z" transform="translate(46.499 39.111)" fill="#bf8b6f"/>
          <path id="Tracé_5732" data-name="Tracé 5732" d="M.591,2.553a1.407,1.407,0,1,1,1.961-.331A1.407,1.407,0,0,1,.591,2.553Z" transform="translate(44.882 41.079)" fill="#bf8b6f"/>
          <path id="Tracé_5733" data-name="Tracé 5733" d="M1.094,4.721A2.6,2.6,0,1,1,4.722,4.11,2.6,2.6,0,0,1,1.094,4.721Z" transform="translate(40.656 41.682)" fill="#bf8b6f"/>
          <path id="Tracé_5734" data-name="Tracé 5734" d="M.252,1.088A.6.6,0,1,1,1.088.947.6.6,0,0,1,.252,1.088Z" transform="translate(39.041 8.563)" fill="#bf8b6f"/>
          <path id="Tracé_5735" data-name="Tracé 5735" d="M.252,1.087A.6.6,0,1,1,1.088.947.6.6,0,0,1,.252,1.087Z" transform="translate(38.913 43.477)" fill="#bf8b6f"/>
          <path id="Tracé_5736" data-name="Tracé 5736" d="M.2.854A.47.47,0,1,1,.854.743.47.47,0,0,1,.2.854Z" transform="translate(44.04 15.505)" fill="#bf8b6f"/>
          <path id="Tracé_5737" data-name="Tracé 5737" d="M3.184,3.57A1.986,1.986,0,1,1,3.57.788,1.986,1.986,0,0,1,3.184,3.57Z" transform="translate(40.022 5.407)" fill="#bf8b6f"/>
          <path id="Tracé_5738" data-name="Tracé 5738" d="M1.429,1.778c-.436.33-1.5.621-1.386-.192C.118,1.046-.2.53.235.2A.989.989,0,0,1,1.429,1.778Z" transform="translate(34.565 2.915)" fill="#bf8b6f"/>
          <path id="Tracé_5739" data-name="Tracé 5739" d="M2,2.244A1.249,1.249,0,1,1,2.244.495,1.248,1.248,0,0,1,2,2.244Z" transform="translate(33.286 2.188)" fill="#bf8b6f"/>
          <path id="Tracé_5740" data-name="Tracé 5740" d="M4.487,5.03A2.8,2.8,0,1,1,5.03,1.11,2.8,2.8,0,0,1,4.487,5.03Z" transform="translate(35.371 2.861)" fill="#bf8b6f"/>
          <path id="Tracé_5741" data-name="Tracé 5741" d="M1.1,4.737a2.61,2.61,0,1,1,3.64-.614A2.61,2.61,0,0,1,1.1,4.737Z" transform="translate(42.166 7.204)" fill="#bf8b6f"/>
        </g>
        <path id="Tracé_5742" data-name="Tracé 5742" d="M16.622,4.258c0,2.352-1.091,4.259-3.442,4.259H0A34.445,34.445,0,0,0,.264,4.258,34.441,34.441,0,0,0,0,0H13.18C15.531,0,16.622,1.907,16.622,4.258Z" transform="translate(103.107 65.085)" fill="#fff"/>
        <path id="Tracé_5743" data-name="Tracé 5743" d="M2.272,4.258a34.445,34.445,0,0,1-.264,4.259H0A34.251,34.251,0,0,0,.264,4.258,34.247,34.247,0,0,0,0,0H2.008A34.441,34.441,0,0,1,2.272,4.258Z" transform="translate(103.107 65.085)" fill="#dfe6f5"/>
      </g>
    </g>
    <g id="Illustration_140" data-name="Illustration 140" transform="translate(215.743 102.298) rotate(-11)">
      <g id="Groupe_17768" data-name="Groupe 17768" transform="translate(-97.592 -113.324)">
        <g id="Groupe_17694" data-name="Groupe 17694" transform="translate(8.042 6.032)" opacity="0.14" style="mix-blend-mode: multiply;isolation: isolate">
          <ellipse id="Ellipse_297" data-name="Ellipse 297" cx="77.998" cy="77.998" rx="77.998" ry="77.998" transform="translate(25.75 32.267)" fill="#1c124c"/>
          <path id="Tracé_48955" data-name="Tracé 48955" d="M101.115,149.66c-3.416-.384-6.273,4.072-9.926,4.192-2.3.078-4.23-1.57-6.144-2.845s-4.576-2.208-6.4-.8c-.553.426-.983,1.046-1.641,1.277-1.12.4-2.238-.485-3.207-1.17-5.752-4.078-14.854-3.143-18.689-9.062-.545-.84-1.039-1.862-2-2.145-1.267-.374-2.487.768-3.806.836-3.549.183-3.364-6.177-6.6-7.652-1.554-.712-3.776-.2-4.719-1.621-.633-.955-.253-2.218-.243-3.362.048-5.654-8.8-8.2-8.817-13.849,0-1.1.352-2.161.444-3.253.464-5.427-5.437-10.369-3.754-15.546a34.055,34.055,0,0,0,1.313-3.265c.633-2.97-1.916-6.056-.933-8.929.332-.975,1.048-1.8,1.313-2.789.738-2.761-2.145-5.205-2.435-8.047-.35-3.422,3.006-5.972,6.05-7.57A4.18,4.18,0,0,0,32.764,62.6c.776-1.373-.225-3.042-.314-4.616-.308-5.453,9.536-6.852,9.641-12.315a17.417,17.417,0,0,1-.1-2.682c.322-1.8,5.161-2.738,6.886-3.354,4.21-1.5,5.724-2.431,10.192-2.626a7.08,7.08,0,0,0,2.688-.44,1.935,1.935,0,0,0,1.09-1.793c.354-4.53,5.119-7.582,9.018-5.246a9.032,9.032,0,0,1,.885.6,3.742,3.742,0,0,0,1.633.925c2,.288,2.743-2.992,4.717-3.43,2.344-.521,3.9,3.261,6.283,2.942,1.138-.155,1.9-1.2,2.863-1.838,3.217-2.125,7.228.746,10.688,2.445a2.785,2.785,0,0,0,2.256.336c.706-.3,1.058-1.078,1.538-1.677,1.49-1.858,4.393-2.009,6.547-.989,2.551,1.206,4.007,3.681,6.611,4.823a95.847,95.847,0,0,1,9.237,5.117c3.133,1.812,6.343,3.689,8.591,6.524,2.9,3.657,3.917,8.559,6.092,12.432l2.618,6.187c1.2,5.063,4.031,9.83,5.1,15.056a46.287,46.287,0,0,1,.4,11.678c-.306,5.891-.808,12.206-4.518,16.795a3.234,3.234,0,0,0-1.046,2.153,4.591,4.591,0,0,0,.732,1.592c1.2,2.3-.179,5.059-1.528,7.278l-7.908,13a19.327,19.327,0,0,1-4.769,5.913c-3.271,2.371-7.6,2.451-11.569,3.181s-8.36,2.807-9.187,6.762c-.3,1.422-.261,3.225-1.556,3.878-1.538.776-3.122-.913-4.769-1.415A3.759,3.759,0,0,0,101.115,149.66Z" transform="translate(17.075 21.841)" fill="#1c124c"/>
          <path id="Tracé_48956" data-name="Tracé 48956" d="M158.786,76.644a77.922,77.922,0,0,0-51.178-55.608A77.986,77.986,0,0,1,28.5,150.836,77.992,77.992,0,0,0,158.786,76.644Z" transform="translate(20.76 15.228)" fill="#1c124c" opacity="0.35"/>
          <path id="Tracé_48957" data-name="Tracé 48957" d="M16.485,119.423a83.384,83.384,0,1,1,100.694,61.37A83.48,83.48,0,0,1,16.485,119.423Zm151.6-36.784a72.612,72.612,0,1,0-53.442,87.685A72.693,72.693,0,0,0,168.082,82.638Z" transform="translate(6.231 10.506)" fill="#1c124c"/>
          <path id="Tracé_48958" data-name="Tracé 48958" d="M46.784,94.047C40.328,58.843,54.854,19.578,75.009,3V122.668S50.059,111.9,46.784,94.047Z" transform="translate(37.671 -3)" fill="#1c124c"/>
          <path id="Tracé_48959" data-name="Tracé 48959" d="M88.265,94.047C94.723,58.843,80.195,19.578,60.042,3V122.668S84.992,111.9,88.265,94.047Z" transform="translate(52.637 -3)" fill="#1c124c"/>
          <path id="Tracé_48960" data-name="Tracé 48960" d="M92.485,35.648C85.687,42.857,78.541,49.7,71.3,56.458a.858.858,0,0,1-1.212-.04C63.291,48.816,56.6,41.127,50.3,33.1c7.3,7.118,14.231,14.585,21.061,22.147l-1.226-.056c7.284-6.705,14.651-13.312,22.354-19.545Z" transform="translate(42.788 27.423)" fill="#1c124c"/>
          <path id="Tracé_48961" data-name="Tracé 48961" d="M82.135,25.316c-4.538,5.35-9.418,10.371-14.408,15.291a.774.774,0,0,1-1.094,0c-4.695-5.543-9.277-11.175-13.54-17.068,5.133,5.121,9.953,10.522,14.68,16.011L66.636,39.5c4.99-4.918,10.083-9.723,15.5-14.183Z" transform="translate(45.616 17.755)" fill="#1c124c"/>
          <path id="Tracé_48962" data-name="Tracé 48962" d="M68.376,15.809a69.052,69.052,0,0,1-5.867,9.223.7.7,0,0,1-1.2-.113,48.023,48.023,0,0,1-3.018-7.964,48.111,48.111,0,0,1,4.287,7.361l-1.2-.113a69.113,69.113,0,0,1,7-8.394Z" transform="translate(50.868 9.945)" fill="#1c124c"/>
          <path id="Tracé_48963" data-name="Tracé 48963" d="M99.776,40.372c-8.412,10.4-17.42,20.3-26.556,30.057a1.294,1.294,0,0,1-1.995-.137c-7.777-10.978-15.4-22.077-22.354-33.6,8.622,10.337,16.624,21.166,24.459,32.1l-1.993-.137c9.2-9.7,18.554-19.272,28.438-28.283Z" transform="translate(41.348 31.049)" fill="#1c124c"/>
          <path id="Tracé_48964" data-name="Tracé 48964" d="M91.811,29.609C85.27,36.923,78.177,43.717,70.947,50.34a1.2,1.2,0,0,1-1.713-.1C64.46,44.7,59.786,39.073,55.328,33.268c-1.454-1.964-2.964-3.881-4.365-5.893,7.061,6.744,13.644,13.962,20.078,21.3l-1.711-.1c7.23-6.623,14.621-13.091,22.481-18.966Z" transform="translate(43.462 21.634)" fill="#1c124c"/>
          <path id="Tracé_48965" data-name="Tracé 48965" d="M76.931,16.836A124.649,124.649,0,0,1,65.46,32.241a1.2,1.2,0,0,1-1.916-.143c-1.472-2.373-2.911-4.763-4.24-7.224a78.884,78.884,0,0,1-3.7-7.566,108.606,108.606,0,0,1,9.967,13.509l-1.924-.133A124.574,124.574,0,0,1,76.931,16.836Z" transform="translate(48.148 10.983)" fill="#1c124c"/>
          <path id="Tracé_48966" data-name="Tracé 48966" d="M61.076,117.8C58.547,79.7,60.378,41.5,60.437,3.344c0-.147.243-.155.241,0q.682,28.612,1.162,57.226c.29,18.836,1.1,39.107-.764,57.234Z" transform="translate(52.333 -2.767)" fill="#1c124c"/>
          <path id="Tracé_48967" data-name="Tracé 48967" d="M80.226,66.408c2.952-17.4-18.9-36.784-27.391-46.906-6.744,17.48-9.641,38.3-6.052,57.868,3.275,17.854,28.225,28.621,28.225,28.621s24.95-10.767,28.223-28.621a100.421,100.421,0,0,0,1.18-26.309C89.714,55.444,80.226,66.408,80.226,66.408Z" transform="translate(37.671 13.677)" fill="#1c124c"/>
          <path id="Tracé_48968" data-name="Tracé 48968" d="M92.134,88.057c-2.732,34.908-27,69.988-50.937,82.311L71.919,55.6S93.519,70.352,92.134,88.057Z" transform="translate(33.592 50.161)" fill="#1c124c"/>
          <path id="Tracé_48969" data-name="Tracé 48969" d="M43.965,78.043c-15.343,32.616-11.237,72.853,4.188,92.326L78.876,55.6S51.748,61.5,43.965,78.043Z" transform="translate(26.636 50.161)" fill="#1c124c"/>
          <path id="Tracé_48970" data-name="Tracé 48970" d="M36.773,97.857C45.037,91.536,53.628,85.7,62.31,79.985a1.006,1.006,0,0,1,1.482.466c1.93,4.856,3.854,9.711,5.638,14.627,1.564,4.331,3.806,10.475,5.131,14.828-2.037-4.037-4.719-10.047-6.569-14.251-2.119-4.779-4.1-9.615-6.064-14.454l1.48.466c-8.724,5.648-17.523,11.167-26.635,16.19Z" transform="translate(29.121 74.636)" fill="#1c124c"/>
          <path id="Tracé_48971" data-name="Tracé 48971" d="M36.894,103.055c6.273-4.335,12.87-8.177,19.539-11.863a.925.925,0,0,1,1.259.356c3.46,6.752,6.792,13.57,9.655,20.631-4.118-6.4-7.767-13.039-11.29-19.746l1.275.386c-6.669,3.687-13.431,7.228-20.438,10.236Z" transform="translate(29.243 86.01)" fill="#1c124c"/>
          <path id="Tracé_48972" data-name="Tracé 48972" d="M39.664,108.722a75.183,75.183,0,0,1,8.849-7.369.718.718,0,0,1,1.1.35,65.507,65.507,0,0,1,2.556,9.741,65.762,65.762,0,0,1-3.915-9.281l1.1.348a74.964,74.964,0,0,1-9.7,6.211Z" transform="translate(32.043 96.257)" fill="#1c124c"/>
          <path id="Tracé_48973" data-name="Tracé 48973" d="M37.9,92.053c8.453-6.066,17.219-11.637,26.072-17.082a1,1,0,0,1,1.466.511c1.783,4.912,3.557,9.826,5.187,14.792,1.432,4.379,3.486,10.588,4.677,14.979-1.912-4.1-4.409-10.188-6.13-14.444-1.972-4.842-3.8-9.737-5.618-14.633l1.464.511C56.124,82.064,47.161,87.31,37.9,92.053Z" transform="translate(30.26 69.585)" fill="#1c124c"/>
          <path id="Tracé_48974" data-name="Tracé 48974" d="M38.022,97.223c6.4-4.142,13.115-7.779,19.893-11.259a.928.928,0,0,1,1.249.394c3.251,6.854,6.372,13.773,9.018,20.919C64.263,100.753,60.818,94,57.5,87.194l1.261.424c-6.778,3.48-13.644,6.814-20.742,9.6Z" transform="translate(30.383 80.739)" fill="#1c124c"/>
          <path id="Tracé_48975" data-name="Tracé 48975" d="M39.022,106.213A97.051,97.051,0,0,1,50.78,97.019a.928.928,0,0,1,1.405.5,84.659,84.659,0,0,1,2.921,12.715,84.888,84.888,0,0,1-4.7-12.17l1.415.495a96.892,96.892,0,0,1-12.8,7.654Z" transform="translate(31.394 91.855)" fill="#1c124c"/>
          <path id="Tracé_48976" data-name="Tracé 48976" d="M64.336,69.959c-4.908,25.3-16.129,60.735-23,85.924-.026.111-.213.066-.181-.048,6.8-25.169,14.428-62.213,23.182-85.876Z" transform="translate(33.545 64.67)" fill="#1c124c"/>
          <path id="Tracé_48977" data-name="Tracé 48977" d="M67.82,92.933c4.645,7.858,11.744,26.456,20.034,31.036a104.252,104.252,0,0,0,9.939-35.912C99.178,70.352,77.578,55.6,77.578,55.6S50.45,61.5,42.667,78.043A99.966,99.966,0,0,0,35.6,98.931S57.572,99.993,67.82,92.933Z" transform="translate(27.934 50.161)" fill="#1c124c"/>
          <path id="Tracé_48978" data-name="Tracé 48978" d="M55.9,86.24C30.424,81.712,11.437,56.344,4,40.832L86.3,68.878S68.826,88.534,55.9,86.24Z" transform="translate(-4 35.234)" fill="#1c124c"/>
          <path id="Tracé_48979" data-name="Tracé 48979" d="M78.6,46.813C55.657,34.836,19.363,36.056,4,43.8L86.3,71.846S90.234,52.885,78.6,46.813Z" transform="translate(-4 32.267)" fill="#1c124c"/>
          <path id="Tracé_48980" data-name="Tracé 48980" d="M34.536,39.821c5.006,7.383,9.583,15.025,14.05,22.738a.86.86,0,0,1-.475,1.247c-4.271,1.4-8.545,2.8-12.858,4.072S26.626,70.425,22.247,71.5c4.15-1.761,8.364-3.338,12.585-4.89s8.475-3.008,12.735-4.443l-.475,1.247c-4.409-7.745-8.7-15.55-12.556-23.595Z" transform="translate(14.441 34.212)" fill="#1c124c"/>
          <path id="Tracé_48981" data-name="Tracé 48981" d="M25.995,39.1c3.118,5.463,5.807,11.129,8.362,16.863a.773.773,0,0,1-.384,1.023c-3.06,1.094-6.128,2.169-9.233,3.139-3.076.985-6.165,1.938-9.305,2.744,5.863-2.74,11.881-5.091,17.947-7.321L32.937,56.6c-2.556-5.736-4.968-11.525-6.943-17.5Z" transform="translate(7.556 33.482)" fill="#1c124c"/>
          <path id="Tracé_48982" data-name="Tracé 48982" d="M14.585,40A69.181,69.181,0,0,1,21.16,48.73a.7.7,0,0,1-.529,1.086,80.3,80.3,0,0,1-11.026.243,80.328,80.328,0,0,1,10.906-1.643L19.984,49.5a69.308,69.308,0,0,1-5.4-9.5Z" transform="translate(1.665 34.391)" fill="#1c124c"/>
          <path id="Tracé_48983" data-name="Tracé 48983" d="M39.659,39.64c5.181,8.38,9.876,17.022,14.448,25.738a.953.953,0,0,1-.579,1.353c-4.755,1.365-9.512,2.722-14.31,3.943s-9.595,2.443-14.454,3.446c4.639-1.765,9.337-3.326,14.044-4.856,4.7-1.548,9.444-2.958,14.189-4.361l-.577,1.353C47.912,57.506,43.537,48.7,39.659,39.64Z" transform="translate(16.985 34.029)" fill="#1c124c"/>
          <path id="Tracé_48984" data-name="Tracé 48984" d="M30.248,39.23A215.185,215.185,0,0,1,39.6,58.753a.874.874,0,0,1-.452,1.152c-6.687,2.628-13.423,5.129-20.345,7.166,6.414-3.279,13.015-6.1,19.664-8.788l-.483,1.164A215.736,215.736,0,0,1,30.248,39.23Z" transform="translate(10.955 33.615)" fill="#1c124c"/>
          <path id="Tracé_48985" data-name="Tracé 48985" d="M17.415,39.527a92.159,92.159,0,0,1,7.918,11.694.877.877,0,0,1-.559,1.3,80.062,80.062,0,0,1-12.2,1.936,80.38,80.38,0,0,1,11.8-3.649l-.559,1.3a92.172,92.172,0,0,1-6.4-12.589Z" transform="translate(4.664 33.915)" fill="#1c124c"/>
          <path id="Tracé_48986" data-name="Tracé 48986" d="M83.987,68.284C60.4,62.007,27.652,49.111,4.3,40.988c-.1-.032-.05-.207.056-.169C27.7,48.869,62.2,58.48,83.987,68.284Z" transform="translate(-3.753 35.215)" fill="#1c124c"/>
          <path id="Tracé_48987" data-name="Tracé 48987" d="M65.092,53.5c16.089-14.109,43.677-18.87,61.543-13.8L62.205,76.571S56.933,60.652,65.092,53.5Z" transform="translate(53.13 32.1)" fill="#1c124c"/>
          <path id="Tracé_48988" data-name="Tracé 48988" d="M89.3,81.017c21.817-7.584,36.513-27.021,36.5-42.306L61.363,75.58S78.23,84.865,89.3,81.017Z" transform="translate(53.972 33.09)" fill="#1c124c"/>
          <path id="Tracé_48989" data-name="Tracé 48989" d="M92.053,65.99c-7.3-.67-14.531-1.743-21.755-2.923a.708.708,0,0,1-.545-.951c1.333-3.444,2.672-6.884,4.112-10.286s2.877-6.8,4.474-10.146c-1.044,3.553-2.238,7.049-3.45,10.538s-2.505,6.949-3.812,10.4l-.545-.951c7.214,1.235,14.406,2.574,21.522,4.319Z" transform="translate(62.403 36.095)" fill="#1c124c"/>
          <path id="Tracé_48990" data-name="Tracé 48990" d="M93.68,58.87c-5.1-.853-10.1-2.141-15.082-3.482a.622.622,0,0,1-.426-.77c.937-2.5,1.81-5.021,2.813-7.5.977-2.465,1.98-4.924,3.1-7.337-1.295,5.157-2.994,10.182-4.7,15.206l-.43-.822c4.964,1.393,9.908,2.831,14.726,4.7Z" transform="translate(70.936 34.176)" fill="#1c124c"/>
          <path id="Tracé_48991" data-name="Tracé 48991" d="M95.071,47.57a58.1,58.1,0,0,1-8.969-.376.577.577,0,0,1-.414-.9,67.964,67.964,0,0,1,5.59-7.128,67.317,67.317,0,0,1-4.639,7.781l-.414-.9a58.22,58.22,0,0,1,8.847,1.524Z" transform="translate(78.451 33.55)" fill="#1c124c"/>
          <path id="Tracé_48992" data-name="Tracé 48992" d="M91.157,72.51c-8.338-1.377-16.9-3.41-25.141-5.36a.822.822,0,0,1-.611-.985C69.07,58.4,72.961,50.393,77.183,42.936,74.191,50.9,70.508,58.951,66.963,66.7l-.549-1.154c8.2,2.111,16.716,4.3,24.743,6.967Z" transform="translate(58.035 37.36)" fill="#1c124c"/>
          <path id="Tracé_48993" data-name="Tracé 48993" d="M92.274,64.674c-6.148-1.359-12.166-3.167-18.144-5.119a.76.76,0,0,1-.493-.957c2.131-5.893,4.383-11.734,7.019-17.428-1.552,6.07-3.5,12.009-5.565,17.915l-.485-.987c5.978,1.954,11.9,4.045,17.667,6.577Z" transform="translate(66.34 35.575)" fill="#1c124c"/>
          <path id="Tracé_48994" data-name="Tracé 48994" d="M94.614,52.38a80.3,80.3,0,0,1-12.2-1.55.765.765,0,0,1-.613-.887,62.979,62.979,0,0,1,5.835-9.321,70.248,70.248,0,0,1-4.4,9.818L82.7,49.324A79.949,79.949,0,0,1,94.614,52.38Z" transform="translate(74.612 35.022)" fill="#1c124c"/>
          <path id="Tracé_48995" data-name="Tracé 48995" d="M61.752,75.084c17.673-11.81,44.945-25.806,63.693-36.4.08-.048.163.086.076.135C106.83,49.447,80.7,66.477,61.752,75.084Z" transform="translate(54.365 33.051)" fill="#1c124c"/>
          <path id="Tracé_48996" data-name="Tracé 48996" d="M68.611,52.984a46.416,46.416,0,0,0,.263-8.889c-1.311.945-2.588,1.924-3.782,2.972-8.159,7.154-2.887,23.072-2.887,23.072s16.867,9.285,27.934,5.437a60.083,60.083,0,0,0,28.416-20.824C83.96,47.433,68.611,52.984,68.611,52.984Z" transform="translate(53.13 38.532)" fill="#1c124c"/>
          <path id="Tracé_48997" data-name="Tracé 48997" d="M83.323,51.12c27.642,8.567,50.014,36.921,54,61.02L51.911,64.032S69.3,46.775,83.323,51.12Z" transform="translate(44.42 44.922)" fill="#1c124c"/>
          <path id="Tracé_48998" data-name="Tracé 48998" d="M61.424,93.113c22.615,19.738,56.3,22.957,75.971,12.184L51.98,57.189S49.956,83.1,61.424,93.113Z" transform="translate(44.351 51.765)" fill="#1c124c"/>
          <path id="Tracé_48999" data-name="Tracé 48999" d="M70.362,93.432c-3.78-9.693-7-19.567-10.085-29.494a1,1,0,0,1,.861-1.293c5.2-.509,10.4-1.009,15.615-1.359,4.6-.3,11.121-.75,15.673-.814-4.445.836-10.964,1.745-15.516,2.356-5.179.71-10.373,1.267-15.568,1.816l.859-1.293C65.2,73.3,68.064,83.285,70.362,93.432Z" transform="translate(52.827 55.083)" fill="#1c124c"/>
          <path id="Tracé_49000" data-name="Tracé 49000" d="M76.237,92.469c-2.425-7.23-4.285-14.633-5.976-22.065a.924.924,0,0,1,.69-1.11c7.447-1.45,14.923-2.761,22.5-3.551-7.291,2.18-14.684,3.842-22.1,5.366l.724-1.118c1.693,7.429,3.219,14.909,4.164,22.477Z" transform="translate(62.94 60.411)" fill="#1c124c"/>
          <path id="Tracé_49001" data-name="Tracé 49001" d="M86.3,88.037a96.863,96.863,0,0,1-5.988-13.66.926.926,0,0,1,.83-1.247,84.714,84.714,0,0,1,13.041.322A84.7,84.7,0,0,1,81.23,74.986l.828-1.249a96.757,96.757,0,0,1,4.242,14.3Z" transform="translate(73.061 67.77)" fill="#1c124c"/>
          <path id="Tracé_49002" data-name="Tracé 49002" d="M66.046,91.226c-3.78-9.693-7-19.567-10.083-29.494a1,1,0,0,1,.859-1.293c5.2-.509,10.4-1.009,15.614-1.359,4.6-.3,11.121-.75,15.673-.814-4.445.836-10.964,1.743-15.516,2.356-5.179.71-10.373,1.267-15.568,1.816l.859-1.293c3.006,9.949,5.865,19.933,8.163,30.081Z" transform="translate(48.467 52.853)" fill="#1c124c"/>
          <path id="Tracé_49003" data-name="Tracé 49003" d="M71.866,89.986c-2.425-7.23-4.285-14.633-5.976-22.063a.927.927,0,0,1,.692-1.112c7.447-1.45,14.921-2.759,22.5-3.551-7.291,2.182-14.684,3.844-22.1,5.366l.722-1.116c1.693,7.429,3.219,14.907,4.164,22.475Z" transform="translate(58.523 57.901)" fill="#1c124c"/>
          <path id="Tracé_49004" data-name="Tracé 49004" d="M81.827,85.608A96.845,96.845,0,0,1,75.839,71.95a.926.926,0,0,1,.828-1.249,84.744,84.744,0,0,1,13.043.322,84.759,84.759,0,0,1-12.956,1.534l.83-1.247a96.9,96.9,0,0,1,4.242,14.3Z" transform="translate(68.54 65.316)" fill="#1c124c"/>
          <path id="Tracé_49005" data-name="Tracé 49005" d="M51.605,57.008c23.3,11.028,54.842,30.682,77.54,43.584.1.054.012.225-.092.165-22.7-12.824-56.694-29.4-77.447-43.749Z" transform="translate(44.111 51.582)" fill="#1c124c"/>
          <path id="Tracé_49006" data-name="Tracé 49006" d="M76.4,50.365c-11.3,0-24.419,13.72-24.419,13.72S49.956,90,61.424,100.009a74.71,74.71,0,0,0,6.782,5.22,90.194,90.194,0,0,0,9.337,5.364c1.878-13.4,2.083-19.873-4.373-34.4C74.785,71.35,78.014,63.279,76.4,50.365Z" transform="translate(44.351 44.868)" fill="#1c124c"/>
          <path id="Tracé_49007" data-name="Tracé 49007" d="M50.574,94.171C34.332,67.554,30.942,31.723,39.013,12.634l40.335,96.679S58.81,107.668,50.574,94.171Z" transform="translate(27.137 6.736)" fill="#1c124c"/>
          <path id="Tracé_49008" data-name="Tracé 49008" d="M86.715,78.21C79.226,47.943,56.146,20.327,36.9,12.634l40.335,96.679S90.515,93.56,86.715,78.21Z" transform="translate(29.249 6.736)" fill="#1c124c"/>
          <path id="Tracé_49009" data-name="Tracé 49009" d="M73.907,33.1c-2.562,8.559-5.632,16.931-8.849,25.255a.97.97,0,0,1-1.422.47c-4.474-2.809-8.933-5.642-13.32-8.589-3.858-2.606-9.349-6.293-13.027-9.06,9.2,4.868,18.564,10.487,27.379,16l-1.422.47c3.291-8.3,6.726-16.525,10.66-24.548Z" transform="translate(29.644 27.423)" fill="#1c124c"/>
          <path id="Tracé_49010" data-name="Tracé 49010" d="M77.806,44.1c-2.562,8.559-5.632,16.931-8.849,25.255a.97.97,0,0,1-1.422.47c-4.474-2.809-8.933-5.642-13.32-8.591-3.858-2.6-9.349-6.293-13.025-9.058,9.2,4.868,18.562,10.487,27.377,16l-1.42.47C70.44,60.35,73.872,52.12,77.806,44.1Z" transform="translate(33.586 38.535)" fill="#1c124c"/>
          <path id="Tracé_49011" data-name="Tracé 49011" d="M66.376,25.4C63.76,32.563,60.6,39.51,57.282,46.372a.925.925,0,0,1-1.232.436c-6.726-3.511-13.385-7.152-19.8-11.259,7.059,2.843,13.873,6.155,20.625,9.593l-1.263.422C58.921,38.7,62.393,31.9,66.376,25.4Z" transform="translate(28.59 19.639)" fill="#1c124c"/>
          <path id="Tracé_49012" data-name="Tracé 49012" d="M51.965,18a96.872,96.872,0,0,1-3.846,14.422.926.926,0,0,1-1.422.446A84.56,84.56,0,0,1,36.7,24.48a84.913,84.913,0,0,1,11.083,6.882l-1.428.458A96.882,96.882,0,0,1,51.965,18Z" transform="translate(29.051 12.159)" fill="#1c124c"/>
          <path id="Tracé_49013" data-name="Tracé 49013" d="M77.089,35.956C74.1,45.921,70.555,55.684,66.869,65.4a1,1,0,0,1-1.472.491c-4.411-2.8-8.817-5.61-13.141-8.547-3.806-2.594-9.223-6.257-12.848-9.01,4.017,2.079,9.711,5.378,13.674,7.7,4.518,2.63,8.953,5.392,13.385,8.159L65,64.684c3.758-9.691,7.654-19.318,12.094-28.728Z" transform="translate(31.784 30.306)" fill="#1c124c"/>
          <path id="Tracé_49014" data-name="Tracé 49014" d="M68.185,29.6c-2.541,7.19-5.636,14.169-8.879,21.063a.925.925,0,0,1-1.228.45C51.315,47.669,44.62,44.1,38.162,40.053c7.085,2.771,13.936,6.016,20.719,9.384l-1.259.434C60.866,42.977,64.27,36.145,68.185,29.6Z" transform="translate(30.525 23.883)" fill="#1c124c"/>
          <path id="Tracé_49015" data-name="Tracé 49015" d="M53.834,22.291a97.1,97.1,0,0,1-3.7,14.462.926.926,0,0,1-1.417.46A84.588,84.588,0,0,1,38.64,28.928,84.584,84.584,0,0,1,49.791,35.7l-1.422.472a96.8,96.8,0,0,1,5.465-13.879Z" transform="translate(31.008 16.496)" fill="#1c124c"/>
          <path id="Tracé_49016" data-name="Tracé 49016" d="M71.861,96.948C60.3,73.912,47.552,39,37.614,14.854c-.046-.1.131-.185.173-.072,9.987,24.081,26.56,58.079,34.074,82.166Z" transform="translate(29.963 8.851)" fill="#1c124c"/>
          <path id="Tracé_49017" data-name="Tracé 49017" d="M70.431,65.017C58.341,55.024,52.257,52.352,42.2,54.449c.3.513.6,1.029.9,1.536,8.236,13.5,28.774,15.142,28.774,15.142s7.9-9.378,9.766-20.709A112.53,112.53,0,0,1,70.431,65.017Z" transform="translate(34.606 44.922)" fill="#1c124c"/>
          <path id="Tracé_49018" data-name="Tracé 49018" d="M83.235,84.061c-19.447,10.471-46.852,7.49-62.108-3.225L93,60.052S93.1,78.753,83.235,84.061Z" transform="translate(13.309 54.658)" fill="#1c124c"/>
          <path id="Tracé_49019" data-name="Tracé 49019" d="M68.391,53.073C45.548,54.833,25.784,71.452,21.127,87.927L93,67.144S79.976,52.183,68.391,53.073Z" transform="translate(13.309 47.566)" fill="#1c124c"/>
          <path id="Tracé_49020" data-name="Tracé 49020" d="M36.7,57.189C43.514,60.6,50.1,64.413,56.615,68.338a.813.813,0,0,1,.277,1.118c-3.5,5.851-7.118,11.617-11.155,17.122,2.921-6.171,6.271-12.1,9.75-17.959l.277,1.118C49.28,65.754,42.871,61.665,36.7,57.189Z" transform="translate(29.051 51.765)" fill="#1c124c"/>
          <path id="Tracé_49021" data-name="Tracé 49021" d="M43.739,54.2c7.4,4.005,14.553,8.4,21.644,12.908a.816.816,0,0,1,.3,1.046C62.43,74.864,59.054,81.5,55.238,87.913c2.644-6.979,5.738-13.751,8.967-20.468l.3,1.044C57.445,63.924,50.467,59.254,43.739,54.2Z" transform="translate(36.161 48.747)" fill="#1c124c"/>
          <path id="Tracé_49022" data-name="Tracé 49022" d="M30.73,60.158c5.684,3,11.115,6.406,16.469,9.943a.784.784,0,0,1,.251,1.035,162.582,162.582,0,0,1-8.7,13.924,163.15,163.15,0,0,1,7.337-14.69l.251,1.035c-5.354-3.537-10.616-7.2-15.606-11.247Z" transform="translate(23.014 54.765)" fill="#1c124c"/>
          <path id="Tracé_49023" data-name="Tracé 49023" d="M25.108,65.767a47.85,47.85,0,0,1,8.913,3.509.778.778,0,0,1,.364,1.037,64.194,64.194,0,0,1-8.262,7.6,71.286,71.286,0,0,1,6.987-8.471l.221,1.241a47.721,47.721,0,0,1-8.223-4.912Z" transform="translate(17.332 60.434)" fill="#1c124c"/>
          <path id="Tracé_49024" data-name="Tracé 49024" d="M37.95,54.952c8.612,4.031,16.968,8.537,25.241,13.206a.849.849,0,0,1,.318,1.178c-4.25,7.126-8.628,14.169-13.371,20.985,3.671-7.449,7.719-14.686,11.9-21.851l.318,1.178c-8.29-4.641-16.483-9.438-24.4-14.7Z" transform="translate(30.311 49.504)" fill="#1c124c"/>
          <path id="Tracé_49025" data-name="Tracé 49025" d="M32.9,58.6c6.251,3.3,12.245,7,18.162,10.847a.8.8,0,0,1,.294,1c-2.543,5.575-5.2,11.091-8.254,16.419,1.958-5.819,4.315-11.471,6.8-17.074l.294,1C44.269,66.941,38.444,62.972,32.9,58.6Z" transform="translate(25.202 53.19)" fill="#1c124c"/>
          <path id="Tracé_49026" data-name="Tracé 49026" d="M27.135,63.764a92.389,92.389,0,0,1,12.4,5.316.794.794,0,0,1,.3,1.164,61.4,61.4,0,0,1-6.42,8.006,61.237,61.237,0,0,1,5.1-8.907l.3,1.164a92.505,92.505,0,0,1-11.688-6.744Z" transform="translate(19.381 58.409)" fill="#1c124c"/>
          <path id="Tracé_49027" data-name="Tracé 49027" d="M88.165,60.773C69.283,67.858,40.986,74.562,21.342,80.145a.081.081,0,0,1-.044-.155C40.881,74.361,68.787,64.3,88.165,60.773Z" transform="translate(13.426 55.387)" fill="#1c124c"/>
          <path id="Tracé_49028" data-name="Tracé 49028" d="M55.113,78.784C58.7,71.391,58.656,61.81,58.656,61.81s-1.3-1.49-3.434-3.5C55.539,62.774,56.028,72.169,55.113,78.784Z" transform="translate(47.656 52.9)" fill="#1c124c" opacity="0.27"/>
          <path id="Tracé_49029" data-name="Tracé 49029" d="M70.556,50.258A88.786,88.786,0,0,1,57.5,67.925a.784.784,0,0,0-.231.591c.107,2.182.549,14.629-2.4,26.42a.817.817,0,0,0,1.44.706C61.46,88.782,72.57,71.5,72.1,50.658A.826.826,0,0,0,70.556,50.258Z" transform="translate(47.385 44.342)" fill="#1c124c"/>
          <path id="Tracé_49030" data-name="Tracé 49030" d="M66.263,66.042a21.843,21.843,0,0,1-4.823-3.808,17.957,17.957,0,0,0-5.4-2.954l.036-.2a14.364,14.364,0,0,1,8.967,3.756,5.887,5.887,0,0,1,1.391,3.1l-.175.1Z" transform="translate(48.596 53.677)" fill="#1c124c"/>
          <path id="Tracé_49031" data-name="Tracé 49031" d="M57.463,75.187a19.089,19.089,0,0,0,4.761-8.093c.3-2.306.969-5.935,1.46-8.579a15.145,15.145,0,0,0,.35-2.913c.883,1.842.756,3.983.76,5.972a42.363,42.363,0,0,1-.66,6.024c-1.039,3.3-3.386,6.39-6.671,7.59Z" transform="translate(50.031 50.161)" fill="#1c124c"/>
        </g>
        <g id="Groupe_17767" data-name="Groupe 17767">
          <g id="Groupe_17766" data-name="Groupe 17766">
            <g id="Groupe_17696" data-name="Groupe 17696" transform="translate(20.355 26.87)">
              <g id="Groupe_17695" data-name="Groupe 17695">
                <ellipse id="Ellipse_298" data-name="Ellipse 298" cx="77.998" cy="77.998" rx="77.998" ry="77.998" transform="translate(5.395 5.397)" fill="#5027a5"/>
                <path id="Tracé_49032" data-name="Tracé 49032" d="M97.115,146.66c-3.416-.384-6.273,4.072-9.926,4.192-2.3.078-4.23-1.57-6.144-2.845s-4.576-2.208-6.4-.8c-.553.426-.983,1.046-1.641,1.277-1.12.4-2.238-.485-3.207-1.17-5.752-4.078-14.854-3.143-18.689-9.062-.545-.84-1.04-1.862-2-2.145-1.267-.374-2.487.768-3.806.836-3.549.183-3.364-6.177-6.6-7.652-1.554-.712-3.776-.2-4.719-1.621-.633-.955-.253-2.218-.243-3.362.048-5.654-8.8-8.2-8.817-13.849,0-1.1.352-2.161.444-3.253.464-5.427-5.437-10.369-3.754-15.546a34.049,34.049,0,0,0,1.313-3.265c.633-2.97-1.916-6.056-.933-8.929.332-.975,1.048-1.8,1.313-2.789.738-2.761-2.145-5.205-2.435-8.047-.35-3.422,3.006-5.972,6.05-7.57A4.18,4.18,0,0,0,28.764,59.6c.776-1.373-.225-3.042-.314-4.616-.308-5.453,9.536-6.852,9.641-12.315a17.415,17.415,0,0,1-.1-2.682c.322-1.8,5.161-2.738,6.886-3.354,4.21-1.5,5.724-2.431,10.192-2.626a7.08,7.08,0,0,0,2.688-.44,1.935,1.935,0,0,0,1.09-1.793c.354-4.53,5.119-7.582,9.018-5.246a9.029,9.029,0,0,1,.885.6,3.742,3.742,0,0,0,1.633.925c2,.288,2.742-2.992,4.717-3.43,2.344-.521,3.9,3.261,6.283,2.942,1.138-.155,1.9-1.2,2.863-1.838,3.217-2.125,7.228.746,10.688,2.445a2.785,2.785,0,0,0,2.256.336c.706-.3,1.058-1.078,1.538-1.677,1.49-1.858,4.393-2.009,6.547-.989,2.551,1.206,4.007,3.681,6.611,4.823a95.844,95.844,0,0,1,9.237,5.117c3.133,1.812,6.344,3.689,8.591,6.524,2.9,3.657,3.917,8.559,6.092,12.432l2.618,6.187c1.2,5.063,4.031,9.83,5.1,15.056a46.287,46.287,0,0,1,.4,11.678c-.306,5.891-.808,12.206-4.518,16.795a3.234,3.234,0,0,0-1.046,2.153,4.591,4.591,0,0,0,.732,1.592c1.2,2.3-.179,5.059-1.528,7.278l-7.908,13a19.327,19.327,0,0,1-4.769,5.913c-3.271,2.371-7.6,2.451-11.569,3.181s-8.36,2.807-9.187,6.762c-.3,1.422-.261,3.225-1.556,3.878-1.538.776-3.123-.913-4.769-1.415A3.761,3.761,0,0,0,97.115,146.66Z" transform="translate(0.72 -2.029)" fill="#24075a"/>
                <path id="Tracé_49033" data-name="Tracé 49033" d="M154.786,73.644a77.922,77.922,0,0,0-51.178-55.608A77.986,77.986,0,0,1,24.5,147.836,77.992,77.992,0,0,0,154.786,73.644Z" transform="translate(4.405 -8.642)" fill="#231652" opacity="0.35"/>
                <path id="Tracé_49034" data-name="Tracé 49034" d="M12.485,116.423a83.384,83.384,0,1,1,100.694,61.37A83.48,83.48,0,0,1,12.485,116.423Zm151.6-36.784a72.612,72.612,0,1,0-53.442,87.685A72.693,72.693,0,0,0,164.082,79.638Z" transform="translate(-10.124 -13.364)" fill="#fffdfd"/>
              </g>
            </g>
            <g id="Groupe_17765" data-name="Groupe 17765">
              <g id="Groupe_17705" data-name="Groupe 17705" transform="translate(82.903)">
                <path id="Tracé_49035" data-name="Tracé 49035" d="M42.784,91.047C36.328,55.843,50.854,16.578,71.009,0V119.668S46.059,108.9,42.784,91.047Z" transform="translate(-41.233)" fill="#228272"/>
                <path id="Tracé_49036" data-name="Tracé 49036" d="M84.265,91.047C90.723,55.843,76.194,16.578,56.042,0V119.668S80.992,108.9,84.265,91.047Z" transform="translate(-26.266)" fill="#00796b"/>
                <g id="Groupe_17697" data-name="Groupe 17697" transform="translate(10.181 60.526)">
                  <path id="Tracé_49037" data-name="Tracé 49037" d="M88.485,32.648C81.687,39.857,74.541,46.7,67.3,53.458a.858.858,0,0,1-1.212-.04C59.291,45.816,52.6,38.127,46.3,30.1c7.3,7.118,14.231,14.585,21.061,22.147l-1.226-.056c7.285-6.705,14.651-13.312,22.354-19.545Z" transform="translate(-46.296 -30.103)" fill="#6f1d57"/>
                </g>
                <g id="Groupe_17698" data-name="Groupe 17698" transform="translate(15.806 41.292)">
                  <path id="Tracé_49038" data-name="Tracé 49038" d="M78.135,22.316c-4.538,5.35-9.418,10.371-14.408,15.291a.774.774,0,0,1-1.094,0c-4.695-5.543-9.277-11.175-13.54-17.068,5.133,5.121,9.953,10.522,14.68,16.011L62.636,36.5c4.99-4.918,10.083-9.723,15.5-14.183Z" transform="translate(-49.094 -20.537)" fill="#6f1d57"/>
                </g>
                <g id="Groupe_17699" data-name="Groupe 17699" transform="translate(26.256 25.754)">
                  <path id="Tracé_49039" data-name="Tracé 49039" d="M64.376,12.809a69.053,69.053,0,0,1-5.867,9.223.7.7,0,0,1-1.2-.113,48.024,48.024,0,0,1-3.018-7.964,48.111,48.111,0,0,1,4.287,7.361l-1.2-.113a69.112,69.112,0,0,1,7-8.394Z" transform="translate(-54.291 -12.809)" fill="#6f1d57"/>
                </g>
                <g id="Groupe_17704" data-name="Groupe 17704" transform="translate(7.316 0.464)">
                  <g id="Groupe_17700" data-name="Groupe 17700" transform="translate(0 67.276)">
                    <path id="Tracé_49040" data-name="Tracé 49040" d="M95.776,37.372c-8.412,10.4-17.42,20.3-26.556,30.057a1.294,1.294,0,0,1-1.995-.137c-7.777-10.978-15.4-22.077-22.354-33.6,8.622,10.337,16.624,21.166,24.459,32.1l-1.993-.137c9.2-9.7,18.554-19.272,28.438-28.283Z" transform="translate(-44.871 -33.691)" fill="#00695c"/>
                  </g>
                  <g id="Groupe_17701" data-name="Groupe 17701" transform="translate(4.206 48.545)">
                    <path id="Tracé_49041" data-name="Tracé 49041" d="M87.811,26.609C81.27,33.923,74.177,40.717,66.947,47.34a1.2,1.2,0,0,1-1.713-.1C60.46,41.7,55.786,36.073,51.328,30.268c-1.454-1.964-2.964-3.881-4.365-5.893,7.061,6.744,13.644,13.962,20.078,21.3l-1.711-.1c7.23-6.623,14.621-13.091,22.481-18.966Z" transform="translate(-46.963 -24.375)" fill="#00695c"/>
                  </g>
                  <g id="Groupe_17702" data-name="Groupe 17702" transform="translate(13.529 27.355)">
                    <path id="Tracé_49042" data-name="Tracé 49042" d="M72.931,13.836A124.647,124.647,0,0,1,61.46,29.241a1.2,1.2,0,0,1-1.916-.143c-1.472-2.373-2.911-4.763-4.24-7.224a78.884,78.884,0,0,1-3.7-7.566,108.6,108.6,0,0,1,9.967,13.509l-1.924-.133A124.574,124.574,0,0,1,72.931,13.836Z" transform="translate(-51.6 -13.836)" fill="#00695c"/>
                  </g>
                  <g id="Groupe_17703" data-name="Groupe 17703" transform="translate(21.856)">
                    <path id="Tracé_49043" data-name="Tracé 49043" d="M57.076,114.8C54.547,76.7,56.378,38.5,56.437.344c0-.147.243-.155.241,0q.682,28.612,1.162,57.226c.29,18.836,1.1,39.107-.764,57.234Z" transform="translate(-55.741 -0.231)" fill="#00695c"/>
                  </g>
                </g>
              </g>
              <g id="Groupe_17706" data-name="Groupe 17706" transform="translate(82.904 33.179)" opacity="0.5">
                <path id="Tracé_49044" data-name="Tracé 49044" d="M76.226,63.408c2.952-17.4-18.9-36.784-27.391-46.906-6.744,17.48-9.641,38.3-6.052,57.868,3.275,17.854,28.225,28.621,28.225,28.621S95.958,92.224,99.232,74.37a100.422,100.422,0,0,0,1.18-26.309C85.714,52.444,76.226,63.408,76.226,63.408Z" transform="translate(-41.233 -16.502)" fill="#004d40"/>
              </g>
              <g id="Groupe_17714" data-name="Groupe 17714" transform="translate(60.95 105.763)">
                <path id="Tracé_49045" data-name="Tracé 49045" d="M88.134,85.057c-2.732,34.908-27,69.988-50.937,82.311L67.919,52.6S89.519,67.352,88.134,85.057Z" transform="translate(-23.358 -52.602)" fill="#00897b"/>
                <path id="Tracé_49046" data-name="Tracé 49046" d="M39.965,75.043c-15.343,32.616-11.237,72.853,4.188,92.326L74.876,52.6S47.748,58.5,39.965,75.043Z" transform="translate(-30.314 -52.602)" fill="#00796b"/>
                <g id="Groupe_17707" data-name="Groupe 17707" transform="translate(4.944 48.694)">
                  <path id="Tracé_49047" data-name="Tracé 49047" d="M32.773,94.857C41.037,88.536,49.628,82.7,58.31,76.985a1.006,1.006,0,0,1,1.482.466c1.93,4.856,3.854,9.711,5.638,14.627,1.564,4.331,3.806,10.475,5.131,14.828-2.037-4.037-4.719-10.047-6.569-14.251-2.119-4.779-4.1-9.615-6.064-14.454l1.48.466c-8.724,5.648-17.523,11.167-26.635,16.19Z" transform="translate(-32.773 -76.82)" fill="#6f1d57"/>
                </g>
                <g id="Groupe_17708" data-name="Groupe 17708" transform="translate(5.188 71.322)">
                  <path id="Tracé_49048" data-name="Tracé 49048" d="M32.894,100.055c6.273-4.335,12.87-8.177,19.539-11.863a.925.925,0,0,1,1.259.356c3.46,6.752,6.792,13.57,9.655,20.631-4.118-6.4-7.767-13.039-11.29-19.746l1.275.386c-6.669,3.687-13.431,7.228-20.438,10.236Z" transform="translate(-32.894 -88.074)" fill="#6f1d57"/>
                </g>
                <g id="Groupe_17709" data-name="Groupe 17709" transform="translate(10.757 91.707)">
                  <path id="Tracé_49049" data-name="Tracé 49049" d="M35.664,105.722a75.184,75.184,0,0,1,8.849-7.369.718.718,0,0,1,1.1.35,65.5,65.5,0,0,1,2.556,9.741,65.762,65.762,0,0,1-3.915-9.281l1.1.348a74.96,74.96,0,0,1-9.7,6.211Z" transform="translate(-35.664 -98.213)" fill="#6f1d57"/>
                </g>
                <g id="Groupe_17710" data-name="Groupe 17710" transform="translate(7.21 38.644)">
                  <path id="Tracé_49050" data-name="Tracé 49050" d="M33.9,89.053c8.453-6.066,17.219-11.637,26.072-17.082a1,1,0,0,1,1.466.511c1.783,4.912,3.557,9.826,5.187,14.792,1.432,4.379,3.486,10.588,4.677,14.979-1.912-4.1-4.409-10.188-6.13-14.444-1.972-4.842-3.8-9.737-5.618-14.633l1.464.511C52.124,79.064,43.161,84.31,33.9,89.053Z" transform="translate(-33.9 -71.822)" fill="#00695c"/>
                </g>
                <g id="Groupe_17711" data-name="Groupe 17711" transform="translate(7.456 60.836)">
                  <path id="Tracé_49051" data-name="Tracé 49051" d="M34.022,94.223c6.4-4.142,13.115-7.779,19.893-11.259a.928.928,0,0,1,1.249.394c3.251,6.854,6.372,13.773,9.018,20.919C60.263,97.753,56.818,91,53.5,84.194l1.261.424c-6.778,3.48-13.644,6.814-20.742,9.6Z" transform="translate(-34.022 -82.859)" fill="#00695c"/>
                </g>
                <g id="Groupe_17712" data-name="Groupe 17712" transform="translate(9.466 82.951)">
                  <path id="Tracé_49052" data-name="Tracé 49052" d="M35.022,103.213A97.05,97.05,0,0,1,46.78,94.019a.927.927,0,0,1,1.405.5,84.657,84.657,0,0,1,2.921,12.715,84.887,84.887,0,0,1-4.7-12.17l1.415.495a96.891,96.891,0,0,1-12.8,7.654Z" transform="translate(-35.022 -93.858)" fill="#00695c"/>
                </g>
                <g id="Groupe_17713" data-name="Groupe 17713" transform="translate(13.745 28.867)">
                  <path id="Tracé_49053" data-name="Tracé 49053" d="M60.336,66.959c-4.908,25.3-16.129,60.735-23,85.924-.026.111-.213.066-.181-.048,6.8-25.169,14.428-62.213,23.182-85.876Z" transform="translate(-37.15 -66.959)" fill="#00695c"/>
                </g>
              </g>
              <g id="Groupe_17715" data-name="Groupe 17715" transform="translate(63.532 105.763)" opacity="0.7">
                <path id="Tracé_49054" data-name="Tracé 49054" d="M63.82,89.933c4.645,7.858,11.744,26.456,20.034,31.036a104.252,104.252,0,0,0,9.938-35.912C95.178,67.352,73.578,52.6,73.578,52.6S46.45,58.5,38.667,75.043A99.967,99.967,0,0,0,31.6,95.931S53.572,96.993,63.82,89.933Z" transform="translate(-31.598 -52.602)" fill="#004d40"/>
              </g>
              <g id="Groupe_17723" data-name="Groupe 17723" transform="translate(0 70.162)">
                <path id="Tracé_49055" data-name="Tracé 49055" d="M51.9,83.24C26.424,78.712,7.437,53.344,0,37.832L82.3,65.878S64.826,85.534,51.9,83.24Z" transform="translate(0 -31.929)" fill="#228272"/>
                <path id="Tracé_49056" data-name="Tracé 49056" d="M74.6,43.813C51.657,31.836,15.363,33.056,0,40.8L82.3,68.846S86.234,49.885,74.6,43.813Z" transform="translate(0 -34.896)" fill="#00796b"/>
                <g id="Groupe_17716" data-name="Groupe 17716" transform="translate(36.688 3.871)">
                  <path id="Tracé_49057" data-name="Tracé 49057" d="M30.536,36.821c5.006,7.383,9.583,15.025,14.05,22.738a.86.86,0,0,1-.475,1.247c-4.271,1.4-8.545,2.8-12.858,4.072S22.626,67.425,18.247,68.5c4.15-1.761,8.364-3.338,12.584-4.89s8.475-3.008,12.735-4.443l-.475,1.247c-4.409-7.745-8.7-15.55-12.556-23.595Z" transform="translate(-18.247 -36.821)" fill="#6f1d57"/>
                </g>
                <g id="Groupe_17717" data-name="Groupe 17717" transform="translate(22.991 2.419)">
                  <path id="Tracé_49058" data-name="Tracé 49058" d="M21.995,36.1c3.118,5.463,5.807,11.129,8.362,16.863a.773.773,0,0,1-.384,1.023c-3.06,1.094-6.128,2.169-9.233,3.139-3.076.985-6.165,1.938-9.305,2.745,5.863-2.74,11.881-5.091,17.947-7.321L28.937,53.6c-2.555-5.736-4.968-11.525-6.943-17.5Z" transform="translate(-11.435 -36.099)" fill="#6f1d57"/>
                </g>
                <g id="Groupe_17718" data-name="Groupe 17718" transform="translate(11.27 4.227)">
                  <path id="Tracé_49059" data-name="Tracé 49059" d="M10.585,37A69.18,69.18,0,0,1,17.16,45.73a.7.7,0,0,1-.529,1.086A80.3,80.3,0,0,1,5.6,47.059a80.327,80.327,0,0,1,10.906-1.643L15.984,46.5a69.308,69.308,0,0,1-5.4-9.5Z" transform="translate(-5.605 -36.998)" fill="#6f1d57"/>
                </g>
                <g id="Groupe_17719" data-name="Groupe 17719" transform="translate(41.749 3.507)">
                  <path id="Tracé_49060" data-name="Tracé 49060" d="M35.659,36.64c5.181,8.38,9.876,17.022,14.448,25.738a.953.953,0,0,1-.579,1.353c-4.755,1.365-9.512,2.722-14.31,3.943s-9.595,2.443-14.454,3.446c4.639-1.765,9.337-3.326,14.044-4.856,4.7-1.548,9.444-2.958,14.189-4.361l-.577,1.353C43.912,54.506,39.537,45.7,35.659,36.64Z" transform="translate(-20.764 -36.64)" fill="#00695c"/>
                </g>
                <g id="Groupe_17720" data-name="Groupe 17720" transform="translate(29.753 2.682)">
                  <path id="Tracé_49061" data-name="Tracé 49061" d="M26.248,36.23A215.184,215.184,0,0,1,35.6,55.753a.874.874,0,0,1-.452,1.152c-6.687,2.628-13.423,5.129-20.345,7.166,6.414-3.279,13.015-6.1,19.664-8.788l-.483,1.164A215.737,215.737,0,0,1,26.248,36.23Z" transform="translate(-14.798 -36.23)" fill="#00695c"/>
                </g>
                <g id="Groupe_17721" data-name="Groupe 17721" transform="translate(17.237 3.28)">
                  <path id="Tracé_49062" data-name="Tracé 49062" d="M13.415,36.527a92.158,92.158,0,0,1,7.918,11.694.877.877,0,0,1-.559,1.3,80.062,80.062,0,0,1-12.2,1.936,80.382,80.382,0,0,1,11.8-3.649l-.559,1.3a92.171,92.171,0,0,1-6.4-12.589Z" transform="translate(-8.573 -36.527)" fill="#00695c"/>
                </g>
                <g id="Groupe_17722" data-name="Groupe 17722" transform="translate(0.491 5.866)">
                  <path id="Tracé_49063" data-name="Tracé 49063" d="M79.987,65.284C56.4,59.007,23.652,46.111.3,37.988c-.1-.032-.05-.207.056-.169C23.7,45.869,58.2,55.48,79.987,65.284Z" transform="translate(-0.244 -37.813)" fill="#00695c"/>
                </g>
              </g>
              <g id="Groupe_17732" data-name="Groupe 17732" transform="translate(113.66 69.83)">
                <path id="Tracé_49064" data-name="Tracé 49064" d="M61.092,50.5c16.089-14.109,43.677-18.87,61.543-13.8L58.205,73.571S52.933,57.652,61.092,50.5Z" transform="translate(-56.53 -34.731)" fill="#228272"/>
                <path id="Tracé_49065" data-name="Tracé 49065" d="M85.3,78.017c21.817-7.584,36.513-27.021,36.5-42.306L57.363,72.58S74.23,81.865,85.3,78.017Z" transform="translate(-55.688 -33.74)" fill="#00796b"/>
                <g id="Groupe_17724" data-name="Groupe 17724" transform="translate(18.448 7.949)">
                  <path id="Tracé_49066" data-name="Tracé 49066" d="M88.053,62.99c-7.3-.67-14.531-1.743-21.755-2.923a.708.708,0,0,1-.545-.951c1.333-3.444,2.672-6.884,4.112-10.286s2.877-6.8,4.474-10.146c-1.044,3.553-2.238,7.049-3.45,10.538s-2.505,6.949-3.812,10.4l-.545-.951c7.214,1.235,14.406,2.574,21.522,4.319Z" transform="translate(-65.705 -38.684)" fill="#6f1d57"/>
                </g>
                <g id="Groupe_17725" data-name="Groupe 17725" transform="translate(35.424 4.13)">
                  <path id="Tracé_49067" data-name="Tracé 49067" d="M89.68,55.87c-5.1-.853-10.1-2.141-15.082-3.482a.622.622,0,0,1-.426-.77c.937-2.5,1.81-5.021,2.813-7.5.977-2.465,1.98-4.924,3.1-7.337-1.295,5.157-2.994,10.182-4.7,15.206l-.43-.822c4.964,1.393,9.908,2.831,14.726,4.7Z" transform="translate(-74.148 -36.785)" fill="#6f1d57"/>
                </g>
                <g id="Groupe_17726" data-name="Groupe 17726" transform="translate(50.376 2.886)">
                  <path id="Tracé_49068" data-name="Tracé 49068" d="M91.071,44.57a58.1,58.1,0,0,1-8.969-.376.577.577,0,0,1-.414-.9,67.963,67.963,0,0,1,5.59-7.128,67.313,67.313,0,0,1-4.639,7.781l-.414-.9a58.222,58.222,0,0,1,8.847,1.524Z" transform="translate(-81.585 -36.166)" fill="#6f1d57"/>
                </g>
                <g id="Groupe_17731" data-name="Groupe 17731" transform="translate(2.458 1.892)">
                  <g id="Groupe_17727" data-name="Groupe 17727" transform="translate(7.301 8.574)">
                    <path id="Tracé_49069" data-name="Tracé 49069" d="M87.157,69.51c-8.338-1.377-16.9-3.41-25.141-5.36a.822.822,0,0,1-.611-.985C65.07,55.4,68.961,47.393,73.183,39.936,70.191,47.9,66.508,55.951,62.963,63.7l-.549-1.154c8.2,2.111,16.716,4.3,24.743,6.967Z" transform="translate(-61.383 -39.936)" fill="#00695c"/>
                  </g>
                  <g id="Groupe_17728" data-name="Groupe 17728" transform="translate(23.823 5.023)">
                    <path id="Tracé_49070" data-name="Tracé 49070" d="M88.274,61.674c-6.148-1.359-12.166-3.167-18.144-5.119a.76.76,0,0,1-.493-.957c2.131-5.893,4.383-11.734,7.019-17.428-1.552,6.07-3.5,12.009-5.565,17.915l-.485-.987c5.978,1.954,11.9,4.045,17.667,6.577Z" transform="translate(-69.601 -38.17)" fill="#00695c"/>
                  </g>
                  <g id="Groupe_17729" data-name="Groupe 17729" transform="translate(40.281 3.921)">
                    <path id="Tracé_49071" data-name="Tracé 49071" d="M90.614,49.38a80.3,80.3,0,0,1-12.2-1.55.765.765,0,0,1-.613-.887,62.978,62.978,0,0,1,5.835-9.321,70.249,70.249,0,0,1-4.4,9.818L78.7,46.324A79.949,79.949,0,0,1,90.614,49.38Z" transform="translate(-77.786 -37.622)" fill="#00695c"/>
                  </g>
                  <g id="Groupe_17730" data-name="Groupe 17730">
                    <path id="Tracé_49072" data-name="Tracé 49072" d="M57.752,72.084c17.673-11.81,44.945-25.806,63.693-36.4.08-.048.163.086.076.135C102.83,46.447,76.7,63.477,57.752,72.084Z" transform="translate(-57.752 -35.672)" fill="#00695c"/>
                  </g>
                </g>
              </g>
              <g id="Groupe_17733" data-name="Groupe 17733" transform="translate(113.66 82.627)" opacity="0.37">
                <path id="Tracé_49073" data-name="Tracé 49073" d="M64.611,49.984a46.416,46.416,0,0,0,.263-8.889c-1.311.945-2.588,1.924-3.782,2.972-8.159,7.154-2.887,23.072-2.887,23.072s16.867,9.285,27.934,5.437a60.083,60.083,0,0,0,28.416-20.824C79.96,44.433,64.611,49.984,64.611,49.984Z" transform="translate(-56.53 -41.095)" fill="#004d40"/>
              </g>
              <g id="Groupe_17741" data-name="Groupe 17741" transform="translate(95.716 95.34)">
                <path id="Tracé_49074" data-name="Tracé 49074" d="M79.323,48.12c27.642,8.567,50.014,36.921,54,61.02L47.911,61.032S65.3,43.775,79.323,48.12Z" transform="translate(-47.296 -47.418)" fill="#1a9687"/>
                <path id="Tracé_49075" data-name="Tracé 49075" d="M57.424,90.113c22.615,19.738,56.3,22.957,75.971,12.184L47.98,54.189S45.956,80.1,57.424,90.113Z" transform="translate(-47.365 -40.575)" fill="#26a69a"/>
                <g id="Groupe_17734" data-name="Groupe 17734" transform="translate(17.341 20.215)">
                  <path id="Tracé_49076" data-name="Tracé 49076" d="M66.362,90.432c-3.78-9.693-7-19.567-10.085-29.494a1,1,0,0,1,.861-1.293c5.2-.509,10.4-1.009,15.614-1.359,4.6-.3,11.121-.75,15.673-.814-4.445.836-10.964,1.745-15.516,2.356-5.179.71-10.373,1.267-15.568,1.816l.859-1.293C61.2,70.3,64.064,80.285,66.362,90.432Z" transform="translate(-56.23 -57.472)" fill="#8e2671"/>
                </g>
                <g id="Groupe_17735" data-name="Groupe 17735" transform="translate(37.461 30.815)">
                  <path id="Tracé_49077" data-name="Tracé 49077" d="M72.237,89.469c-2.425-7.23-4.285-14.633-5.976-22.065a.924.924,0,0,1,.69-1.11c7.447-1.45,14.923-2.761,22.5-3.551-7.291,2.18-14.684,3.842-22.1,5.366l.724-1.118c1.693,7.429,3.219,14.909,4.164,22.477Z" transform="translate(-66.237 -62.744)" fill="#8e2671"/>
                </g>
                <g id="Groupe_17736" data-name="Groupe 17736" transform="translate(57.597 45.457)">
                  <path id="Tracé_49078" data-name="Tracé 49078" d="M82.3,85.037a96.864,96.864,0,0,1-5.988-13.66.926.926,0,0,1,.83-1.247,84.713,84.713,0,0,1,13.041.322A84.7,84.7,0,0,1,77.23,71.986l.828-1.249a96.754,96.754,0,0,1,4.242,14.3Z" transform="translate(-76.251 -70.026)" fill="#8e2671"/>
                </g>
                <g id="Groupe_17737" data-name="Groupe 17737" transform="translate(8.667 15.779)">
                  <path id="Tracé_49079" data-name="Tracé 49079" d="M62.046,88.226c-3.78-9.693-7-19.567-10.083-29.494a1,1,0,0,1,.859-1.293c5.2-.509,10.4-1.009,15.614-1.359,4.6-.3,11.121-.75,15.673-.814-4.445.836-10.964,1.743-15.516,2.356-5.179.71-10.373,1.267-15.568,1.816l.859-1.293c3.006,9.949,5.865,19.933,8.163,30.081Z" transform="translate(-51.915 -55.266)" fill="#00897b"/>
                </g>
                <g id="Groupe_17738" data-name="Groupe 17738" transform="translate(28.674 25.822)">
                  <path id="Tracé_49080" data-name="Tracé 49080" d="M67.866,86.986c-2.425-7.23-4.285-14.633-5.976-22.063a.927.927,0,0,1,.692-1.112c7.447-1.45,14.921-2.759,22.5-3.551-7.291,2.182-14.684,3.844-22.1,5.366l.722-1.116c1.693,7.429,3.219,14.907,4.164,22.475Z" transform="translate(-61.866 -60.261)" fill="#00897b"/>
                </g>
                <g id="Groupe_17739" data-name="Groupe 17739" transform="translate(48.602 40.573)">
                  <path id="Tracé_49081" data-name="Tracé 49081" d="M77.827,82.608A96.845,96.845,0,0,1,71.839,68.95a.926.926,0,0,1,.828-1.249,84.742,84.742,0,0,1,13.043.322,84.761,84.761,0,0,1-12.956,1.534l.83-1.247a96.9,96.9,0,0,1,4.242,14.3Z" transform="translate(-71.777 -67.597)" fill="#00897b"/>
                </g>
                <g id="Groupe_17740" data-name="Groupe 17740" transform="translate(0 13.25)">
                  <path id="Tracé_49082" data-name="Tracé 49082" d="M47.605,54.008c23.3,11.028,54.842,30.682,77.54,43.584.1.054.012.225-.092.165-22.7-12.824-56.694-29.4-77.447-43.749Z" transform="translate(-47.605 -54.008)" fill="#00897b"/>
                </g>
              </g>
              <g id="Groupe_17742" data-name="Groupe 17742" transform="translate(96.193 95.233)" opacity="0.4">
                <path id="Tracé_49083" data-name="Tracé 49083" d="M72.4,47.365c-11.3,0-24.419,13.72-24.419,13.72S45.956,87,57.424,97.009a74.712,74.712,0,0,0,6.782,5.22,90.192,90.192,0,0,0,9.337,5.364c1.878-13.4,2.083-19.873-4.373-34.4C70.785,68.35,74.014,60.279,72.4,47.365Z" transform="translate(-47.842 -47.365)" fill="#004d40"/>
              </g>
              <g id="Groupe_17751" data-name="Groupe 17751" transform="translate(61.946 19.37)">
                <path id="Tracé_49084" data-name="Tracé 49084" d="M46.574,91.171C30.332,64.554,26.942,28.723,35.013,9.634l40.335,96.679S54.81,104.668,46.574,91.171Z" transform="translate(-30.809 -9.634)" fill="#1a9687"/>
                <path id="Tracé_49085" data-name="Tracé 49085" d="M82.715,75.21C75.226,44.943,52.146,17.327,32.9,9.634l40.335,96.679S86.515,90.56,82.715,75.21Z" transform="translate(-28.696 -9.634)" fill="#26a69a"/>
                <g id="Groupe_17743" data-name="Groupe 17743" transform="translate(4.988 41.155)">
                  <path id="Tracé_49086" data-name="Tracé 49086" d="M69.907,30.1c-2.562,8.559-5.632,16.931-8.849,25.255a.97.97,0,0,1-1.422.47c-4.474-2.809-8.933-5.642-13.32-8.589-3.858-2.606-9.349-6.293-13.027-9.06,9.2,4.868,18.564,10.487,27.379,16l-1.422.47c3.291-8.3,6.726-16.525,10.66-24.548Z" transform="translate(-33.29 -30.103)" fill="#8e2671"/>
                </g>
                <g id="Groupe_17744" data-name="Groupe 17744" transform="translate(12.831 63.262)">
                  <path id="Tracé_49087" data-name="Tracé 49087" d="M73.806,41.1c-2.562,8.559-5.632,16.931-8.849,25.255a.97.97,0,0,1-1.422.47c-4.474-2.809-8.933-5.642-13.32-8.591-3.858-2.6-9.349-6.293-13.025-9.058,9.2,4.868,18.562,10.487,27.377,16l-1.419.47C66.44,57.35,69.872,49.12,73.806,41.1Z" transform="translate(-37.191 -41.098)" fill="#8e2671"/>
                </g>
                <g id="Groupe_17745" data-name="Groupe 17745" transform="translate(2.891 25.67)">
                  <path id="Tracé_49088" data-name="Tracé 49088" d="M62.376,22.4C59.76,29.563,56.6,36.51,53.282,43.372a.925.925,0,0,1-1.233.436c-6.726-3.511-13.385-7.152-19.8-11.259,7.059,2.843,13.873,6.155,20.625,9.593l-1.263.422C54.921,35.7,58.393,28.9,62.376,22.4Z" transform="translate(-32.247 -22.401)" fill="#8e2671"/>
                </g>
                <g id="Groupe_17746" data-name="Groupe 17746" transform="translate(3.81 10.789)">
                  <path id="Tracé_49089" data-name="Tracé 49089" d="M47.965,15a96.873,96.873,0,0,1-3.846,14.422.926.926,0,0,1-1.422.446A84.562,84.562,0,0,1,32.7,21.48a84.913,84.913,0,0,1,11.083,6.882l-1.428.458A96.881,96.881,0,0,1,47.965,15Z" transform="translate(-32.704 -15)" fill="#8e2671"/>
                </g>
                <g id="Groupe_17747" data-name="Groupe 17747" transform="translate(9.246 46.892)">
                  <path id="Tracé_49090" data-name="Tracé 49090" d="M73.089,32.956C70.1,42.921,66.555,52.684,62.869,62.4a1,1,0,0,1-1.472.491c-4.411-2.8-8.817-5.61-13.141-8.547-3.806-2.594-9.223-6.257-12.848-9.01,4.017,2.079,9.711,5.378,13.674,7.7,4.518,2.63,8.953,5.392,13.385,8.159L61,61.684c3.758-9.691,7.654-19.318,12.094-28.728Z" transform="translate(-35.408 -32.956)" fill="#00897b"/>
                </g>
                <g id="Groupe_17748" data-name="Groupe 17748" transform="translate(6.741 34.112)">
                  <path id="Tracé_49091" data-name="Tracé 49091" d="M64.185,26.6c-2.541,7.19-5.636,14.169-8.879,21.063a.925.925,0,0,1-1.228.45C47.315,44.669,40.62,41.1,34.162,37.053c7.085,2.771,13.936,6.016,20.719,9.384l-1.259.434C56.866,39.977,60.27,33.145,64.185,26.6Z" transform="translate(-34.162 -26.6)" fill="#00897b"/>
                </g>
                <g id="Groupe_17749" data-name="Groupe 17749" transform="translate(7.702 19.417)">
                  <path id="Tracé_49092" data-name="Tracé 49092" d="M49.834,19.291a97.1,97.1,0,0,1-3.7,14.462.926.926,0,0,1-1.417.46A84.589,84.589,0,0,1,34.64,25.928,84.584,84.584,0,0,1,45.791,32.7l-1.422.472a96.8,96.8,0,0,1,5.465-13.879Z" transform="translate(-34.64 -19.291)" fill="#00897b"/>
                </g>
                <g id="Groupe_17750" data-name="Groupe 17750" transform="translate(5.624 4.208)">
                  <path id="Tracé_49093" data-name="Tracé 49093" d="M67.861,93.948C56.3,70.912,43.552,36,33.614,11.854c-.046-.1.131-.185.173-.072,9.987,24.081,26.56,58.079,34.074,82.166Z" transform="translate(-33.606 -11.727)" fill="#00897b"/>
                </g>
              </g>
              <g id="Groupe_17752" data-name="Groupe 17752" transform="translate(76.806 95.34)" opacity="0.27">
                <path id="Tracé_49094" data-name="Tracé 49094" d="M66.431,62.017C54.341,52.024,48.257,49.352,38.2,51.449c.3.513.6,1.029.9,1.536,8.236,13.5,28.774,15.142,28.774,15.142s7.9-9.378,9.766-20.709A112.529,112.529,0,0,1,66.431,62.017Z" transform="translate(-38.2 -47.418)" fill="#004d40"/>
              </g>
              <g id="Groupe_17761" data-name="Groupe 17761" transform="translate(34.436 100.601)">
                <path id="Tracé_49095" data-name="Tracé 49095" d="M79.235,81.061c-19.447,10.471-46.852,7.49-62.108-3.225L89,57.052S89.1,75.753,79.235,81.061Z" transform="translate(-17.127 -42.943)" fill="#1a9687"/>
                <path id="Tracé_49096" data-name="Tracé 49096" d="M64.391,50.073C41.548,51.833,21.784,68.452,17.127,84.927L89,64.144S75.976,49.183,64.391,50.073Z" transform="translate(-17.127 -50.035)" fill="#26a69a"/>
                <g id="Groupe_17753" data-name="Groupe 17753" transform="translate(31.319 8.352)">
                  <path id="Tracé_49097" data-name="Tracé 49097" d="M32.7,54.189C39.514,57.6,46.1,61.413,52.615,65.338a.813.813,0,0,1,.277,1.118c-3.5,5.851-7.118,11.617-11.155,17.122,2.921-6.171,6.271-12.1,9.75-17.959l.277,1.118C45.28,62.754,38.871,58.665,32.7,54.189Z" transform="translate(-32.704 -54.189)" fill="#8e2671"/>
                </g>
                <g id="Groupe_17754" data-name="Groupe 17754" transform="translate(45.464 2.348)">
                  <path id="Tracé_49098" data-name="Tracé 49098" d="M39.739,51.2c7.4,4.005,14.553,8.4,21.644,12.908a.816.816,0,0,1,.3,1.046C58.43,71.864,55.054,78.5,51.238,84.913c2.644-6.979,5.738-13.751,8.967-20.468l.3,1.044C53.445,60.924,46.467,56.254,39.739,51.2Z" transform="translate(-39.739 -51.203)" fill="#8e2671"/>
                </g>
                <g id="Groupe_17755" data-name="Groupe 17755" transform="translate(19.308 14.322)">
                  <path id="Tracé_49099" data-name="Tracé 49099" d="M26.73,57.158c5.684,3,11.115,6.406,16.469,9.943a.784.784,0,0,1,.251,1.035,162.586,162.586,0,0,1-8.7,13.924,163.153,163.153,0,0,1,7.337-14.69l.251,1.035c-5.354-3.537-10.616-7.2-15.606-11.247Z" transform="translate(-26.73 -57.158)" fill="#8e2671"/>
                </g>
                <g id="Groupe_17756" data-name="Groupe 17756" transform="translate(8.004 25.599)">
                  <path id="Tracé_49100" data-name="Tracé 49100" d="M21.108,62.767a47.849,47.849,0,0,1,8.913,3.509.778.778,0,0,1,.364,1.037,64.192,64.192,0,0,1-8.262,7.6,71.286,71.286,0,0,1,6.987-8.471l.221,1.241a47.72,47.72,0,0,1-8.223-4.912Z" transform="translate(-21.108 -62.767)" fill="#8e2671"/>
                </g>
                <g id="Groupe_17757" data-name="Groupe 17757" transform="translate(33.825 3.854)">
                  <path id="Tracé_49101" data-name="Tracé 49101" d="M33.95,51.952c8.611,4.031,16.968,8.537,25.241,13.206a.849.849,0,0,1,.318,1.178c-4.25,7.126-8.628,14.169-13.371,20.985,3.671-7.449,7.719-14.686,11.9-21.851l.318,1.178c-8.29-4.641-16.483-9.438-24.4-14.7Z" transform="translate(-33.95 -51.952)" fill="#00897b"/>
                </g>
                <g id="Groupe_17758" data-name="Groupe 17758" transform="translate(23.661 11.187)">
                  <path id="Tracé_49102" data-name="Tracé 49102" d="M28.9,55.6c6.251,3.3,12.245,7,18.162,10.847a.8.8,0,0,1,.294,1c-2.543,5.575-5.2,11.091-8.254,16.419,1.958-5.819,4.315-11.471,6.8-17.074l.294,1C40.269,63.941,34.444,59.972,28.9,55.6Z" transform="translate(-28.895 -55.599)" fill="#00897b"/>
                </g>
                <g id="Groupe_17759" data-name="Groupe 17759" transform="translate(12.08 21.572)">
                  <path id="Tracé_49103" data-name="Tracé 49103" d="M23.135,60.764a92.388,92.388,0,0,1,12.4,5.316.794.794,0,0,1,.3,1.164,61.406,61.406,0,0,1-6.42,8.006,61.237,61.237,0,0,1,5.1-8.907l.3,1.164a92.506,92.506,0,0,1-11.688-6.744Z" transform="translate(-23.135 -60.764)" fill="#00897b"/>
                </g>
                <g id="Groupe_17760" data-name="Groupe 17760" transform="translate(0.232 15.558)">
                  <path id="Tracé_49104" data-name="Tracé 49104" d="M84.165,57.773C65.283,64.858,36.986,71.562,17.342,77.145a.081.081,0,0,1-.044-.155C36.881,71.361,64.787,61.3,84.165,57.773Z" transform="translate(-17.243 -57.773)" fill="#00897b"/>
                </g>
              </g>
              <g id="Groupe_17762" data-name="Groupe 17762" transform="translate(102.769 111.212)">
                <path id="Tracé_49105" data-name="Tracé 49105" d="M51.113,75.784C54.7,68.391,54.656,58.81,54.656,58.81s-1.3-1.49-3.434-3.5C51.539,59.774,52.028,69.169,51.113,75.784Z" transform="translate(-51.113 -55.312)" fill="#004d40" opacity="0.27"/>
              </g>
              <path id="Tracé_49106" data-name="Tracé 49106" d="M66.556,47.258A88.784,88.784,0,0,1,53.5,64.925a.785.785,0,0,0-.231.591c.107,2.182.549,14.629-2.4,26.42a.817.817,0,0,0,1.44.706C57.46,85.782,68.57,68.5,68.1,47.658A.826.826,0,0,0,66.556,47.258Z" transform="translate(51.385 47.342)" fill="#26a69a"/>
              <g id="Groupe_17763" data-name="Groupe 17763" transform="translate(104.639 112.758)">
                <path id="Tracé_49107" data-name="Tracé 49107" d="M62.263,63.042a21.843,21.843,0,0,1-4.823-3.808,17.957,17.957,0,0,0-5.4-2.954l.036-.2a14.364,14.364,0,0,1,8.967,3.756,5.887,5.887,0,0,1,1.391,3.1l-.175.1Z" transform="translate(-52.043 -56.081)" fill="#4db6ac"/>
              </g>
              <g id="Groupe_17764" data-name="Groupe 17764" transform="translate(107.494 105.763)">
                <path id="Tracé_49108" data-name="Tracé 49108" d="M53.463,72.187a19.09,19.09,0,0,0,4.761-8.093c.3-2.306.969-5.935,1.46-8.579a15.144,15.144,0,0,0,.35-2.913c.883,1.842.756,3.983.76,5.972a42.362,42.362,0,0,1-.659,6.024c-1.039,3.3-3.386,6.39-6.671,7.59Z" transform="translate(-53.463 -52.602)" fill="#4db6ac"/>
              </g>
            </g>
          </g>
        </g>
      </g>
    </g>
    <g id="airpod" transform="translate(313.335 224.605)">
      <g id="Groupe_22251" data-name="Groupe 22251" transform="translate(-39.58 -31.533)">
        <g id="Groupe_22246" data-name="Groupe 22246" transform="translate(0 0)">
          <g id="Groupe_22243" data-name="Groupe 22243" opacity="0.1" style="mix-blend-mode: multiply;isolation: isolate">
            <path id="Tracé_83851" data-name="Tracé 83851" d="M59.707,18.357a20.62,20.62,0,0,0-1.973,1.61c-1.039,1.077-2,2.228-2.983,3.359q-4.092,4.72-8.173,9.449c-.746.863-1.495,1.722-2.236,2.589a2.026,2.026,0,0,1-3.04.237c-.721-.622-1.439-1.246-2.161-1.867a2.026,2.026,0,0,1-.225-2.9q2.979-3.458,5.97-6.907c2.727-3.16,5.435-6.336,8.183-9.478a42.471,42.471,0,0,1,8.323-7.473A17.743,17.743,0,0,1,67.21,4.288a8.5,8.5,0,0,1,6.772.989,10.846,10.846,0,0,1,4.171,5.073,12.884,12.884,0,0,1,.977,5.913,1.472,1.472,0,0,1-.376.917c-1.794,2.061-3.575,4.133-5.372,6.192a1.148,1.148,0,0,1-.554.358A11.984,11.984,0,0,1,61.65,21.162,7.747,7.747,0,0,1,59.707,18.357Z" fill="#1e1358"/>
            <path id="Tracé_83852" data-name="Tracé 83852" d="M69.482,9.41a1.7,1.7,0,0,1-.557.23,9.33,9.33,0,0,0-2.668.676.952.952,0,0,1-1.07-.216.89.89,0,0,1-.238-1.035,1.2,1.2,0,0,1,.519-.585,9,9,0,0,1,3.26-.835.961.961,0,0,1,.978.582A1.059,1.059,0,0,1,69.482,9.41Z" fill="#1e1358"/>
            <path id="Tracé_83853" data-name="Tracé 83853" d="M71.589,17.756a1.012,1.012,0,1,1,1.422-.105A1.024,1.024,0,0,1,71.589,17.756Z" fill="#1e1358"/>
          </g>
          <g id="Groupe_22245" data-name="Groupe 22245">
            <g id="Groupe_22244" data-name="Groupe 22244">
              <path id="Tracé_83854" data-name="Tracé 83854" d="M56.707,14.357a20.619,20.619,0,0,0-1.973,1.61c-1.039,1.077-2,2.228-2.983,3.359q-4.092,4.72-8.173,9.449c-.746.863-1.495,1.722-2.236,2.589a2.026,2.026,0,0,1-3.04.237c-.721-.622-1.439-1.246-2.161-1.867a2.026,2.026,0,0,1-.225-2.9q2.979-3.458,5.97-6.907c2.727-3.16,5.435-6.336,8.183-9.478a42.471,42.471,0,0,1,8.323-7.473A17.743,17.743,0,0,1,64.21.288a8.5,8.5,0,0,1,6.772.989A10.846,10.846,0,0,1,75.153,6.35a12.884,12.884,0,0,1,.977,5.913,1.472,1.472,0,0,1-.376.917c-1.794,2.061-3.575,4.133-5.372,6.192a1.148,1.148,0,0,1-.554.358A11.984,11.984,0,0,1,58.65,17.162,7.747,7.747,0,0,1,56.707,14.357Z" fill="#fafcff"/>
              <path id="Tracé_83855" data-name="Tracé 83855" d="M66.482,5.41a1.7,1.7,0,0,1-.557.23,9.33,9.33,0,0,0-2.668.676.952.952,0,0,1-1.07-.216.89.89,0,0,1-.238-1.035,1.2,1.2,0,0,1,.519-.585,9,9,0,0,1,3.26-.835.961.961,0,0,1,.978.582A1.059,1.059,0,0,1,66.482,5.41Z" fill="#becbe4"/>
              <path id="Tracé_83856" data-name="Tracé 83856" d="M68.589,13.756a1.012,1.012,0,1,1,1.422-.1A1.024,1.024,0,0,1,68.589,13.756Z" fill="#becbe4"/>
            </g>
          </g>
        </g>
        <g id="Groupe_22250" data-name="Groupe 22250" transform="translate(0 0)">
          <g id="Groupe_22247" data-name="Groupe 22247" opacity="0.1" style="mix-blend-mode: multiply;isolation: isolate">
            <path id="Tracé_83857" data-name="Tracé 83857" d="M16.647,38.086a22.513,22.513,0,0,1-2.383.645,10.135,10.135,0,0,1-5.76-.862,12.823,12.823,0,0,1-5.2-4.231,1.514,1.514,0,0,1-.3-.946q.01-4.041,0-8.083a1.282,1.282,0,0,1,.249-.82,12.189,12.189,0,0,1,9.426-5.128,8.371,8.371,0,0,1,7.286,3.5,16.836,16.836,0,0,1,2.734,5.7,39.587,39.587,0,0,1,1.365,7.777c.245,2.747.142,5.5.148,8.248q.01,6.246,0,12.493c0,1.545.005,3.09,0,4.635a2.022,2.022,0,0,1-2.063,2.056c-.961,0-1.922,0-2.883,0a2.028,2.028,0,0,1-2.125-2.105q0-2.161,0-4.324,0-6.8,0-13.6c0-.988-.012-1.979-.1-2.962A18.277,18.277,0,0,0,16.647,38.086Z" fill="#1e1358"/>
            <path id="Tracé_83858" data-name="Tracé 83858" d="M15.063,24.724a1.128,1.128,0,0,1,.669-.957,1,1,0,0,1,1.14.249,9.792,9.792,0,0,1,1.752,2.449,3.051,3.051,0,0,1,.16.331,1.012,1.012,0,0,1-.516,1.263.98.98,0,0,1-1.281-.387,10.227,10.227,0,0,0-1.646-2.352A2.045,2.045,0,0,1,15.063,24.724Z" fill="#1e1358"/>
            <path id="Tracé_83859" data-name="Tracé 83859" d="M8.058,29.754a1.012,1.012,0,1,1,1.009-1.006A1.023,1.023,0,0,1,8.058,29.754Z" fill="#1e1358"/>
          </g>
          <g id="Groupe_22249" data-name="Groupe 22249">
            <g id="Groupe_22248" data-name="Groupe 22248">
              <path id="Tracé_83860" data-name="Tracé 83860" d="M13.647,34.086a22.513,22.513,0,0,1-2.383.645,10.135,10.135,0,0,1-5.76-.862A12.823,12.823,0,0,1,.3,29.638a1.514,1.514,0,0,1-.3-.946q.011-4.041,0-8.083a1.282,1.282,0,0,1,.249-.82,12.189,12.189,0,0,1,9.426-5.128,8.371,8.371,0,0,1,7.286,3.5,16.836,16.836,0,0,1,2.734,5.7,39.587,39.587,0,0,1,1.365,7.777c.245,2.747.142,5.5.148,8.248q.01,6.246,0,12.493c0,1.545.005,3.09,0,4.635a2.022,2.022,0,0,1-2.063,2.056c-.961,0-1.922,0-2.883,0a2.028,2.028,0,0,1-2.125-2.105q0-2.161,0-4.324,0-6.8,0-13.6c0-.988-.012-1.979-.1-2.962A18.277,18.277,0,0,0,13.647,34.086Z" fill="#fafcff"/>
              <path id="Tracé_83861" data-name="Tracé 83861" d="M12.063,20.724a1.128,1.128,0,0,1,.669-.957,1,1,0,0,1,1.14.249,9.792,9.792,0,0,1,1.752,2.449,3.051,3.051,0,0,1,.16.331,1.012,1.012,0,0,1-.516,1.263.98.98,0,0,1-1.281-.387,10.227,10.227,0,0,0-1.646-2.352A2.045,2.045,0,0,1,12.063,20.724Z" fill="#becbe4"/>
              <path id="Tracé_83862" data-name="Tracé 83862" d="M5.058,25.754a1.012,1.012,0,1,1,1.009-1.006A1.023,1.023,0,0,1,5.058,25.754Z" fill="#becbe4"/>
            </g>
          </g>
        </g>
        <path id="Tracé_83863" data-name="Tracé 83863" d="M21.212,57.008a2.022,2.022,0,0,1-2.063,2.056c-.961,0-1.922,0-2.883,0a2.028,2.028,0,0,1-2.125-2.105Z" transform="translate(0 0)" fill="#acbbd7"/>
        <path id="Tracé_83864" data-name="Tracé 83864" d="M41.241,31.492a2.021,2.021,0,0,1-2.907.181c-.724-.632-1.442-1.271-2.165-1.9a2.027,2.027,0,0,1-.2-2.984Z" transform="translate(0 0)" fill="#acbbd7"/>
      </g>
    </g>
  </g>
</svg>
