<svg xmlns="http://www.w3.org/2000/svg" xmlns:xlink="http://www.w3.org/1999/xlink" width="383.163" height="333.026" viewBox="0 0 383.163 333.026">
  <defs>
    <clipPath id="clip-path">
      <rect id="Rectangle_9427" data-name="Rectangle 9427" width="134.243" height="89.66" rx="4.376" fill="none"/>
    </clipPath>
    <clipPath id="clip-path-4">
      <rect id="Rectangle_9429" data-name="Rectangle 9429" width="102.909" height="102.909" fill="none"/>
    </clipPath>
  </defs>
  <g id="Groupe_23578" data-name="Groupe 23578" transform="translate(-1027 9.508)">
    <g id="Groupe_25704" data-name="Groupe 25704" transform="translate(1336.946 139.963) rotate(131)">
      <path id="Tracé_3274" data-name="Tracé 3274" d="M39.842,2.24C83.554,18.183,68.561,34.918,56.155,43.1S5.369,70.976.723,41.834C-3.975,12.746,14.819-6.84,39.842,2.24Z" transform="translate(228.095 95.154)" fill="#c6edc8"/>
      <path id="Tracé_28744" data-name="Tracé 28744" d="M35.823,123.072C-40.514,17.382,22.467.435,65.123.013,107.779-.462,230.574,11.733,193.355,88.7S79.482,183.466,35.823,123.072Z" transform="translate(-78.632 -21.864)" fill="#ffebdf"/>
    </g>
    <rect id="Rectangle_1075" data-name="Rectangle 1075" width="300.5" height="205.865" rx="8" transform="matrix(0.985, 0.174, -0.174, 0.985, 1114.228, 68.599)" fill="rgba(19,29,53,0.1)"/>
    <g id="Réunion_Zoom_4pers" data-name="Réunion Zoom 4pers" transform="matrix(0.985, 0.174, -0.174, 0.985, 1240.382, 187.414)">
      <g id="Groupe_23577" data-name="Groupe 23577" transform="translate(-151.574 -106.425)">
        <g id="Groupe_23547" data-name="Groupe 23547" transform="translate(4.905 4.871)">
          <path id="Tracé_86758" data-name="Tracé 86758" d="M293.5,5.885l-282.513,0a5.043,5.043,0,0,0-5.07,4.988V203.143a5.039,5.039,0,0,0,5.062,4.971l282.518.009a5.042,5.042,0,0,0,5.065-4.988l.007-192.261A5.047,5.047,0,0,0,293.5,5.885" transform="translate(-5.921 -5.88)" fill="#ebf0fa"/>
        </g>
        <g id="Groupe_23548" data-name="Groupe 23548">
          <path id="Tracé_86759" data-name="Tracé 86759" d="M297.9,0,5.253,0A5.265,5.265,0,0,0,0,5.249V207.607a5.26,5.26,0,0,0,5.243,5.232l292.652.01a5.265,5.265,0,0,0,5.246-5.249l.007-202.344A5.269,5.269,0,0,0,297.9,0M293.63,203.4,9.162,203.389,9.179,9.3l284.469.007Z" fill="#131d35"/>
        </g>
        <g id="Groupe_23573" data-name="Groupe 23573" transform="translate(13.616 13.922)">
          <rect id="Rectangle_9423" data-name="Rectangle 9423" width="134.243" height="89.66" rx="4.376" transform="translate(141.045)" fill="#d2dcef"/>
          <rect id="Rectangle_9424" data-name="Rectangle 9424" width="134.243" height="89.66" rx="4.376" transform="translate(0 94.573)" fill="#d2dcef"/>
          <rect id="Rectangle_9425" data-name="Rectangle 9425" width="134.243" height="89.66" rx="4.376" transform="translate(0.075 0.122)" fill="#96a6c5"/>
          <rect id="Rectangle_9426" data-name="Rectangle 9426" width="134.243" height="89.66" rx="4.376" transform="translate(141.08 95.4)" fill="#96a6c5"/>
          <g id="Groupe_23551" data-name="Groupe 23551" transform="translate(141.045)">
            <g id="Groupe_23550" data-name="Groupe 23550" clip-path="url(#clip-path)">
              <g id="Groupe_16520" data-name="Groupe 16520" transform="translate(13.145 -8.06)">
                <g id="Groupe_23549" data-name="Groupe 23549">
                  <g id="Groupe_16519" data-name="Groupe 16519">
                    <path id="Tracé_37806" data-name="Tracé 37806" d="M252.657,11.794s-.046-6.608,7.926-4.181a151.335,151.335,0,0,1,18.358,7.266c22.018,10,12.251,59.276,9.232,69.946-5.068,17.935-16.034,19.546-29.486,16s-32.5-8.011-32.5-8.011-21.584,3.154.669-45.387c2.022-4.4,3.425-26.18,8.622-32.389,5.51-6.581,12.838-7.212,17.178-3.249" transform="translate(-205.017 -7.077)" fill="#04172b"/>
                    <path id="Tracé_37807" data-name="Tracé 37807" d="M240.416,100.2l-7.15-.437s-2.308.04-5.446.388c-5.87.653-14.643,2.391-16.7,6.961-.508,1.125-10.221,16.326-8.285,17.791,10.116,7.67,59.738,10.1,76.013,5.687,0,0,2.175-18.291-11.8-24.424a71.132,71.132,0,0,0-26.628-5.965" transform="translate(-202.577 -22.986)" fill="#8e7fe3"/>
                    <path id="Tracé_37808" data-name="Tracé 37808" d="M269.652,81.337l-11.547-6.8s-1.678,8.253-2.894,13.954A45.066,45.066,0,0,0,267.389,95.2Z" transform="translate(-211.611 -18.656)" fill="#ce784a"/>
                    <path id="Tracé_37809" data-name="Tracé 37809" d="M264.507,99.376l.209-1.282a45.087,45.087,0,0,1-12.181-6.712c-.584,2.712-1.055,4.848-1.182,5.242-.417,1.225-11.73,1.7-11.73,1.7.021,10.788,11.615,19.522,21,18.962S273.4,104.724,273.4,104.724Z" transform="translate(-208.936 -21.548)" fill="#d1936e"/>
                    <path id="Tracé_37810" data-name="Tracé 37810" d="M258.767,24.341s-.741,10.358,2.917,13.251c17.324,13.717,28.23,9.328,28.23,9.328a35.057,35.057,0,0,1-1.66,8.885c-2.285,6.912-9.276,24.956-16.018,27.087-7.2,2.27-18.713-4.606-24.363-12.814s-3.077-12.96-2.637-15.345a4.384,4.384,0,0,1-4.383,1.056c-2.578-.852-4.1-3.964-3.879-7.186s2.379-6.117,4.694-5.017,3.791,5.281,3.791,5.281,5.616-2.792,9.44-11.689c3.644-8.483,3.868-12.837,3.868-12.837" transform="translate(-208.478 -10.041)" fill="#d1936e"/>
                    <path id="Tracé_37811" data-name="Tracé 37811" d="M259.333,51.235a6.16,6.16,0,0,0,.226,4.112c.635,1.3,2.03,2.445,4.927,2.652.13.012.264.019.4.024,3.761.151,5.393.143,5.393.143l-.769-3.074-2.971-2.933Z" transform="translate(-212.276 -14.657)" fill="#f0f2f5"/>
                    <path id="Tracé_37812" data-name="Tracé 37812" d="M270.147,58.065s.841-6.69-8.126-8.443c-3.317-.649-4.547,2.245-2.945,3.809,0,0,.195-1.957,4.834-1.474,5.2.541,6.237,6.111,6.237,6.111" transform="translate(-212.155 -14.364)" fill="#1b1b1a"/>
                    <path id="Tracé_37813" data-name="Tracé 37813" d="M259.8,55.017c-.051.2-.107.4-.137.6.635,1.3,2.03,2.445,4.927,2.651a3.986,3.986,0,0,0,1.024-1.8,2.691,2.691,0,0,0-1.7-3.411,2.722,2.722,0,0,0-.457-.11,2.8,2.8,0,0,0-3.562,1.725,2.773,2.773,0,0,0-.1.348" transform="translate(-212.375 -14.924)" fill="#1b1b1a"/>
                    <path id="Tracé_37814" data-name="Tracé 37814" d="M261.726,54.28a.872.872,0,0,0,.567,1.1l.015,0a.909.909,0,0,0,1.061-.7.872.872,0,0,0-.572-1.1l-.009,0a.911.911,0,0,0-1.062.7" transform="translate(-212.723 -15.058)" fill="#f0f2f5"/>
                    <path id="Tracé_37815" data-name="Tracé 37815" d="M284.46,61.069a1.475,1.475,0,0,0,.75.519,10.028,10.028,0,0,0,4.425.15,9.085,9.085,0,0,0,2.04-.534,8.623,8.623,0,0,0,2.633-1.62c.461-2.924-3.881-3.788-5.826-3.427a3.519,3.519,0,0,0-1.305.736,11.507,11.507,0,0,0-1.922,1.986h0c-.67.889-1.076,1.757-.8,2.192" transform="translate(-216.617 -15.488)" fill="#f0f2f5"/>
                    <path id="Tracé_37816" data-name="Tracé 37816" d="M285.373,58.993h0a3.27,3.27,0,0,0-.046,2.712,10.044,10.044,0,0,0,4.426.15,3.951,3.951,0,0,0,.711-1.1,2.747,2.747,0,0,0-1.012-3.761c-.074-.042-.15-.082-.227-.117a2.624,2.624,0,0,0-1.931.132,3.848,3.848,0,0,0-1.92,1.984" transform="translate(-216.734 -15.604)" fill="#1b1b1a"/>
                    <path id="Tracé_37817" data-name="Tracé 37817" d="M284.254,60.452a9.344,9.344,0,0,1,2.592-3.77c1.9-1.544,5.26-1.108,6.631-.775,2.99.718,1.778,2.647.6,3.754,0,0,1.13-2.587-3.246-3.071s-6.579,3.862-6.579,3.862" transform="translate(-216.597 -15.403)" fill="#1b1b1a"/>
                    <path id="Tracé_37818" data-name="Tracé 37818" d="M289.056,58.2a1,1,0,0,1-1.184.6.826.826,0,0,1-.45-1.079.786.786,0,0,1,.033-.071,1,1,0,0,1,1.184-.6.826.826,0,0,1,.45,1.079.779.779,0,0,1-.033.071" transform="translate(-217.13 -15.649)" fill="#f0f2f5"/>
                    <path id="Tracé_37819" data-name="Tracé 37819" d="M278.781,78.768s.372,3.133-1.523,3.965-9.5-2.179-8.783-6.025l1.807,1.565Z" transform="translate(-213.88 -19.029)" fill="#b55d22"/>
                    <path id="Tracé_37820" data-name="Tracé 37820" d="M280.286,77.62c-.516,2.6-1.871,1.619-3.858,1.289-2.551-.423-6.638,1.252-7.946-2.295a4.694,4.694,0,0,0,4.708-.118c1.38-1.059,3.11.75,4.689,1.163s2.628-1.133,2.41-.04" transform="translate(-213.89 -18.937)" fill="#cb6927"/>
                    <path id="Tracé_37821" data-name="Tracé 37821" d="M284.637,49.763c.085-.188,9.546-2.315,11.942,1.248s-2.272-.436-5.837.125-7.576,1.854-6.1-1.373" transform="translate(-216.609 -14.267)" fill="#04172b"/>
                    <path id="Tracé_37822" data-name="Tracé 37822" d="M271.47,45.67c-.029-.231-9.091-4.975-12.683-1.58s2.479.079,5.971,1.594,7.214,3.966,6.7-.013" transform="translate(-212.037 -13.221)" fill="#04172b"/>
                    <path id="Tracé_37823" data-name="Tracé 37823" d="M241.028,56.056c.552,1.8,1.834,3.009,2.865,2.695s1.414-2.028.869-3.831-1.841-3.008-2.867-2.7-1.413,2.029-.869,3.832" transform="translate(-209.135 -14.818)" fill="#ce784a"/>
                    <path id="Tracé_37824" data-name="Tracé 37824" d="M301.314,81.146,278.895,93.715s-3.873,3.5-1.7,12.058c1.329,5.249.408,13.817-2.806,13.961s41.53,15.458,26.029-2.546c-4.064-4.721-3.631-14.216-2.971-18.1,2.577-15.216,3.873-17.941,3.873-17.941" transform="translate(-214.874 -19.791)" fill="#04172b"/>
                    <path id="Tracé_37825" data-name="Tracé 37825" d="M281.117,56.9a12.83,12.83,0,0,0,.819,7.285c.436,1.238,1.617,4.344.611,4.655a3.258,3.258,0,0,1-2.886-.205c-1.045-.536-1.262.146-.4.707a3.882,3.882,0,0,0,3.574.457,3.083,3.083,0,0,0,1.681-1.065c.46-.612-1.271-4.048-1.574-4.962a13.186,13.186,0,0,1-1.044-6.7c.429-2.162-.224-2.327-.779-.173" transform="translate(-215.648 -15.365)" fill="#ce784a"/>
                  </g>
                </g>
              </g>
            </g>
          </g>
          <g id="Groupe_23560" data-name="Groupe 23560" transform="translate(0 94.573)">
            <g id="Groupe_23559" data-name="Groupe 23559" clip-path="url(#clip-path)">
              <g id="Groupe_23558" data-name="Groupe 23558" transform="translate(13.925 -14.658)">
                <path id="Tracé_86760" data-name="Tracé 86760" d="M77.313,210.19c-.335-3-4.9,1.984-4.5-1.735-1.173.067-5.344,1.752-6.967-1.024s-9.948-3.154-11.775-3.864-2.073-1.917-1.753-2.6c-5.759,1.343-6.008-8.542-12.431-6.127a1.553,1.553,0,0,1-1.619-2.255c.426-2.744-4.51-1.709-4.761-4.486-1-2.672,1.465-5.5,3.15-7.658-.274-3.592-5.88-4.1.167-7.714-6.189-2.683,4.472-5.158-.054-7.7-3.236-.081-2.32-2.367-2.3-4.656-3.178,1.072.67-5.9,2.314-6.281,1.739-.454,5.078-1.6,3.361-3.8-3.2-1.943-.233-2.871.678-4.81-1.981-1.455.965-6.738-2.262-6.736-.147-4.479,2.116-8.561,6.534-8.967,1.158-2,1.967-7.714,5.31-6.174,6.035,7.448,11.474-2.118,18.29-.458,2.525-.707,2.578-8.688,5.964-6.123.842,1.4,2.531.652,3.34-.45,7.844,2,7.037,1.6,14.652-3.285.356,4.7,5.38-.16,9.337,2.864,8.549-2.465,11.508,3.06,16.918.214-1.435,3.278,1.941,6.686,5.046,7.534-3.274,5.466,10.739,2.2,6.07,7.564-.687,1.135.308,2.966,1.59,3.721,5.08,1.21-.29,1.286,3.958,7.023,5.386,7.275-.777,14.12-2.173,15.778.9,2.262.836,5.533,1.793,8.015a4.138,4.138,0,0,1-.069,2.57c-.4,1.494,1.358,3.611,1.571,5.012.28,2.181-2.2,4.672-2.16,6.812a5.9,5.9,0,0,1-1.046,3.675,4.4,4.4,0,0,0-.546,3.646,4.634,4.634,0,0,1-1.73,4.372c-3,2.069-7.344,1.86-10.46,1.942-.505,4.471-8.328,6.578-8.443,5.753.345,2.367-5.654,5.135-7.528,3.764-1.2,3.6-7.539,2.394-6.424,3.894C99.943,209.571,85.769,211.36,77.313,210.19Z" transform="translate(-33.247 -113.282)" fill="#211715"/>
                <g id="Groupe_23552" data-name="Groupe 23552" transform="translate(26.328 57.096)">
                  <path id="Tracé_86761" data-name="Tracé 86761" d="M70.743,184.037s-2.73-2.641-4.59-1.575-1.81,14.449,3.253,12.668S70.743,184.037,70.743,184.037Z" transform="translate(-65.03 -182.209)" fill="#3a2824"/>
                  <path id="Tracé_86762" data-name="Tracé 86762" d="M70.743,184.037s-2.73-2.641-4.59-1.575-1.81,14.449,3.253,12.668S70.743,184.037,70.743,184.037Z" transform="translate(-65.03 -182.209)" fill="#211715" opacity="0.5"/>
                </g>
                <g id="Groupe_23553" data-name="Groupe 23553" transform="translate(70.335 56.119)">
                  <path id="Tracé_86763" data-name="Tracé 86763" d="M118.661,191.861s2.312,3.014,4.307,2.234,3.92-14.025-1.35-13.009S118.661,191.861,118.661,191.861Z" transform="translate(-118.156 -181.03)" fill="#3a2824"/>
                  <path id="Tracé_86764" data-name="Tracé 86764" d="M118.661,191.861s2.312,3.014,4.307,2.234,3.92-14.025-1.35-13.009S118.661,191.861,118.661,191.861Z" transform="translate(-118.156 -181.03)" fill="#211715" opacity="0.5"/>
                </g>
                <path id="Tracé_86765" data-name="Tracé 86765" d="M136.452,250.21,52.277,250.1l2.265-3.566a21.008,21.008,0,0,1,16.5-9.707l39.474-2.314a21.007,21.007,0,0,1,15.881,5.915Z" transform="translate(-36.514 -134.085)" fill="#85c684"/>
                <path id="Tracé_86766" data-name="Tracé 86766" d="M92.349,218.476l1.61,16.017s1.806,4.471,6.453,4.259,5.014-6.458,5.014-6.458l-3.135-14.951Z" transform="translate(-43.392 -131.144)" fill="#3a2824"/>
                <g id="Groupe_23554" data-name="Groupe 23554" transform="translate(48.957 86.2)">
                  <path id="Tracé_86767" data-name="Tracé 86767" d="M101.323,225.192a14.82,14.82,0,0,0,2.508-.5l-1.54-7.345-9.943,1.132.636,6.323c.333.043.667.088,1,.123A35.213,35.213,0,0,0,101.323,225.192Z" transform="translate(-92.349 -217.344)" fill="#211715" opacity="0.5"/>
                </g>
                <path id="Tracé_86768" data-name="Tracé 86768" d="M69.527,176.537s.09,14.032,3.356,19.76,9.481,11.98,20.672,11.032c10.094-.856,16.129-9.956,16.334-16.864s.276-21.315.276-21.315l2.759-20.278-24.12-.561-26.693,4.838,6.537,18.8Z" transform="translate(-38.202 -119.295)" fill="#402e2b"/>
                <path id="Tracé_86769" data-name="Tracé 86769" d="M101.157,181.972a5.862,5.862,0,0,1,5.636-4.846c4.987-.292,4.492,3.764,4.492,3.764s.18,3.59-4.331,3.671S101.157,181.972,101.157,181.972Z" transform="translate(-44.904 -124.238)" fill="#fff"/>
                <path id="Tracé_86770" data-name="Tracé 86770" d="M101.157,181.766s.627-3.881,5.614-4.174,4.515,3.092,4.515,3.092,1.44-5.118-4.825-4.751C101.534,176.221,101.157,181.766,101.157,181.766Z" transform="translate(-44.904 -124.032)" fill="#1d1d1b"/>
                <circle id="Ellipse_567" data-name="Ellipse 567" cx="2.566" cy="2.566" r="2.566" transform="translate(59.069 53.96)" fill="#1d1d1b"/>
                <circle id="Ellipse_568" data-name="Ellipse 568" cx="0.965" cy="0.965" r="0.965" transform="translate(61.208 54.81)" fill="#fff"/>
                <path id="Tracé_86771" data-name="Tracé 86771" d="M87.733,182.778a5.862,5.862,0,0,0-6.163-4.155c-4.987.292-4.022,4.264-4.022,4.264s.24,3.587,4.731,3.14S87.733,182.778,87.733,182.778Z" transform="translate(-40.838 -124.495)" fill="#fff"/>
                <path id="Tracé_86772" data-name="Tracé 86772" d="M87.684,182.568s-1.076-3.781-6.063-3.489-4.122,3.6-4.122,3.6-2.028-4.915,4.236-5.282C86.662,177.1,87.684,182.568,87.684,182.568Z" transform="translate(-40.789 -124.285)" fill="#1d1d1b"/>
                <circle id="Ellipse_569" data-name="Ellipse 569" cx="2.566" cy="2.566" r="2.566" transform="translate(38.749 55.151)" fill="#1d1d1b"/>
                <circle id="Ellipse_570" data-name="Ellipse 570" cx="0.965" cy="0.965" r="0.965" transform="translate(40.913 56)" fill="#fff"/>
                <path id="Tracé_86773" data-name="Tracé 86773" d="M91.2,196.35a43.418,43.418,0,0,0,4.961.082,27.187,27.187,0,0,0,4.886-.659A8.185,8.185,0,0,1,91.2,196.35Z" transform="translate(-43.194 -127.441)" fill="#211715"/>
                <path id="Tracé_86774" data-name="Tracé 86774" d="M103.854,203.115s-.889,1.486-7.391,1.959c-6.4.465-8.047-.9-8.047-.9s2.248,3.472,4.017,3.979,6.913.3,8.448-.587S103.854,203.115,103.854,203.115Z" transform="translate(-42.717 -128.701)" fill="#211715"/>
                <path id="Tracé_86775" data-name="Tracé 86775" d="M86.521,172.692a7.352,7.352,0,0,0-6.622-2.48,9.819,9.819,0,0,0-6.537,3.008s3.673-2.412,6.917-1.992,4.284,2.555,5.071,2.449S86.878,173.1,86.521,172.692Z" transform="translate(-40.133 -123.046)" fill="#211715"/>
                <path id="Tracé_86776" data-name="Tracé 86776" d="M99.842,171.482a7.355,7.355,0,0,1,6.6-2.528A9.818,9.818,0,0,1,113,171.913s-3.69-2.385-6.931-1.941-4.265,2.587-5.054,2.486S99.489,171.888,99.842,171.482Z" transform="translate(-44.662 -122.831)" fill="#211715"/>
                <path id="Tracé_86777" data-name="Tracé 86777" d="M96.1,202.941c2.415,0,7.749.3,7.749.3s-1.425,1.609-7.391,1.959c-7.091.416-8.047-.9-8.047-.9A29.811,29.811,0,0,1,96.1,202.941Z" transform="translate(-42.717 -128.671)" fill="#211715" opacity="0.5"/>
                <path id="Tracé_86778" data-name="Tracé 86778" d="M70.552,155.926l-.294,2.618c-.064.574.1,1.4.674,1.339l-.688,1.6a1.85,1.85,0,0,1,1.354.529,34.579,34.579,0,0,1,7.419-9.27,8.688,8.688,0,0,0-1.311,4.418l1.97-1.013c-.253.276.133.746.505.7a1.413,1.413,0,0,0,.861-.668l3.915-5.24c.912,1.057,2.659.712,3.829-.049s2.176-1.865,3.534-2.192c1.6-.386,3.229.417,4.684,1.194,3.138,1.677,6.483,3.565,7.975,6.8,1.752,3.794,2.745,9.938,2.712,14.863,0,.691,1.012-1.605,1.7-1.6a2.289,2.289,0,0,0,1.258-.517c5.079-3.535,7.465-9.962,7.8-16.141.207-3.856-.346-7.94-2.656-11.034-2.571-3.443-6.863-5.1-11.015-6.21a79.06,79.06,0,0,0-34.27-1.1c-6.231,1.125-12.59,3.048-17.223,7.364s-7.028,11.554-4.167,17.2c2.419,4.778,8.419,7.922,13.537,8.877,3.443.643,4.428,5.62,4.428,5.62-.879-4.586.586-12.848,1.284-14.307C68.853,158.692,70.435,156.968,70.552,155.926Z" transform="translate(-35.759 -116.767)" fill="#211715"/>
                <path id="Tracé_86779" data-name="Tracé 86779" d="M69.123,173.625c-.4-1.363-5.306-15.119,3.363-24.13a65.564,65.564,0,0,1,12.47-9.732c3.815.277,13.379,3.787,16.843,5.969,9.239,5.817,7.914,27.146,7.914,27.146s10.221-18.471,3.378-30.944-31.594-11.6-36.955-8.977-15.284,7.232-16.31,19.527S69.123,173.625,69.123,173.625Z" transform="translate(-37.797 -116.382)" fill="#499f47"/>
                <path id="Tracé_86780" data-name="Tracé 86780" d="M76.135,133.291c-5.36,2.623-15.284,7.232-16.31,19.527s9.3,21.141,9.3,21.141c-.4-1.363-5.306-15.119,3.363-24.13a65.564,65.564,0,0,1,12.47-9.732s-2.442-1.313-7.347-1.209c-2.845.06-3.657.9-5.254,1.019s1.272-3.422,2.526-5.018Z" transform="translate(-37.797 -116.716)" fill="#6bba6a"/>
                <circle id="Ellipse_571" data-name="Ellipse 571" cx="0.912" cy="0.912" r="0.912" transform="translate(28.872 67.445)" fill="#f2cc8d"/>
                <circle id="Ellipse_572" data-name="Ellipse 572" cx="0.912" cy="0.912" r="0.912" transform="translate(72.965 66.532)" fill="#f2cc8d"/>
                <g id="Groupe_23555" data-name="Groupe 23555" transform="translate(53.404 48.537)">
                  <path id="Tracé_86781" data-name="Tracé 86781" d="M107.292,191.023a9.573,9.573,0,1,1,9.572-9.573A9.585,9.585,0,0,1,107.292,191.023Zm0-18.2a8.624,8.624,0,1,0,8.623,8.624A8.634,8.634,0,0,0,107.292,172.825Z" transform="translate(-97.717 -171.877)" fill="#fcb550"/>
                </g>
                <g id="Groupe_23556" data-name="Groupe 23556" transform="translate(31.044 49.735)">
                  <path id="Tracé_86782" data-name="Tracé 86782" d="M80.3,192.468a9.572,9.572,0,1,1,9.572-9.572A9.584,9.584,0,0,1,80.3,192.468Zm0-18.2a8.624,8.624,0,1,0,8.624,8.624A8.634,8.634,0,0,0,80.3,174.271Z" transform="translate(-70.724 -173.323)" fill="#fcb550"/>
                </g>
                <g id="Groupe_23557" data-name="Groupe 23557" transform="translate(49.355 56.887)">
                  <path id="Tracé_86783" data-name="Tracé 86783" d="M93.38,183.567l-.551-.773c.93-.663,3.137-1.509,4.841.034l-.635.7C95.471,182.121,93.466,183.508,93.38,183.567Z" transform="translate(-92.829 -181.957)" fill="#fcb550"/>
                </g>
              </g>
            </g>
          </g>
          <g id="Groupe_23569" data-name="Groupe 23569" transform="translate(141.08 95.4)">
            <g id="Groupe_23568" data-name="Groupe 23568" transform="translate(0 0)" clip-path="url(#clip-path)">
              <g id="Groupe_23567" data-name="Groupe 23567" transform="translate(19.97 -5.179)">
                <g id="Groupe_23566" data-name="Groupe 23566">
                  <g id="Groupe_23565" data-name="Groupe 23565" clip-path="url(#clip-path-4)">
                    <g id="Groupe_23564" data-name="Groupe 23564" transform="translate(12.473 1.297)">
                      <g id="Groupe_23561" data-name="Groupe 23561" transform="translate(0 80.457)">
                        <path id="Tracé_86784" data-name="Tracé 86784" d="M259.878,224.418c-.513.06-12.586,4.344-21.227,7.425-5.734,2.068-15.759,20.788-11.856,21.309,4.023.537,41.844,4.842,46.062,4.373,7.414-.823,20.264,3.677,28.571.292,1.168-.475-4.263-16.877-7.507-26.339a9.872,9.872,0,0,0-9.187-6.672Z" transform="translate(-225.916 -224.418)" fill="#0d2b46"/>
                      </g>
                      <path id="Tracé_86785" data-name="Tracé 86785" d="M258.484,208.956l1.412,14.923s1.173,3.605,6.329,3.177,3.353-4.253,3.353-4.253l-.768-11.723Z" transform="translate(-231.506 -141.307)" fill="#eeaa92"/>
                      <path id="Tracé_86786" data-name="Tracé 86786" d="M237.184,168.092s-2.715-2.956-7.468-.821-2.091,9.836.958,13.338c1.878,2.157,7.774,3.418,9.95-3.387S237.184,168.092,237.184,168.092Z" transform="translate(-226.123 -134.019)" fill="#eeaa92"/>
                      <path id="Tracé_86787" data-name="Tracé 86787" d="M284.563,157.015s.653-3.525,3.627-3.311,3.76,12.256,2.529,13.835c-.528.676-2.431.563-3.269-1.519Z" transform="translate(-235.982 -131.822)" fill="#eeaa92"/>
                      <path id="Tracé_86788" data-name="Tracé 86788" d="M277.446,144.787l4.288,24.013-2.231,5.572-29.242-.2s-8.487-8.35-9.915-10.366a20.234,20.234,0,0,0-1.592-2.078L233.967,146.1s2.261-8.863,16.482-14.853C277.517,119.846,277.446,144.787,277.446,144.787Z" transform="translate(-227.298 -127.457)" fill="#f0ccc0"/>
                      <path id="Tracé_86789" data-name="Tracé 86789" d="M238.62,161.639s-4.667-9.785-4.653-15.7c.018-7.313,2.937-14.349,22.231-18.254,9.1-1.842,20.064,3.083,20.7,8.915.437,4.005,2.338,18.047,2.338,18.047s-4.185-23.135-9.219-24.533c-2.1-.584-3.768,7.395-9.114,7.019-7.472-.527-18.224-2.172-22.413,1.659-4.712,4.31,3.583,20.8,3.583,20.8Z" transform="translate(-227.298 -127.289)" fill="#e6dfdc"/>
                      <path id="Tracé_86790" data-name="Tracé 86790" d="M256.785,150.807l.663,1.668s-3.094-.169-5.587,4.427c0,0-1.517-.315-1.442-.89S251.61,151.539,256.785,150.807Z" transform="translate(-230.121 -131.326)" fill="#e6dfdc"/>
                      <path id="Tracé_86791" data-name="Tracé 86791" d="M276.134,147.994l-.051,1.64s2.605-1.109,6.179,2.062c0,0,1.205-.743.962-1.214S280.808,147.011,276.134,147.994Z" transform="translate(-234.527 -130.809)" fill="#e6dfdc"/>
                      <path id="Tracé_86792" data-name="Tracé 86792" d="M243.676,167.62l.6,1.041-3.084,1.472-.615-.793Z" transform="translate(-228.432 -134.212)" fill="#e6dfdc"/>
                      <path id="Tracé_86793" data-name="Tracé 86793" d="M241.958,171.333l2.947-1.17s2.748,10.146,13.7,10.676,9.845-6.007,9.845-6.007l4.07-.476s4.1,6.187,10.194-.556c0,0,5.685,31.5-12.983,33.223s-24.586-16.068-24.586-16.068Z" transform="translate(-228.669 -134.648)" fill="#e6dfdc"/>
                      <path id="Tracé_86794" data-name="Tracé 86794" d="M255.44,185.167a40.4,40.4,0,0,0,6.616,1.623l-1.213,1.194c1.348-.041,2.53.23,4.07-.476a1.771,1.771,0,0,1-.5,1.463,2.045,2.045,0,0,0,1.813-1.266,3.251,3.251,0,0,0,2.665,1.384l-.149-1.269s1.316.84,6.52.23c0,0-1.275,6.991-10.966,6.256S255.44,185.167,255.44,185.167Z" transform="translate(-230.98 -137.224)" fill="#fff"/>
                      <ellipse id="Ellipse_573" data-name="Ellipse 573" cx="3.863" cy="4.676" rx="3.863" ry="4.676" transform="translate(23.677 25.232) rotate(-6.748)" fill="#fff"/>
                      <ellipse id="Ellipse_574" data-name="Ellipse 574" cx="2.816" cy="3.408" rx="2.816" ry="3.408" transform="translate(24.481 26.413) rotate(-6.748)"/>
                      <ellipse id="Ellipse_575" data-name="Ellipse 575" cx="3.532" cy="4.275" rx="3.532" ry="4.275" transform="translate(41.002 22.951) rotate(-6.748)" fill="#fff"/>
                      <ellipse id="Ellipse_576" data-name="Ellipse 576" cx="2.486" cy="3.26" rx="2.486" ry="3.26" transform="matrix(0.993, -0.118, 0.118, 0.993, 41.615, 23.936)"/>
                      <ellipse id="Ellipse_577" data-name="Ellipse 577" cx="4.298" cy="3.717" rx="4.298" ry="3.717" transform="translate(37.253 34.159) rotate(-6.618)" fill="#f0ccc0"/>
                      <path id="Tracé_86795" data-name="Tracé 86795" d="M269.259,169.835a4.058,4.058,0,0,0-1.538,1.137,1.143,1.143,0,0,0,.051,1.536c.73.842,2.227.416,3.351.006l.284-.1.19.253a4.065,4.065,0,0,0,4.263,1.317,3.651,3.651,0,0,0,2.9-3.181c.08-.729-.43-1.268-1.052-1.867-.6-.578-1.293-1.111-1.978-1.648a12.087,12.087,0,0,1-3.624-3.748c.983,1.447,2.586,2.256,4,3.258.728.486,1.465.967,2.166,1.542a3.15,3.15,0,0,1,1.4,2.473,4.429,4.429,0,0,1-3.579,4.093,4.908,4.908,0,0,1-5.179-1.781l.472.149a7.915,7.915,0,0,1-2.05.36,2.255,2.255,0,0,1-2-.83,1.513,1.513,0,0,1,.175-1.994A4.214,4.214,0,0,1,269.259,169.835Z" transform="translate(-232.976 -133.511)" fill="#eeaa92"/>
                      <path id="Tracé_86796" data-name="Tracé 86796" d="M252.62,170.455a20.5,20.5,0,0,1-4.087-.433c-2.379-.486-4.431-2.537-5.776-5.772-1.595-3.836-1.807-8.422-.483-10.437,2.339-3.559,12.7-6.906,17.055-5.526v0c1.557.5,2.91,2.016,3.807,4.274,1.383,3.48,1.706,8.953-.352,12.68C260.915,168.624,257.251,170.455,252.62,170.455Zm4.206-21.5c-4.729,0-12.092,2.937-13.717,5.41-1.122,1.709-.861,6.062.57,9.505.7,1.691,2.3,4.612,5.054,5.176,6.083,1.247,11.006-.359,13.175-4.283,1.658-3,1.786-8.085.3-11.827-.785-1.976-1.915-3.288-3.183-3.694A7.376,7.376,0,0,0,256.827,148.95Z" transform="translate(-228.575 -130.839)" fill="#79909c"/>
                      <path id="Tracé_86797" data-name="Tracé 86797" d="M282.614,165.052a14.348,14.348,0,0,1-10.343-5.079,17.019,17.019,0,0,1-3.051-11.527h0c.726-4.144,7.369-4.785,13.34-4,5.11.671,5.575,2.871,6.278,6.2l.084.4c1.06,4.978-.582,11.437-3.38,13.291A5.329,5.329,0,0,1,282.614,165.052Zm-12.409-16.433h0a16.134,16.134,0,0,0,2.844,10.726c3.2,3.981,9.546,5.741,11.941,4.152,2.209-1.462,4.019-7.254,2.955-12.249l-.084-.4c-.681-3.221-1.022-4.839-5.43-5.418C278.193,144.884,270.852,144.925,270.206,148.619Z" transform="translate(-233.327 -130.184)" fill="#79909c"/>
                      <g id="Groupe_23562" data-name="Groupe 23562" transform="translate(6.914 27.972)">
                        <path id="Tracé_86798" data-name="Tracé 86798" d="M235.726,165.652l-1.463-.133,6.163-4.462.671.707Z" transform="translate(-234.262 -161.057)" fill="#79909c"/>
                      </g>
                      <g id="Groupe_23563" data-name="Groupe 23563" transform="translate(51.389 18.911)">
                        <path id="Tracé_86799" data-name="Tracé 86799" d="M287.954,152.286l2.994-2.167.671.707-3.588,2.6Z" transform="translate(-287.954 -150.119)" fill="#79909c"/>
                      </g>
                      <path id="Tracé_86800" data-name="Tracé 86800" d="M267.855,154.97l-.875-.483a2.289,2.289,0,0,1,2.513-.92l-.152.987C268.211,154.392,267.87,154.947,267.855,154.97Z" transform="translate(-232.964 -131.792)" fill="#79909c"/>
                      <ellipse id="Ellipse_578" data-name="Ellipse 578" cx="4.06" cy="5.186" rx="4.06" ry="5.186" transform="matrix(0.898, -0.44, 0.44, 0.898, 2.876, 37.401)" fill="#f0ccc0"/>
                      <circle id="Ellipse_579" data-name="Ellipse 579" cx="0.792" cy="0.792" r="0.792" transform="translate(27.361 27.412)" fill="#fff"/>
                      <circle id="Ellipse_580" data-name="Ellipse 580" cx="0.792" cy="0.792" r="0.792" transform="translate(44.074 24.758)" fill="#fff"/>
                      <path id="Tracé_86801" data-name="Tracé 86801" d="M258.879,216.936s-2.187-.2-1.72,1.365,1.93,5.987.776,7.232,3.835,5.9,7.973,4.849a7.78,7.78,0,0,0,5.344-4.7l-.9-2.173a8.878,8.878,0,0,1-.418-5.085c.684-2.425-.963-1.948-.963-1.948S263.723,219.917,258.879,216.936Z" transform="translate(-231.267 -142.591)" fill="#0a1332"/>
                    </g>
                  </g>
                </g>
              </g>
            </g>
          </g>
          <g id="Groupe_23572" data-name="Groupe 23572" transform="translate(0.075)">
            <g id="Groupe_23571" data-name="Groupe 23571" clip-path="url(#clip-path)">
              <g id="Groupe_23570" data-name="Groupe 23570" transform="translate(28.776 -23.053)">
                <path id="Tracé_37826" data-name="Tracé 37826" d="M106.25,102.813c5.892-1.635,9.213-.4,18.3-1.526,4.6,1.752,16.185-3.372,29.336,12.476,5.832,7.029,5.057,12.813,10.115,20.232-5.837,2.251-84.737,4.383-97.159,3.843-6.628-.289,6.139-15.582,11.434-20.219Z" transform="translate(-53.621 -8.255)" fill="#3693c9"/>
                <path id="Tracé_37827" data-name="Tracé 37827" d="M113.349,84.277,119.4,99.148s.669,4-4.457,6.146-5.3-2.381-5.3-2.381L104.561,91.4Z" transform="translate(-60.414 -5.335)" fill="#eda990"/>
                <path id="Tracé_37828" data-name="Tracé 37828" d="M113.05,35.356s1.127-4.151,6.716-4.473,6.87,8.308,5.7,13.141c-.719,2.976-5.713,7.088-11.161,1.7s-1.257-10.369-1.257-10.369" transform="translate(-61.607 3.831)" fill="#eda990"/>
                <path id="Tracé_37829" data-name="Tracé 37829" d="M63.686,48.107s-2.368-3.023-5.1-1.351,2.49,13.5,4.451,14.389c.838.382,2.6-.667,2.362-3.057Z" transform="translate(-52.391 1.192)" fill="#eda990"/>
                <path id="Tracé_37830" data-name="Tracé 37830" d="M58.391,36.163l7.823,24.926L71.1,65.273,98.87,50.633s3.946-12.125,4.307-14.747a21.359,21.359,0,0,1,.485-2.76L95.653,15.657s-13.631.841-13.842.921-15.3,5.445-15.3,5.445L60.1,26.4Z" transform="translate(-52.489 6.443)" fill="#efcbbf"/>
                <path id="Tracé_37831" data-name="Tracé 37831" d="M102.6,28.557s-.151-6.347,6.351-14-.084-9.948-2.11-8.776-6.317,6.918-8.873-2.226S87.548-12.859,83-10.611,85.1.181,78.272,2.491c-3.984,1.349-1.849-14-10.982-9.611-4.245,2.009-2.259,7.4-5.025,13.1A40.2,40.2,0,0,1,58.773,12.5S57.141,14.518,56.016,16c-1.745,2.3-.812.968-2.665,3.4s-3.385,4.466-.407,7.594,7.489,15,7.489,15-4.281-13.674-.179-17.494,20.19-11.107,30.291-8.417c6.628,1.764,7.748,12.233,7.748,12.233Z" transform="translate(-51.267 11.023)" fill="#d16430"/>
                <path id="Tracé_37832" data-name="Tracé 37832" d="M88.45,31.293l.195,1.913s2.864-1.692,7.52,1.441c0,0,1.29-1.048.933-1.558s-3.352-3.66-8.647-1.8" transform="translate(-57.649 3.86)" fill="#d16430"/>
                <path id="Tracé_37833" data-name="Tracé 37833" d="M66.985,35.149l.861,1.532s-3.033.234-4.864,5.013c0,0-1.518-.11-1.518-.678a6.87,6.87,0,0,1,5.521-5.868" transform="translate(-53.017 3.098)" fill="#d16430"/>
                <path id="Tracé_37834" data-name="Tracé 37834" d="M108.157,38.018l-.052,1.284,3.67-.126.192-1.057Z" transform="translate(-61.023 2.605)" fill="#d16430"/>
                <path id="Tracé_37835" data-name="Tracé 37835" d="M103.821,40.608l-3.387.345s2.414,10.995-7.759,16.912-12.36-.844-12.36-.844L76.2,58.578s-.838,7.9-9.99,4.512c0,0-6.717,6.742-1.586,12.714l-2.089.8a16.769,16.769,0,0,0,8.018,7.473l-3.375,1.278s9.238,10.47,27.878,2.876,15.458-27.414,15.458-27.414l.283-1.165,1.629,1.238s1.159-4.834-3.594-10.015a18.078,18.078,0,0,1-5.011-10.267" transform="translate(-53.201 2.161)" fill="#d16430"/>
                <path id="Tracé_37836" data-name="Tracé 37836" d="M102.651,60.181a43.392,43.392,0,0,1-5.5,4.812l1.747.536a9.528,9.528,0,0,1-4.114,1.558s.376.988,1.206,1.139a2.2,2.2,0,0,1-2.355-.3,3.479,3.479,0,0,1-1.852,2.63L91.3,69.272s-.837,1.449-6.1,3.442c0,0,4.683,6.011,13.552.521s3.9-13.054,3.9-13.054" transform="translate(-57.091 -1.199)" fill="#fff"/>
                <path id="Tracé_37837" data-name="Tracé 37837" d="M64.829,47.838c.661,2.689,3,4.418,5.228,3.873s3.492-3.165,2.83-5.851-3-4.418-5.228-3.872-3.494,3.163-2.83,5.849" transform="translate(-53.564 1.941)" fill="#fff"/>
                <path id="Tracé_37838" data-name="Tracé 37838" d="M66.635,47.737A3.078,3.078,0,1,0,72.509,46.3a3.078,3.078,0,1,0-5.875,1.441" transform="translate(-53.873 1.675)"/>
                <path id="Tracé_37839" data-name="Tracé 37839" d="M74.559,59.263a4.667,4.667,0,1,0,2.9-5.355,4.325,4.325,0,0,0-2.9,5.355" transform="translate(-55.234 -0.054)" fill="#efcbbf"/>
                <path id="Tracé_37840" data-name="Tracé 37840" d="M83.692,52.968a4.361,4.361,0,0,1,2.029.318,1.225,1.225,0,0,1,.714,1.484c-.278,1.16-1.915,1.494-3.19,1.667l-.321.036-.055.334a4.361,4.361,0,0,1-3.409,3.36,3.93,3.93,0,0,1-4.341-1.589,2.543,2.543,0,0,1,.076-2.293,27.306,27.306,0,0,1,1.069-2.541,12.91,12.91,0,0,0,1.6-5.353,15.463,15.463,0,0,1-2.2,5.072A27.567,27.567,0,0,0,74.367,56a3.362,3.362,0,0,0-.114,3.041,4.762,4.762,0,0,0,5.44,2.117,5.264,5.264,0,0,0,4.051-4.25l-.376.375a8.507,8.507,0,0,0,2.131-.671A2.418,2.418,0,0,0,87,54.835a1.621,1.621,0,0,0-1.155-1.808,4.544,4.544,0,0,0-2.144-.06" transform="translate(-55.159 0.825)" fill="#eda990"/>
                <path id="Tracé_37841" data-name="Tracé 37841" d="M92.058,47.556a10.227,10.227,0,0,1-6.488-1.645c-3.8-2.518-6.206-7.867-6.619-11.849a7.232,7.232,0,0,1,1.505-5.918c3.453-3.467,14.969-5.4,18.955-3.178,2.257,1.256,4.32,5.7,4.7,10.127.322,3.729-.612,6.682-2.63,8.313a17.293,17.293,0,0,1-9.426,4.15m-10.88-18.7a6.289,6.289,0,0,0-1.209,5.1,16.426,16.426,0,0,0,6.164,11.108c4.022,2.662,9.523,1.748,14.712-2.448,2.359-1.908,2.428-5.481,2.258-7.44-.35-4.051-2.228-8.236-4.185-9.33-3.265-1.818-14.419-.326-17.739,3.008" transform="translate(-55.997 5.008)" fill="#79909b"/>
                <path id="Tracé_37842" data-name="Tracé 37842" d="M64.553,55.766a3.718,3.718,0,0,1-.665-.009c-3.576-.376-8.332-5.688-9.786-10.929l-.117-.415c-.974-3.5-1.626-5.812,2.894-8.963a28.949,28.949,0,0,1,7.784-3.963c3.186-.948,5.562-.543,6.873,1.164a18.144,18.144,0,0,1,2.8,12.431c-1.122,5.582-6.229,10.43-9.788,10.686m2.7-23.749c-3.123.223-7.22,2.467-9.792,4.261-3.93,2.739-3.452,4.451-2.5,7.861l.118.423c1.335,4.812,5.75,9.861,8.913,10.194,3.083.326,8.269-4.5,9.35-9.868A17.272,17.272,0,0,0,70.73,33.271a3.775,3.775,0,0,0-3.477-1.252" transform="translate(-51.612 3.812)" fill="#79909b"/>
                <path id="Tracé_37843" data-name="Tracé 37843" d="M114.1,32.531l1.329-.849-8.084-1.191-.289,1Z" transform="translate(-60.843 3.897)" fill="#79909b"/>
                <path id="Tracé_37844" data-name="Tracé 37844" d="M58.336,45.334l-3.928-.583-.289,1,4.708.7Z" transform="translate(-51.756 1.45)" fill="#79909b"/>
                <path id="Tracé_37845" data-name="Tracé 37845" d="M77.338,38.09l-.6-.817a2.441,2.441,0,0,1,2.818-.368l-.287.418-.277.424c-.026-.017-.659-.386-1.656.342" transform="translate(-55.639 2.846)" fill="#79909b"/>
                <path id="Tracé_37846" data-name="Tracé 37846" d="M114.469,41.675c.363,3.035,2.6,5.142,4.978,4.713s4.013-3.245,3.643-6.279-2.6-5.145-4.978-4.713-4.015,3.245-3.643,6.279" transform="translate(-62.106 3.065)" fill="#efcbbf"/>
                <path id="Tracé_37847" data-name="Tracé 37847" d="M69.761,45.868a.85.85,0,1,0,.616-1.029.85.85,0,0,0-.616,1.029h0" transform="translate(-54.436 1.439)" fill="#fff"/>
                <path id="Tracé_37848" data-name="Tracé 37848" d="M87.064,41.538a.606.606,0,0,1-.588-.876,6.378,6.378,0,0,1,5.269-3.651,5.965,5.965,0,0,1,4.593,2.16.609.609,0,0,1-.958.745,4.8,4.8,0,0,0-3.588-1.687A5.266,5.266,0,0,0,87.566,41.2a.614.614,0,0,1-.5.335" transform="translate(-57.299 2.778)"/>
              </g>
            </g>
          </g>
        </g>
        <g id="Groupe_23576" data-name="Groupe 23576" transform="translate(101.007 164.42)">
          <g id="Groupe_23575" data-name="Groupe 23575">
            <rect id="Rectangle_9432" data-name="Rectangle 9432" width="101.134" height="22.545" rx="5.591" fill="#2a3551"/>
            <g id="Groupe_23574" data-name="Groupe 23574" transform="translate(5.22 22.42)">
              <path id="Tracé_86802" data-name="Tracé 86802" d="M191.674,232.365H131.007a2.872,2.872,0,0,1-2.768-2.966v-3.8H192Z" transform="translate(-128.239 -225.562)" fill="#2fcc7e"/>
              <path id="Tracé_86803" data-name="Tracé 86803" d="M226.918,232.358H204.6v-6.8h25.084v3.838A2.873,2.873,0,0,1,226.918,232.358Z" transform="translate(-141.346 -225.555)" fill="#cc3253"/>
            </g>
          </g>
          <rect id="Rectangle_9433" data-name="Rectangle 9433" width="20.493" height="15.593" rx="3.587" transform="translate(3.499 3.43)" fill="#445473"/>
          <rect id="Rectangle_9434" data-name="Rectangle 9434" width="20.493" height="15.593" rx="3.587" transform="translate(52.682 3.43)" fill="#445473"/>
          <rect id="Rectangle_9435" data-name="Rectangle 9435" width="20.493" height="15.593" rx="3.587" transform="translate(77.274 3.43)" fill="#445473"/>
          <rect id="Rectangle_9436" data-name="Rectangle 9436" width="20.493" height="15.593" rx="3.587" transform="translate(28.09 3.43)" fill="#445473"/>
        </g>
      </g>
    </g>
  </g>
</svg>
