<svg id="magnifying_glass" data-name="magnifying glass" xmlns="http://www.w3.org/2000/svg" width="19.9" height="19.899" viewBox="0 0 19.9 19.899">
  <g id="Groupe_2243" data-name="Groupe 2243" transform="translate(0)">
    <path id="Tracé_6038" data-name="Tracé 6038" d="M15.31,7.59a1,1,0,0,1-2,0,.99.99,0,0,0-1-1,1,1,0,0,1,0-2A3,3,0,0,1,15.31,7.59Z" transform="translate(0 0)" fill="#acbbd7"/>
    <path id="Tracé_6039" data-name="Tracé 6039" d="M17.26,2.64a8.994,8.994,0,1,0,0,12.72A8.981,8.981,0,0,0,17.26,2.64ZM15.85,13.95a7,7,0,1,1,0-9.9A7.007,7.007,0,0,1,15.85,13.95Z" transform="translate(0 0)" fill="#acbbd7" fill-rule="evenodd"/>
    <path id="Tracé_6040" data-name="Tracé 6040" d="M4.57,16.743q-.383-.313-.742-.672t-.672-.742L.293,18.192a1,1,0,1,0,1.414,1.415Z" transform="translate(0 0)" fill="#acbbd7"/>
  </g>
</svg>
