<svg xmlns="http://www.w3.org/2000/svg" width="42" height="42" viewBox="0 0 42 42">
  <g id="ico-star" transform="translate(21 21)">
    <g id="Groupe_23189" data-name="Groupe 23189" transform="translate(-21 -21)">
      <g id="Groupe_23188" data-name="Groupe 23188">
        <path id="Tracé_85752" data-name="Tracé 85752" d="M41.487,32.2c-.719,5.3-3.86,8.594-9.292,9.3A91.93,91.93,0,0,1,21,42a107.389,107.389,0,0,1-11.193-.5C4.659,40.944,1.07,37.724.515,32.206.2,29.05,0,25.168,0,20.839A95.685,95.685,0,0,1,.511,9.78C1.145,4.542,4.36,1.022,9.833.483,12.846.186,16.6,0,21,0A102.627,102.627,0,0,1,32.17.483c5.384.614,8.6,4.134,9.323,9.3A84.6,84.6,0,0,1,42,20.839,89.5,89.5,0,0,1,41.487,32.2" fill="#d2dcef"/>
        <path id="Tracé_85753" data-name="Tracé 85753" d="M29.847,50.5l-2.409-2.93a.608.608,0,0,0-.642-.17l-3.544,1.352c-.339.129-.789-.145-.713-.433l5.7-21.51c.047-.178.288-.269.538-.2l7.237,1.919c.25.066.414.264.367.443l-5.7,21.509c-.077.289-.6.3-.834.023" transform="translate(-11.777 -13.898)" fill="#acbbd7"/>
        <path id="Tracé_85754" data-name="Tracé 85754" d="M43.8,50.5l2.409-2.93a.608.608,0,0,1,.642-.17L50.4,48.755c.339.129.789-.145.713-.433l-5.7-21.51c-.047-.178-.288-.269-.538-.2l-7.237,1.919c-.25.066-.414.264-.367.443l5.7,21.509c.077.289.6.3.834.023" transform="translate(-19.477 -13.898)" fill="#acbbd7"/>
        <path id="Tracé_85755" data-name="Tracé 85755" d="M31.209,11.359l.636.9a1.615,1.615,0,0,0,2,.535l1-.463a1.615,1.615,0,0,1,2.287,1.32l.1,1.1a1.615,1.615,0,0,0,1.463,1.463l1.1.1a1.615,1.615,0,0,1,1.32,2.287l-.463,1a1.615,1.615,0,0,0,.535,2l.9.636a1.615,1.615,0,0,1,0,2.641l-.9.636a1.614,1.614,0,0,0-.535,2l.463,1a1.615,1.615,0,0,1-1.32,2.287l-1.1.1a1.615,1.615,0,0,0-1.463,1.463l-.1,1.1a1.615,1.615,0,0,1-2.287,1.32l-1-.464a1.616,1.616,0,0,0-2,.535l-.636.9a1.615,1.615,0,0,1-2.641,0l-.636-.9a1.616,1.616,0,0,0-2-.535l-1,.464a1.615,1.615,0,0,1-2.287-1.32l-.1-1.1A1.615,1.615,0,0,0,21.082,30.9l-1.1-.1a1.615,1.615,0,0,1-1.32-2.287l.464-1a1.615,1.615,0,0,0-.536-2l-.9-.636a1.615,1.615,0,0,1,0-2.641l.9-.636a1.616,1.616,0,0,0,.536-2l-.464-1a1.615,1.615,0,0,1,1.32-2.287l1.1-.1a1.615,1.615,0,0,0,1.463-1.463l.1-1.1a1.615,1.615,0,0,1,2.287-1.32l1,.463a1.615,1.615,0,0,0,2-.535l.636-.9a1.615,1.615,0,0,1,2.641,0" transform="translate(-8.888 -5.58)" fill="#6c7c9d"/>
        <path id="Tracé_85756" data-name="Tracé 85756" d="M43.157,27.97A8.858,8.858,0,1,1,34.3,19.111a8.859,8.859,0,0,1,8.859,8.859" transform="translate(-13.298 -9.99)" fill="#fff"/>
        <path id="Tracé_85757" data-name="Tracé 85757" d="M38.792,27.1l1.438,2.915a.285.285,0,0,0,.214.156l3.216.467a.285.285,0,0,1,.158.486L41.492,33.4a.285.285,0,0,0-.082.252l.549,3.2a.285.285,0,0,1-.413.3L38.67,35.639a.284.284,0,0,0-.265,0l-2.877,1.512a.285.285,0,0,1-.413-.3l.549-3.2a.284.284,0,0,0-.082-.252l-2.327-2.269a.285.285,0,0,1,.158-.486l3.216-.467a.285.285,0,0,0,.214-.156L38.282,27.1a.285.285,0,0,1,.511,0" transform="translate(-17.338 -14.085)" fill="#ff7b3d"/>
      </g>
    </g>
  </g>
</svg>
