<svg xmlns="http://www.w3.org/2000/svg" width="42" height="42" viewBox="0 0 42 42">
  <g id="ico-target" transform="translate(21 21)">
    <g id="Groupe_23187" data-name="Groupe 23187" transform="translate(-21 -21)">
      <path id="Tracé_85746" data-name="Tracé 85746" d="M41.487,32.2c-.719,5.3-3.86,8.594-9.292,9.3A91.93,91.93,0,0,1,21,42a107.389,107.389,0,0,1-11.193-.5C4.659,40.944,1.07,37.724.515,32.206.2,29.05,0,25.168,0,20.839A95.578,95.578,0,0,1,.511,9.78C1.145,4.542,4.36,1.022,9.833.483,12.846.186,16.6,0,21,0A102.627,102.627,0,0,1,32.17.483c5.384.614,8.6,4.134,9.323,9.3A84.6,84.6,0,0,1,42,20.839,89.5,89.5,0,0,1,41.487,32.2" fill="#d2dcef"/>
      <g id="Groupe_23186" data-name="Groupe 23186" transform="translate(5.25 5.302)">
        <g id="Groupe_23185" data-name="Groupe 23185">
          <circle id="Ellipse_477" data-name="Ellipse 477" cx="15.75" cy="15.75" r="15.75" transform="translate(0 0.14)" fill="#6c7c9d"/>
          <path id="Tracé_85747" data-name="Tracé 85747" d="M31.063,43.278A11.813,11.813,0,1,1,42.875,31.465,11.847,11.847,0,0,1,31.063,43.278Z" transform="translate(-15.313 -15.575)" fill="#fff"/>
          <path id="Tracé_85748" data-name="Tracé 85748" d="M35.375,43.653a7.875,7.875,0,1,1,7.875-7.875A7.9,7.9,0,0,1,35.375,43.653Z" transform="translate(-19.625 -19.888)" fill="#6c7c9d"/>
          <path id="Tracé_85749" data-name="Tracé 85749" d="M39.688,44.028a3.938,3.938,0,1,1,3.938-3.937A3.949,3.949,0,0,1,39.688,44.028Z" transform="translate(-23.938 -24.2)" fill="#bacbe5"/>
          <path id="Tracé_85750" data-name="Tracé 85750" d="M39.688,44.028a3.938,3.938,0,1,1,3.938-3.937A3.949,3.949,0,0,1,39.688,44.028Z" transform="translate(-23.938 -24.2)" fill="#fff"/>
          <g id="Groupe_23184" data-name="Groupe 23184" transform="translate(13.252)">
            <rect id="Rectangle_9343" data-name="Rectangle 9343" width="3.5" height="17.474" rx="1.75" transform="matrix(0.707, 0.707, -0.707, 0.707, 12.356, 3.532)" fill="#acbbd7"/>
            <path id="Tracé_85751" data-name="Tracé 85751" d="M64.841,14.65l-.178-3.027a.521.521,0,0,0-.844-.39L61.391,13.66a.431.431,0,0,0-.121.333l.234,3.992a.557.557,0,0,0,.511.511l3.992.234a.43.43,0,0,0,.333-.121l2.427-2.427a.521.521,0,0,0-.39-.844l-3.027-.178A.557.557,0,0,1,64.841,14.65Z" transform="translate(-50.529 -11.11)" fill="#ff7b3d"/>
          </g>
        </g>
      </g>
    </g>
  </g>
</svg>
