<svg xmlns="http://www.w3.org/2000/svg" xmlns:xlink="http://www.w3.org/1999/xlink" width="428.218" height="222.192" viewBox="0 0 428.218 222.192">
  <defs>
    <clipPath id="clip-path">
      <rect id="Rectangle_674" data-name="Rectangle 674" width="402" height="163" transform="translate(762)" fill="#fff" stroke="#707070" stroke-width="1"/>
    </clipPath>
    <clipPath id="clip-path-2">
      <rect id="Rectangle_9268" data-name="Rectangle 9268" width="39.852" height="39.852" transform="matrix(0.117, -0.993, 0.993, 0.117, 0, 39.579)" fill="none"/>
    </clipPath>
    <clipPath id="clip-path-4">
      <rect id="Rectangle_9274" data-name="Rectangle 9274" width="39.852" height="39.852" transform="translate(0 39.489) rotate(-82.258)" fill="none"/>
    </clipPath>
    <clipPath id="clip-path-6">
      <rect id="Rectangle_9280" data-name="Rectangle 9280" width="39.852" height="39.852" transform="translate(0 5.289) rotate(-7.626)" fill="none"/>
    </clipPath>
  </defs>
  <g id="Groupe_23222" data-name="Groupe 23222" transform="translate(-735.782 59.192)">
    <g id="Groupe_de_masques_2" data-name="Groupe de masques 2" clip-path="url(#clip-path)">
      <g id="Groupe_26367" data-name="Groupe 26367" transform="matrix(0.545, 0.839, -0.839, 0.545, 1017.323, 65.866)">
        <g id="Groupe_26367-2" data-name="Groupe 26367" transform="translate(-101.69 -131.197)">
          <path id="Tracé_61101" data-name="Tracé 61101" d="M190.615,136.678C137.08,243.025,38.753,198.77,13.657,158.156S-24.8-14.424,67.773-3.065,221.158,75.946,190.615,136.678Z" fill="#ffdac7"/>
          <path id="Tracé_86599" data-name="Tracé 86599" d="M43.406,8.536c14.084,27.51-2.766,30.257-13.531,29.376s-41.217-6.605-28-24.531S35.408-7.221,43.406,8.536Z" transform="translate(77.665 220.59)" fill="#f8e5a9"/>
        </g>
      </g>
    </g>
    <g id="polaroid_2" data-name="polaroid 2" transform="translate(1059.928 59.228)">
      <g id="Groupe_23154" data-name="Groupe 23154" transform="translate(-47.242 -75.09)">
        <g id="Groupe_23124" data-name="Groupe 23124" transform="translate(22.815 85.65)">
          <g id="Groupe_23113" data-name="Groupe 23113" transform="translate(0.8 0.8)" opacity="0.1" style="mix-blend-mode: multiply;isolation: isolate">
            <rect id="Rectangle_9266" data-name="Rectangle 9266" width="58.491" height="48.276" rx="2.359" transform="matrix(0.117, -0.993, 0.993, 0.117, 0, 58.091)" fill="#1c124c"/>
            <rect id="Rectangle_9267" data-name="Rectangle 9267" width="39.852" height="39.852" rx="1.324" transform="matrix(0.117, -0.993, 0.993, 0.117, 5.885, 43.973)" fill="#1c124c"/>
            <g id="Groupe_23112" data-name="Groupe 23112" transform="translate(5.885 4.394)">
              <g id="Groupe_23111" data-name="Groupe 23111" clip-path="url(#clip-path-2)">
                <path id="Tracé_85600" data-name="Tracé 85600" d="M57.916,127.245s-.206-2.331,2.669-1.7,5.588,2.084,6.669,2.04,2.377-1.463,4.95.069,4.42,3.2,3.258,7.035-4,2.071-4,2.071-.521,6.728,1.147,8.808,2.137,1.35,2.137,1.35a11.573,11.573,0,0,1-8.422,1.852,63.012,63.012,0,0,0-7.051-.975s-6.959,1.3-12.6-5.526c0,0,3.161.012,3.2-1.7s.454-9.341,2.1-11.681C53.714,126.4,56.275,125.968,57.916,127.245Z" transform="translate(-39.175 -117.338)" fill="#1c124c"/>
                <path id="Tracé_85601" data-name="Tracé 85601" d="M56.439,160.629l-2.528.05s-7.251.153-7.757,4.579c-.31,2.709,17.83,6.471,24.5,4.057,0,0,.418-5.578-4.676-7.343A25.044,25.044,0,0,0,56.439,160.629Z" transform="translate(-39.065 -124.845)" fill="#1c124c"/>
                <path id="Tracé_85602" data-name="Tracé 85602" d="M66.418,152.82l-4.257-2.071s-.355,2.962-.62,5.009a15.884,15.884,0,0,0,4.479,2.021Z" transform="translate(-42.352 -122.745)" fill="#1c124c"/>
                <path id="Tracé_85603" data-name="Tracé 85603" d="M64.8,159.6l.037-.459a15.884,15.884,0,0,1-4.479-2.021c-.126.974-.23,1.741-.267,1.884-.112.444-4.077.936-4.077.936.317,3.808,4.648,6.56,7.936,6.094s4.135-4.8,4.135-4.8Z" transform="translate(-41.172 -124.105)" fill="#1c124c"/>
                <path id="Tracé_85604" data-name="Tracé 85604" d="M60.614,131.943a2.5,2.5,0,0,0,2.295,1.19c1.648-.051,4.336-1.613,6.21-1.075s3.548,1.659,3.358,4.608-1.081,2.529-.5,5.04-2.115,8.466-4.428,9.411c-2.468,1.009-5.639-.039-7.863-2.775s-3.048-4.426-2.962-5.28a1.544,1.544,0,0,1-1.512.5,2.424,2.424,0,0,1-1.572-2.426c-.013-1.144.662-2.228,1.508-1.906s1.486,1.756,1.486,1.756a4.9,4.9,0,0,0,2.987-4.4C59.828,133.163,60.614,131.943,60.614,131.943Z" transform="translate(-40.665 -118.728)" fill="#1c124c"/>
                <path id="Tracé_85605" data-name="Tracé 85605" d="M66.255,141.213a4.394,4.394,0,0,1-.679,1.937c-.715.648-3.325-.623-3.422-1s.3-1.068.3-1.068l2.384-.3Z" transform="translate(-42.48 -120.615)" fill="#1c124c"/>
                <path id="Tracé_85606" data-name="Tracé 85606" d="M66.029,141.829s1.033-.956-.055-1.438-3.231.525-3.981.685a13.613,13.613,0,0,0,2.248-.089C66.071,140.817,66.029,141.829,66.029,141.829Z" transform="translate(-42.449 -120.505)" fill="#1c124c"/>
                <path id="Tracé_85607" data-name="Tracé 85607" d="M75.1,142.077a3.193,3.193,0,0,1-.428,1.2c-.384.572-2.194.431-2.611.136-.362-.256-.232-.543-.192-.751a1.637,1.637,0,0,1,.87-1.088C73.329,141.288,75.1,140.568,75.1,142.077Z" transform="translate(-44.546 -120.694)" fill="#1c124c"/>
                <path id="Tracé_85608" data-name="Tracé 85608" d="M72.093,142.831a1.036,1.036,0,0,0,.422.883,1.772,1.772,0,0,0,.916.081A1.027,1.027,0,0,0,74,142.9a.954.954,0,1,0-1.9-.069Z" transform="translate(-44.605 -120.843)" fill="#1c124c"/>
                <path id="Tracé_85609" data-name="Tracé 85609" d="M71.9,142.282a1.613,1.613,0,0,1,.755-.975,4.6,4.6,0,0,1,1.315-.5c.348-.084,2.266-.236,1.1,1.253,0,0,.032-.879-1.468-.63S71.9,142.282,71.9,142.282Z" transform="translate(-44.564 -120.611)" fill="#1c124c"/>
                <path id="Tracé_85610" data-name="Tracé 85610" d="M62.411,142.1a.79.79,0,0,0,.048.387,4.066,4.066,0,0,0,1.436.689,1.148,1.148,0,0,0,.63-1,1.066,1.066,0,0,0-2.114-.076Z" transform="translate(-42.537 -120.705)" fill="#1c124c"/>
                <circle id="Ellipse_447" data-name="Ellipse 447" cx="0.299" cy="0.299" r="0.299" transform="translate(20.348 20.723)" fill="#1c124c"/>
                <circle id="Ellipse_448" data-name="Ellipse 448" cx="0.299" cy="0.299" r="0.299" transform="translate(27.861 21.13)" fill="#1c124c"/>
                <path id="Tracé_85611" data-name="Tracé 85611" d="M71.539,150.969s.279.886-.417,1.143-2.455.031-2.344-1.069C68.826,150.569,71.539,150.969,71.539,150.969Z" transform="translate(-43.897 -122.758)" fill="#1c124c"/>
                <path id="Tracé_85612" data-name="Tracé 85612" d="M70.54,149.946l.549-.441s.808.568.759.855a.609.609,0,0,1-.694.508c-.4-.043-.489-.345-.816-.214s-2.09.606-2.611-.16a1.383,1.383,0,0,0,1.334-.373c.609-.6.665-.765.83-.643S70.54,149.946,70.54,149.946Z" transform="translate(-43.673 -122.465)" fill="#1c124c"/>
                <path id="Tracé_85613" data-name="Tracé 85613" d="M72.969,137.923c.025-.063,2.528-.44,3.1.907s-.587-.242-1.526-.185S72.533,139,72.969,137.923Z" transform="translate(-44.771 -119.985)" fill="#1c124c"/>
                <path id="Tracé_85614" data-name="Tracé 85614" d="M67.149,137.551c-.007-.077-2.56-1.212-3.586.14s.7-.106,1.686.226S67.279,138.885,67.149,137.551Z" transform="translate(-42.717 -119.815)" fill="#1c124c"/>
                <path id="Tracé_85615" data-name="Tracé 85615" d="M71.971,139.418a4.119,4.119,0,0,0-.363,3.843,3.438,3.438,0,0,0,.555.81,3.082,3.082,0,0,0,.358.331,1.944,1.944,0,0,0,.2.134.348.348,0,0,1,.091.429,1.546,1.546,0,0,1-1.92.828l.116-.011a2.08,2.08,0,0,1-.9.259.641.641,0,0,1-.481-.179,1.137,1.137,0,0,1-.206-.436c-.084-.265-.094-.721.275-.838a.84.84,0,0,1,.777.391c-.206-.19-.493-.378-.746-.293s-.219.444-.132.687c.09.288.23.471.507.432a2.036,2.036,0,0,0,.763-.269l.06-.032.057.021a1.249,1.249,0,0,0,1.519-.665c.036-.068-.012-.1.04-.044a2.067,2.067,0,0,1-.224-.158,3.393,3.393,0,0,1-.391-.375,3.782,3.782,0,0,1-.587-.9,3.367,3.367,0,0,1-.227-2.09A4.086,4.086,0,0,1,71.971,139.418Z" transform="translate(-44.025 -120.324)" fill="#1c124c"/>
                <ellipse id="Ellipse_449" data-name="Ellipse 449" cx="0.689" cy="1.209" rx="0.689" ry="1.209" transform="translate(13.804 22.129) rotate(-21.611)" fill="#1c124c"/>
              </g>
            </g>
          </g>
          <g id="Groupe_23123" data-name="Groupe 23123" transform="translate(0 0)">
            <g id="Groupe_23121" data-name="Groupe 23121">
              <rect id="Rectangle_9269" data-name="Rectangle 9269" width="58.491" height="48.276" rx="2.359" transform="matrix(0.117, -0.993, 0.993, 0.117, 0, 58.091)" fill="#fff"/>
              <g id="Groupe_23115" data-name="Groupe 23115" transform="translate(5.885 4.394)">
                <rect id="Rectangle_9270" data-name="Rectangle 9270" width="39.852" height="39.852" rx="1.324" transform="matrix(0.117, -0.993, 0.993, 0.117, 0, 39.579)" fill="#e0e7f6"/>
              </g>
              <g id="Groupe_23120" data-name="Groupe 23120" transform="translate(5.885 4.394)">
                <g id="Groupe_23119" data-name="Groupe 23119" clip-path="url(#clip-path-2)">
                  <g id="Illustration_92" data-name="Illustration 92" transform="translate(7.084 8.097)">
                    <g id="Groupe_23118" data-name="Groupe 23118">
                      <g id="Groupe_23117" data-name="Groupe 23117">
                        <path id="Tracé_85616" data-name="Tracé 85616" d="M56.9,126.228s-.206-2.331,2.669-1.7,5.589,2.084,6.669,2.04,2.377-1.463,4.95.069,4.42,3.2,3.258,7.035-4,2.071-4,2.071-.521,6.727,1.147,8.807,2.137,1.35,2.137,1.35a11.573,11.573,0,0,1-8.422,1.852,63.235,63.235,0,0,0-7.051-.975s-6.959,1.3-12.6-5.526c0,0,3.161.012,3.2-1.7s.454-9.341,2.1-11.681C52.7,125.384,55.258,124.951,56.9,126.228Z" transform="translate(-45.242 -124.419)" fill="#b4340a"/>
                        <path id="Tracé_85617" data-name="Tracé 85617" d="M55.422,159.612l-2.528.05s-7.251.153-7.757,4.579c-.31,2.71,17.83,6.471,24.5,4.057,0,0,.418-5.577-4.676-7.343A25.044,25.044,0,0,0,55.422,159.612Z" transform="translate(-45.132 -131.926)" fill="#85c0ba"/>
                        <g id="Groupe_23116" data-name="Groupe 23116" transform="translate(7.761 19.907)">
                          <path id="Tracé_85618" data-name="Tracé 85618" d="M65.4,151.8l-4.257-2.071s-.355,2.962-.62,5.009A15.884,15.884,0,0,0,65,156.763Z" transform="translate(-56.181 -149.732)" fill="#ecbfb2"/>
                          <path id="Tracé_85619" data-name="Tracé 85619" d="M63.787,158.582l.037-.459a15.884,15.884,0,0,1-4.479-2.021c-.126.974-.23,1.741-.267,1.885-.112.444-4.077.935-4.077.935.317,3.808,4.648,6.56,7.936,6.094s4.135-4.8,4.135-4.8Z" transform="translate(-55.001 -151.093)" fill="#f2ccbf"/>
                        </g>
                        <path id="Tracé_85620" data-name="Tracé 85620" d="M59.6,130.926a2.5,2.5,0,0,0,2.295,1.19c1.648-.051,4.336-1.613,6.21-1.075s3.548,1.659,3.358,4.608-1.081,2.53-.5,5.04-2.115,8.466-4.428,9.411c-2.468,1.009-5.639-.039-7.863-2.774s-3.048-4.427-2.962-5.281a1.545,1.545,0,0,1-1.512.5,2.426,2.426,0,0,1-1.572-2.427c-.013-1.144.662-2.228,1.508-1.906s1.485,1.755,1.485,1.755a4.9,4.9,0,0,0,2.987-4.4C58.811,132.146,59.6,130.926,59.6,130.926Z" transform="translate(-46.732 -125.808)" fill="#f2ccbf"/>
                        <path id="Tracé_85621" data-name="Tracé 85621" d="M65.239,140.2a4.4,4.4,0,0,1-.679,1.936c-.715.648-3.324-.623-3.422-1s.3-1.068.3-1.068l2.384-.3Z" transform="translate(-48.547 -127.696)" fill="#f2f5f7"/>
                        <path id="Tracé_85622" data-name="Tracé 85622" d="M65.012,140.812s1.033-.956-.055-1.438-3.231.525-3.981.685a13.613,13.613,0,0,0,2.248-.089C65.054,139.8,65.012,140.812,65.012,140.812Z" transform="translate(-48.516 -127.585)" fill="#131d35"/>
                        <path id="Tracé_85623" data-name="Tracé 85623" d="M74.081,141.06a3.2,3.2,0,0,1-.427,1.2c-.385.572-2.195.431-2.611.136-.363-.256-.233-.543-.193-.751a1.638,1.638,0,0,1,.87-1.088C72.312,140.271,74.081,139.551,74.081,141.06Z" transform="translate(-50.613 -127.775)" fill="#f2f5f7"/>
                        <path id="Tracé_85624" data-name="Tracé 85624" d="M71.077,141.814a1.036,1.036,0,0,0,.421.884,1.78,1.78,0,0,0,.916.08,1.026,1.026,0,0,0,.565-.895.954.954,0,1,0-1.9-.069Z" transform="translate(-50.673 -127.924)" fill="#131d35"/>
                        <path id="Tracé_85625" data-name="Tracé 85625" d="M70.88,141.265a1.613,1.613,0,0,1,.755-.975,4.6,4.6,0,0,1,1.315-.5c.348-.083,2.266-.236,1.1,1.253,0,0,.032-.879-1.468-.63S70.88,141.265,70.88,141.265Z" transform="translate(-50.631 -127.692)" fill="#131d35"/>
                        <path id="Tracé_85626" data-name="Tracé 85626" d="M61.394,141.078a.781.781,0,0,0,.049.387,4.043,4.043,0,0,0,1.435.689,1.147,1.147,0,0,0,.63-1,1.066,1.066,0,0,0-2.114-.077Z" transform="translate(-48.605 -127.786)" fill="#131d35"/>
                        <circle id="Ellipse_450" data-name="Ellipse 450" cx="0.299" cy="0.299" r="0.299" transform="translate(13.263 12.626)" fill="#f2f5f7"/>
                        <circle id="Ellipse_451" data-name="Ellipse 451" cx="0.299" cy="0.299" r="0.299" transform="translate(20.776 13.033)" fill="#f2f5f7"/>
                        <path id="Tracé_85627" data-name="Tracé 85627" d="M70.522,149.952s.279.886-.417,1.143-2.455.031-2.344-1.069C67.809,149.552,70.522,149.952,70.522,149.952Z" transform="translate(-49.964 -129.838)" fill="#e46f70"/>
                        <path id="Tracé_85628" data-name="Tracé 85628" d="M69.523,148.929l.549-.441s.808.568.759.855a.609.609,0,0,1-.694.508c-.4-.043-.489-.345-.816-.214s-2.09.606-2.611-.16a1.383,1.383,0,0,0,1.334-.373c.609-.6.665-.765.83-.643S69.523,148.929,69.523,148.929Z" transform="translate(-49.741 -129.546)" fill="#ef9a9a"/>
                        <path id="Tracé_85629" data-name="Tracé 85629" d="M71.952,136.906c.025-.063,2.528-.44,3.1.907s-.587-.242-1.526-.185S71.516,137.983,71.952,136.906Z" transform="translate(-50.839 -127.065)" fill="#b4340a"/>
                        <path id="Tracé_85630" data-name="Tracé 85630" d="M66.132,136.534c-.007-.077-2.56-1.212-3.586.14s.7-.106,1.686.226S66.262,137.868,66.132,136.534Z" transform="translate(-48.784 -126.895)" fill="#b4340a"/>
                        <path id="Tracé_85631" data-name="Tracé 85631" d="M70.954,138.4a4.119,4.119,0,0,0-.363,3.843,3.461,3.461,0,0,0,.555.81,3.148,3.148,0,0,0,.358.331,1.949,1.949,0,0,0,.2.134.347.347,0,0,1,.091.429,1.546,1.546,0,0,1-1.92.828l.116-.011a2.08,2.08,0,0,1-.9.259.638.638,0,0,1-.481-.179,1.122,1.122,0,0,1-.207-.436c-.084-.265-.094-.721.275-.838a.839.839,0,0,1,.777.391c-.206-.19-.493-.378-.746-.293s-.219.444-.132.687c.09.288.23.471.507.432a2.037,2.037,0,0,0,.763-.269l.06-.032.057.021a1.249,1.249,0,0,0,1.519-.665c.036-.068-.012-.1.04-.044a2.171,2.171,0,0,1-.224-.157,3.47,3.47,0,0,1-.391-.376,3.782,3.782,0,0,1-.587-.9,3.361,3.361,0,0,1-.226-2.09A4.077,4.077,0,0,1,70.954,138.4Z" transform="translate(-50.093 -127.405)" fill="#f1aa90"/>
                        <ellipse id="Ellipse_452" data-name="Ellipse 452" cx="0.689" cy="1.209" rx="0.689" ry="1.209" transform="translate(6.719 14.031) rotate(-21.611)" fill="#f1aa90"/>
                      </g>
                    </g>
                  </g>
                </g>
              </g>
            </g>
          </g>
        </g>
        <g id="Groupe_23138" data-name="Groupe 23138" transform="translate(37.969)">
          <g id="Groupe_23127" data-name="Groupe 23127" transform="translate(0.8 0.8)" opacity="0.1" style="mix-blend-mode: multiply;isolation: isolate">
            <rect id="Rectangle_9272" data-name="Rectangle 9272" width="58.491" height="48.276" rx="2.359" transform="translate(0 57.958) rotate(-82.258)" fill="#1c124c"/>
            <rect id="Rectangle_9273" data-name="Rectangle 9273" width="39.852" height="39.852" rx="1.324" transform="translate(6.139 43.949) rotate(-82.258)" fill="#1c124c"/>
            <g id="Groupe_23126" data-name="Groupe 23126" transform="translate(6.139 4.46)">
              <g id="Groupe_23125" data-name="Groupe 23125" clip-path="url(#clip-path-4)">
                <path id="Tracé_85632" data-name="Tracé 85632" d="M80.206,22.123s-.157-2.243,2.593-1.588,5.349,1.886,6.371,2.075c8.938,1.656,3.879,8.886,3.879,8.886S92.536,43.861,87.9,42.944a60.628,60.628,0,0,0-6.755-1.059s-6.9.958-9.871-4.642c-2.956-5.573,1.556-11.43,3.183-13.649C76.184,21.239,78.651,20.868,80.206,22.123Z" transform="translate(-59.63 -9.324)" fill="#1c124c"/>
                <path id="Tracé_85633" data-name="Tracé 85633" d="M77.992,54.158l-2.429,0s-6.42.517-7.341,2.97,16.716,6.8,23.169,4.6c0,0,.608-4.332-4.255-6.115A24.058,24.058,0,0,0,77.992,54.158Z" transform="translate(-59.179 -16.525)" fill="#1c124c"/>
                <path id="Tracé_85634" data-name="Tracé 85634" d="M87.669,46.779l-4.053-2.063s-.393,2.838-.683,4.8A15.281,15.281,0,0,0,87.2,51.536Z" transform="translate(-62.329 -14.514)" fill="#1c124c"/>
                <path id="Tracé_85635" data-name="Tracé 85635" d="M86.011,53.28l.043-.44a15.281,15.281,0,0,1-4.268-2.019c-.137.933-.252,1.669-.289,1.806-.115.425-3.932.827-3.932.827.238,3.664,4.35,6.383,7.517,5.992s4.056-4.539,4.056-4.539Z" transform="translate(-61.182 -15.818)" fill="#1c124c"/>
                <path id="Tracé_85636" data-name="Tracé 85636" d="M82.437,26.654s1.2,2.246,7.346,2.746c1.867.152,4.2-.833,3.967,2s-1.083,2.411-.565,4.833-.14,7.523-4.417,8.963a7.836,7.836,0,0,1-8.261-2.465c-2.089-2.668-2.1-4.642-2-5.461a1.484,1.484,0,0,1-1.46.452,2.329,2.329,0,0,1-1.468-2.358c.007-1.1.675-2.128,1.482-1.8s1.4,1.712,1.4,1.712A4.708,4.708,0,0,0,81.4,31.1C81.66,27.812,82.437,26.654,82.437,26.654Z" transform="translate(-60.758 -10.656)" fill="#1c124c"/>
                <path id="Tracé_85637" data-name="Tracé 85637" d="M87.736,35.637a4.224,4.224,0,0,1-.686,1.848c-.7.61-3.247.074-3.27-1.019a1.159,1.159,0,0,1,1.22-1.2l1.386-.072Z" transform="translate(-62.509 -12.481)" fill="#1c124c"/>
                <path id="Tracé_85638" data-name="Tracé 85638" d="M87.582,36.253s.656-1.377-.445-1.688a2.568,2.568,0,0,0-3.272,1.092,2.865,2.865,0,0,1,2.425-.536C87.6,35.365,87.582,36.253,87.582,36.253Z" transform="translate(-62.528 -12.309)" fill="#1c124c"/>
                <path id="Tracé_85639" data-name="Tracé 85639" d="M96.214,36.618a3.061,3.061,0,0,1-.431,1.144,1.758,1.758,0,0,1-2.51.085.664.664,0,0,1-.171-.724,1.571,1.571,0,0,1,.854-1.03C94.527,35.83,96.24,35.169,96.214,36.618Z" transform="translate(-64.492 -12.591)" fill="#1c124c"/>
                <path id="Tracé_85640" data-name="Tracé 85640" d="M93.313,37.284a1.27,1.27,0,0,0,.381.993,1.244,1.244,0,0,0,.923.193c.324-.112.5-.7.522-1.088a.917.917,0,1,0-1.827-.1Z" transform="translate(-64.545 -12.728)" fill="#1c124c"/>
                <path id="Tracé_85641" data-name="Tracé 85641" d="M93.124,36.885A1.881,1.881,0,0,1,95,35.321c1.062-.089,1.716.259,1.182,1.275,0,0,.046-.844-1.4-.631S93.124,36.885,93.124,36.885Z" transform="translate(-64.505 -12.505)" fill="#1c124c"/>
                <path id="Tracé_85642" data-name="Tracé 85642" d="M84.025,36.349a2.119,2.119,0,0,0,.038.668,2.278,2.278,0,0,0,1.253.643,1.662,1.662,0,0,0,.738-1.2,1.12,1.12,0,0,0-1-1.173A1.039,1.039,0,0,0,84.025,36.349Z" transform="translate(-62.56 -12.5)" fill="#1c124c"/>
                <circle id="Ellipse_453" data-name="Ellipse 453" cx="0.287" cy="0.287" r="0.287" transform="translate(21.926 23.222)" fill="#1c124c"/>
                <circle id="Ellipse_454" data-name="Ellipse 454" cx="0.287" cy="0.287" r="0.287" transform="translate(29.136 23.743)" fill="#1c124c"/>
                <path id="Tracé_85643" data-name="Tracé 85643" d="M92.695,45.1s.116,1.482-.562,1.7c-1.96.636-3.074-.737-2.948-1.792C89.238,44.553,92.695,45.1,92.695,45.1Z" transform="translate(-63.662 -14.538)" fill="#1c124c"/>
                <path id="Tracé_85644" data-name="Tracé 85644" d="M92.8,45.105c-.26.315-.86.188-1.362.146-.338-.028-1.969.182-2.457-.563a6.72,6.72,0,0,0,1.287-.335C92.33,43.658,93.049,44.809,92.8,45.105Z" transform="translate(-63.621 -14.39)" fill="#1c124c"/>
                <path id="Tracé_85645" data-name="Tracé 85645" d="M94.241,32.584c.026-.06,2.436-.378,2.96.925s-.56-.243-1.463-.2S93.8,33.61,94.241,32.584Z" transform="translate(-64.722 -11.906)" fill="#1c124c"/>
                <path id="Tracé_85646" data-name="Tracé 85646" d="M88.654,32.13c-.006-.074-2.438-1.208-3.447.072s.676-.09,1.615.246S88.757,33.413,88.654,32.13Z" transform="translate(-62.748 -11.712)" fill="#1c124c"/>
                <path id="Tracé_85647" data-name="Tracé 85647" d="M92.575,34.5a3.762,3.762,0,0,0-.484,3.969c.08.147.829,1.223.632,1.806-.216.643-1.384.79-1.384.79a2.771,2.771,0,0,1-1.077.243.85.85,0,0,1-.575-.2,1.129,1.129,0,0,1-.241-.457c-.1-.278-.1-.749.34-.861a1.074,1.074,0,0,1,.927.426,1.1,1.1,0,0,0-.891-.324c-.3.1-.267.454-.167.709.1.3.271.494.6.461a2.662,2.662,0,0,0,.918-.257l.072-.032.068.024a1.015,1.015,0,0,0,1.122-.681c.072-.558-.573-1.342-.667-1.523a3.065,3.065,0,0,1-.245-2.171A3.945,3.945,0,0,1,92.575,34.5Z" transform="translate(-63.708 -12.332)" fill="#1c124c"/>
                <ellipse id="Ellipse_455" data-name="Ellipse 455" cx="0.662" cy="1.161" rx="0.662" ry="1.161" transform="translate(15.621 24.453) rotate(-20.577)" fill="#1c124c"/>
                <path id="Tracé_85648" data-name="Tracé 85648" d="M73.061,44.74l5.02,1.673s2.12,6.752-4.6,5.245C69.054,50.665,69.6,46.042,73.061,44.74Z" transform="translate(-59.633 -14.519)" fill="#1c124c"/>
              </g>
            </g>
          </g>
          <g id="Groupe_23137" data-name="Groupe 23137">
            <g id="Groupe_23135" data-name="Groupe 23135">
              <rect id="Rectangle_9275" data-name="Rectangle 9275" width="58.491" height="48.276" rx="2.359" transform="translate(0 57.958) rotate(-82.258)" fill="#fff"/>
              <g id="Groupe_23129" data-name="Groupe 23129" transform="translate(6.139 4.46)">
                <rect id="Rectangle_9276" data-name="Rectangle 9276" width="39.852" height="39.852" rx="1.324" transform="translate(0 39.489) rotate(-82.258)" fill="#e0e7f6"/>
              </g>
              <g id="Groupe_23134" data-name="Groupe 23134" transform="translate(6.139 4.46)">
                <g id="Groupe_23133" data-name="Groupe 23133" clip-path="url(#clip-path-4)">
                  <g id="Groupe_23132" data-name="Groupe 23132" transform="translate(9.008 11.092)">
                    <g id="Groupe_23131" data-name="Groupe 23131">
                      <path id="Tracé_85649" data-name="Tracé 85649" d="M79.189,21.106s-.157-2.243,2.593-1.588,5.349,1.886,6.371,2.075c8.938,1.656,3.879,8.886,3.879,8.886s-.513,12.364-5.145,11.447a60.627,60.627,0,0,0-6.755-1.059s-6.9.958-9.87-4.642C67.3,30.652,71.817,24.8,73.443,22.576,75.167,20.222,77.634,19.851,79.189,21.106Z" transform="translate(-67.621 -19.399)"/>
                      <path id="Tracé_85650" data-name="Tracé 85650" d="M76.975,53.141l-2.429,0s-6.42.516-7.34,2.969,16.716,6.8,23.168,4.6c0,0,.608-4.332-4.255-6.115A24.058,24.058,0,0,0,76.975,53.141Z" transform="translate(-67.171 -26.6)" fill="#bfdedb"/>
                      <g id="Groupe_23130" data-name="Groupe 23130" transform="translate(7.375 19.11)">
                        <path id="Tracé_85651" data-name="Tracé 85651" d="M86.652,45.762,82.6,43.7s-.393,2.839-.682,4.8a15.279,15.279,0,0,0,4.267,2.02Z" transform="translate(-77.696 -43.699)" fill="#bb521b"/>
                        <path id="Tracé_85652" data-name="Tracé 85652" d="M84.994,52.263l.043-.44a15.279,15.279,0,0,1-4.267-2.02c-.138.933-.252,1.669-.289,1.806-.115.425-3.932.828-3.932.828.238,3.663,4.351,6.382,7.517,5.991s4.056-4.539,4.056-4.539Z" transform="translate(-76.549 -45.003)" fill="#be6830"/>
                      </g>
                      <path id="Tracé_85653" data-name="Tracé 85653" d="M81.42,25.637s1.2,2.246,7.346,2.746c1.867.152,4.2-.833,3.967,2s-1.083,2.411-.565,4.833-.139,7.523-4.417,8.963a7.834,7.834,0,0,1-8.261-2.465c-2.09-2.668-2.1-4.642-2-5.461a1.482,1.482,0,0,1-1.46.452,2.329,2.329,0,0,1-1.468-2.358c.007-1.1.675-2.129,1.482-1.8s1.4,1.712,1.4,1.712a4.709,4.709,0,0,0,2.945-4.172C80.643,26.8,81.42,25.637,81.42,25.637Z" transform="translate(-68.749 -20.731)" fill="#be6830"/>
                      <path id="Tracé_85654" data-name="Tracé 85654" d="M86.719,34.62a4.224,4.224,0,0,1-.686,1.848c-.7.61-3.247.074-3.269-1.019a1.158,1.158,0,0,1,1.219-1.2l1.386-.072Z" transform="translate(-70.501 -22.555)" fill="#f2f5f7"/>
                      <path id="Tracé_85655" data-name="Tracé 85655" d="M86.565,35.236s.656-1.376-.445-1.688a2.568,2.568,0,0,0-3.271,1.092,2.865,2.865,0,0,1,2.425-.536C86.581,34.348,86.565,35.236,86.565,35.236Z" transform="translate(-70.519 -22.383)" fill="#1b1b1a"/>
                      <path id="Tracé_85656" data-name="Tracé 85656" d="M95.2,35.6a3.061,3.061,0,0,1-.431,1.144,1.758,1.758,0,0,1-2.51.085.664.664,0,0,1-.171-.724,1.572,1.572,0,0,1,.854-1.03C93.51,34.813,95.223,34.152,95.2,35.6Z" transform="translate(-72.483 -22.666)" fill="#f2f5f7"/>
                      <path id="Tracé_85657" data-name="Tracé 85657" d="M92.3,36.267a1.27,1.27,0,0,0,.381.993,1.245,1.245,0,0,0,.923.193c.324-.112.5-.7.522-1.088a.917.917,0,1,0-1.827-.1Z" transform="translate(-72.537 -22.803)" fill="#1b1b1a"/>
                      <path id="Tracé_85658" data-name="Tracé 85658" d="M92.107,35.868A1.882,1.882,0,0,1,93.982,34.3c1.062-.089,1.716.259,1.182,1.275,0,0,.046-.844-1.4-.631S92.107,35.868,92.107,35.868Z" transform="translate(-72.497 -22.579)" fill="#1b1b1a"/>
                      <path id="Tracé_85659" data-name="Tracé 85659" d="M83.008,35.332a2.142,2.142,0,0,0,.038.668,2.281,2.281,0,0,0,1.253.643,1.662,1.662,0,0,0,.738-1.2,1.12,1.12,0,0,0-1-1.173A1.039,1.039,0,0,0,83.008,35.332Z" transform="translate(-70.552 -22.574)" fill="#1b1b1a"/>
                      <circle id="Ellipse_456" data-name="Ellipse 456" cx="0.287" cy="0.287" r="0.287" transform="translate(12.917 12.13)" fill="#f2f5f7"/>
                      <circle id="Ellipse_457" data-name="Ellipse 457" cx="0.287" cy="0.287" r="0.287" transform="translate(20.127 12.652)" fill="#f2f5f7"/>
                      <path id="Tracé_85660" data-name="Tracé 85660" d="M91.678,44.082s.116,1.482-.562,1.7c-1.96.636-3.074-.737-2.948-1.792C88.222,43.537,91.678,44.082,91.678,44.082Z" transform="translate(-71.653 -24.613)" fill="#d31012"/>
                      <path id="Tracé_85661" data-name="Tracé 85661" d="M91.788,44.088c-.26.315-.859.188-1.362.146-.337-.028-1.969.182-2.457-.563a6.719,6.719,0,0,0,1.287-.335C91.313,42.641,92.032,43.792,91.788,44.088Z" transform="translate(-71.613 -24.464)" fill="#d52e29"/>
                      <path id="Tracé_85662" data-name="Tracé 85662" d="M93.224,31.567c.026-.06,2.436-.378,2.96.925s-.56-.243-1.463-.2S92.787,32.594,93.224,31.567Z" transform="translate(-72.713 -21.981)"/>
                      <path id="Tracé_85663" data-name="Tracé 85663" d="M87.637,31.114c-.006-.075-2.438-1.209-3.447.072s.676-.09,1.615.246S87.74,32.4,87.637,31.114Z" transform="translate(-70.739 -21.787)"/>
                      <path id="Tracé_85664" data-name="Tracé 85664" d="M91.558,33.482a3.763,3.763,0,0,0-.484,3.97c.081.146.829,1.223.632,1.8-.216.643-1.384.79-1.384.79a2.757,2.757,0,0,1-1.077.243.85.85,0,0,1-.575-.2,1.129,1.129,0,0,1-.241-.457c-.1-.278-.1-.749.341-.86a1.071,1.071,0,0,1,.926.425,1.1,1.1,0,0,0-.891-.324c-.3.1-.267.454-.167.709.1.3.271.494.6.461a2.662,2.662,0,0,0,.918-.257l.072-.032.068.024a1.016,1.016,0,0,0,1.122-.682c.072-.558-.573-1.342-.667-1.523a3.065,3.065,0,0,1-.245-2.171A3.945,3.945,0,0,1,91.558,33.482Z" transform="translate(-71.7 -22.407)" fill="#bb521b"/>
                      <ellipse id="Ellipse_458" data-name="Ellipse 458" cx="0.662" cy="1.161" rx="0.662" ry="1.161" transform="translate(6.612 13.362) rotate(-20.577)" fill="#bb521b"/>
                    </g>
                    <path id="Tracé_85665" data-name="Tracé 85665" d="M72.044,43.723l5.02,1.674s2.12,6.752-4.6,5.245C68.037,49.648,68.584,45.025,72.044,43.723Z" transform="translate(-67.625 -24.594)"/>
                  </g>
                </g>
              </g>
            </g>
          </g>
        </g>
        <g id="Groupe_23153" data-name="Groupe 23153" transform="translate(0 31.157)">
          <g id="Groupe_23141" data-name="Groupe 23141" transform="translate(0.8 0.8)" opacity="0.1" style="mix-blend-mode: multiply;isolation: isolate">
            <rect id="Rectangle_9278" data-name="Rectangle 9278" width="48.276" height="58.491" rx="2.359" transform="translate(0 6.406) rotate(-7.626)" fill="#1c124c"/>
            <rect id="Rectangle_9279" data-name="Rectangle 9279" width="39.852" height="39.852" rx="1.324" transform="translate(4.681 9.745) rotate(-7.626)" fill="#1c124c"/>
            <g id="Groupe_23140" data-name="Groupe 23140" transform="translate(4.681 4.457)">
              <g id="Groupe_23139" data-name="Groupe 23139" clip-path="url(#clip-path-6)">
                <path id="Tracé_85666" data-name="Tracé 85666" d="M35.559,97.249c-.2.028-4.835,1.791-8.154,3.059a19.933,19.933,0,0,0,18.344-2.732l-.052-.143Z" transform="translate(-11.042 -56.888)" fill="#1c124c"/>
                <path id="Tracé_85667" data-name="Tracé 85667" d="M34.194,91.021l.676,5.765a2.168,2.168,0,0,0,2.478,1.175c1.993-.211,1.261-1.676,1.261-1.676l-.4-4.532Z" transform="translate(-12.492 -55.558)" fill="#1c124c"/>
                <path id="Tracé_85668" data-name="Tracé 85668" d="M24.937,74.509a2.482,2.482,0,0,0-2.9-.253c-1.822.868-.724,3.827.487,5.156.746.819,3.04,1.256,3.823-1.4A2.7,2.7,0,0,0,24.937,74.509Z" transform="translate(-9.689 -51.906)" fill="#1c124c"/>
                <path id="Tracé_85669" data-name="Tracé 85669" d="M44.36,69.524s.222-1.37,1.375-1.313,1.563,4.712,1.1,5.334c-.2.267-.936.239-1.278-.559Z" transform="translate(-14.663 -50.685)" fill="#1c124c"/>
                <path id="Tracé_85670" data-name="Tracé 85670" d="M40.877,65.158l1.869,9.26-.816,2.176-11.323.176s-3.359-3.159-3.929-3.927a7.835,7.835,0,0,0-.635-.79l-.512-6.928s4.454-2.1,4.534-2.111,5.783-.93,5.783-.93l2.788.275Z" transform="translate(-10.642 -49.377)" fill="#1c124c"/>
                <path id="Tracé_85671" data-name="Tracé 85671" d="M24.359,69.85a8.341,8.341,0,0,0-4.444-3.336c-3.387-1.3-1.706-3.168-.863-3.15s3.2,1.1,2.417-2.246.435-7.011,2.263-7.085,1.2,3.693,3.777,3.333.062-5.551,3.713-5.744c1.692-.1.462,3.3,2.33,4.626s4.215-2.907,4.215-2.907,1.77-.112.8,1.932-1.211,3.349-.2,3.8,1.816.155,1.419,1.663.242,6.053.242,6.053-1.029-5.079-2.99-5.577S28.721,61.193,26,63.8c-1.787,1.71-.319,5.223-.319,5.223Z" transform="translate(-9.008 -47.142)" fill="#1c124c"/>
                <path id="Tracé_85672" data-name="Tracé 85672" d="M32.85,67.311l.271.64s-1.2-.039-2.125,1.762c0,0-.59-.109-.565-.333A2.714,2.714,0,0,1,32.85,67.311Z" transform="translate(-11.688 -50.494)" fill="#1c124c"/>
                <path id="Tracé_85673" data-name="Tracé 85673" d="M40.837,65.991l-.006.635s1-.451,2.41.745c0,0,.46-.3.362-.478A2.481,2.481,0,0,0,40.837,65.991Z" transform="translate(-13.909 -50.192)" fill="#1c124c"/>
                <path id="Tracé_85674" data-name="Tracé 85674" d="M27.716,74.293l.24.4-1.181.6-.245-.3Z" transform="translate(-10.855 -51.985)" fill="#1c124c"/>
                <path id="Tracé_85675" data-name="Tracé 85675" d="M27.112,75.8l1.131-.479a5.849,5.849,0,0,0,5.4,4.015c4.245.11,3.76-2.411,3.76-2.411l1.571-.22s1.641,2.36,3.942-.3c0,0,3.3.972,2.715,3.756l.8-.112A6.054,6.054,0,0,1,45.194,83.8l1.288-.18s-1.1,4.923-8.308,5.75-9.658-6.007-9.658-6.007l-.293-.319-.3.675a4.251,4.251,0,0,1-.608-3.8A6.547,6.547,0,0,0,27.112,75.8Z" transform="translate(-10.979 -52.204)" fill="#1c124c"/>
                <path id="Tracé_85676" data-name="Tracé 85676" d="M32.735,81.347a15.652,15.652,0,0,0,2.576.571l-.459.473a3.432,3.432,0,0,0,1.572-.22.688.688,0,0,1-.182.571.792.792,0,0,0,.69-.506,1.26,1.26,0,0,0,1.044.513l-.068-.49s.517.314,2.526.032c0,0-.433,2.718-4.191,2.517S32.735,81.347,32.735,81.347Z" transform="translate(-12.179 -53.491)" fill="#1c124c"/>
                <ellipse id="Ellipse_459" data-name="Ellipse 459" cx="1.496" cy="1.811" rx="1.496" ry="1.811" transform="translate(20.056 19.07) rotate(-8.033)" fill="#1c124c"/>
                <ellipse id="Ellipse_460" data-name="Ellipse 460" cx="1.09" cy="1.32" rx="1.09" ry="1.32" transform="translate(20.377 19.52) rotate(-8.033)" fill="#1c124c"/>
                <ellipse id="Ellipse_461" data-name="Ellipse 461" cx="1.368" cy="1.655" rx="1.368" ry="1.655" transform="translate(26.743 18.036) rotate(-8.033)" fill="#1c124c"/>
                <ellipse id="Ellipse_462" data-name="Ellipse 462" cx="0.963" cy="1.262" rx="0.963" ry="1.262" transform="matrix(0.99, -0.14, 0.14, 0.99, 26.989, 18.412)" fill="#1c124c"/>
                <ellipse id="Ellipse_463" data-name="Ellipse 463" cx="1.665" cy="1.439" rx="1.665" ry="1.439" transform="translate(25.389 22.408) rotate(-7.902)" fill="#1c124c"/>
                <path id="Tracé_85677" data-name="Tracé 85677" d="M38.2,74.828a1.563,1.563,0,0,0-.586.453.443.443,0,0,0,.033.595c.289.32.865.142,1.3-.027l.109-.042.075.1a1.575,1.575,0,0,0,1.662.473,1.414,1.414,0,0,0,1.095-1.257c.025-.283-.177-.488-.423-.714s-.51-.418-.78-.62a4.687,4.687,0,0,1-1.436-1.42,5.589,5.589,0,0,0,1.578,1.227c.286.182.576.362.852.579a1.218,1.218,0,0,1,.564.944,1.715,1.715,0,0,1-1.35,1.616,1.9,1.9,0,0,1-2.02-.645l.184.053a3.025,3.025,0,0,1-.79.157.872.872,0,0,1-.78-.3.586.586,0,0,1,.05-.774A1.627,1.627,0,0,1,38.2,74.828Z" transform="translate(-13.168 -51.573)" fill="#1c124c"/>
                <path id="Tracé_85678" data-name="Tracé 85678" d="M24.495,73.461l-.568-.039,2.347-1.781.266.268Z" transform="translate(-10.299 -51.418)" fill="#1c124c"/>
                <path id="Tracé_85679" data-name="Tracé 85679" d="M45.7,67.589l1.14-.865.266.268-1.367,1.037Z" transform="translate(-14.949 -50.368)" fill="#1c124c"/>
                <path id="Tracé_85680" data-name="Tracé 85680" d="M43.354,66.918l-.036-.153c-.3-1.278-.516-2.2-2.572-2.424-2.365-.256-4.985.069-5.241,1.751a4.791,4.791,0,0,0,.02,1.274,1.064,1.064,0,0,0-.3.086c0-.009-.008-.022-.012-.032a2.7,2.7,0,0,0-1.576-1.68c-1.729-.508-5.779.907-6.67,2.331-.511.818-.392,2.631.27,4.131A3.474,3.474,0,0,0,29.6,74.446a8.152,8.152,0,0,0,1.45.136,4.388,4.388,0,0,0,4.133-2.163,6.27,6.27,0,0,0,.237-4.41.447.447,0,0,1,.2-.064,6.334,6.334,0,0,0,1.184,2.665,5.689,5.689,0,0,0,4.056,1.907A2.215,2.215,0,0,0,42.12,72.2C43.237,71.424,43.824,68.906,43.354,66.918Zm-8.694,5.227c-.783,1.5-2.634,2.141-4.957,1.72-1.026-.186-1.648-1.272-1.927-1.9a4.7,4.7,0,0,1-.309-3.579c.606-.969,3.463-2.171,5.256-2.171a2.65,2.65,0,0,1,.746.093,2.175,2.175,0,0,1,1.2,1.344A5.822,5.822,0,0,1,34.661,72.146Zm7.123-.43c-.779.538-3.213.069-4.523-1.486a6.129,6.129,0,0,1-1.172-4.048c.143-.945,1.6-1.327,3.269-1.327a12.222,12.222,0,0,1,1.325.074c1.64.178,1.772.74,2.06,1.972l.036.153C43.227,68.942,42.6,71.148,41.784,71.715Z" transform="translate(-10.881 -49.843)" fill="#1c124c"/>
                <ellipse id="Ellipse_464" data-name="Ellipse 464" cx="1.572" cy="2.008" rx="1.572" ry="2.008" transform="translate(12.108 23.962) rotate(-27.391)" fill="#1c124c"/>
                <circle id="Ellipse_465" data-name="Ellipse 465" cx="0.307" cy="0.307" r="0.307" transform="translate(21.508 19.875)" fill="#1c124c"/>
                <circle id="Ellipse_466" data-name="Ellipse 466" cx="0.307" cy="0.307" r="0.307" transform="translate(27.955 18.702)" fill="#1c124c"/>
              </g>
            </g>
          </g>
          <g id="Groupe_23152" data-name="Groupe 23152" transform="translate(0 0)">
            <g id="Groupe_23150" data-name="Groupe 23150">
              <rect id="Rectangle_9281" data-name="Rectangle 9281" width="48.276" height="58.491" rx="2.359" transform="translate(0 6.406) rotate(-7.626)" fill="#fff"/>
              <g id="Groupe_23143" data-name="Groupe 23143" transform="translate(4.681 4.457)">
                <rect id="Rectangle_9282" data-name="Rectangle 9282" width="39.852" height="39.852" rx="1.324" transform="translate(0 5.289) rotate(-7.626)" fill="#e0e7f6"/>
              </g>
              <g id="Groupe_23149" data-name="Groupe 23149" transform="translate(4.681 4.457)">
                <g id="Groupe_23148" data-name="Groupe 23148" clip-path="url(#clip-path-6)">
                  <g id="Groupe_23147" data-name="Groupe 23147" transform="translate(8.875 4.477)">
                    <g id="Groupe_23144" data-name="Groupe 23144" transform="translate(7.488 35.884)">
                      <path id="Tracé_85681" data-name="Tracé 85681" d="M34.542,96.232c-.2.028-4.835,1.791-8.154,3.059a19.929,19.929,0,0,0,18.345-2.732l-.053-.143Z" transform="translate(-26.388 -96.232)" fill="#fff"/>
                    </g>
                    <path id="Tracé_85682" data-name="Tracé 85682" d="M33.177,90l.676,5.765a2.168,2.168,0,0,0,2.478,1.175c1.993-.211,1.261-1.675,1.261-1.675l-.4-4.533Z" transform="translate(-20.35 -59.018)" fill="#f1aa90"/>
                    <path id="Tracé_85683" data-name="Tracé 85683" d="M23.92,73.492a2.483,2.483,0,0,0-2.9-.252c-1.822.868-.724,3.826.487,5.156.746.819,3.04,1.255,3.823-1.4A2.7,2.7,0,0,0,23.92,73.492Z" transform="translate(-17.547 -55.367)" fill="#f1aa90"/>
                    <path id="Tracé_85684" data-name="Tracé 85684" d="M43.343,68.507s.222-1.37,1.375-1.313,1.562,4.713,1.1,5.334c-.2.267-.937.24-1.279-.559Z" transform="translate(-22.521 -54.145)" fill="#f1aa90"/>
                    <path id="Tracé_85685" data-name="Tracé 85685" d="M39.86,64.141l1.869,9.26-.816,2.176-11.323.176s-3.359-3.159-3.929-3.927a7.812,7.812,0,0,0-.635-.791l-.512-6.928s4.454-2.1,4.534-2.111,5.783-.93,5.783-.93l2.788.275Z" transform="translate(-18.5 -52.838)" fill="#f2ccbf"/>
                    <path id="Tracé_85686" data-name="Tracé 85686" d="M23.342,68.833A8.337,8.337,0,0,0,18.9,65.5c-3.387-1.3-1.706-3.168-.862-3.15s3.2,1.1,2.417-2.246.434-7.011,2.263-7.085,1.2,3.693,3.778,3.333.061-5.551,3.712-5.744c1.692-.1.462,3.3,2.33,4.626s4.215-2.907,4.215-2.907,1.77-.112.8,1.933-1.211,3.349-.2,3.8,1.816.155,1.419,1.664.243,6.052.243,6.052-1.029-5.079-2.991-5.577-8.312-.018-11.037,2.59c-1.787,1.709-.318,5.223-.318,5.223Z" transform="translate(-16.866 -50.602)" fill="#fb7b3c"/>
                    <path id="Tracé_85687" data-name="Tracé 85687" d="M31.833,66.294l.271.64S30.9,66.9,29.979,68.7c0,0-.59-.109-.565-.333A2.715,2.715,0,0,1,31.833,66.294Z" transform="translate(-19.546 -53.954)" fill="#fb7b3c"/>
                    <path id="Tracé_85688" data-name="Tracé 85688" d="M39.82,64.974l-.006.635s1-.451,2.41.745c0,0,.46-.3.362-.478A2.481,2.481,0,0,0,39.82,64.974Z" transform="translate(-21.768 -53.652)" fill="#fb7b3c"/>
                    <path id="Tracé_85689" data-name="Tracé 85689" d="M26.7,73.277l.24.4-1.181.6-.245-.3Z" transform="translate(-18.713 -55.445)" fill="#f60"/>
                    <path id="Tracé_85690" data-name="Tracé 85690" d="M26.095,74.781l1.131-.479a5.849,5.849,0,0,0,5.4,4.015c4.245.11,3.76-2.411,3.76-2.411l1.571-.219s1.641,2.359,3.942-.3c0,0,3.3.972,2.716,3.756l.8-.112a6.048,6.048,0,0,1-1.232,3.761l1.288-.18s-1.1,4.923-8.308,5.751S27.5,82.35,27.5,82.35l-.293-.32-.3.675a4.25,4.25,0,0,1-.609-3.8A6.547,6.547,0,0,0,26.095,74.781Z" transform="translate(-18.837 -55.664)" fill="#fb7b3c"/>
                    <path id="Tracé_85691" data-name="Tracé 85691" d="M31.718,80.331a15.681,15.681,0,0,0,2.576.57l-.458.473a3.43,3.43,0,0,0,1.571-.22.688.688,0,0,1-.182.571.792.792,0,0,0,.69-.506,1.26,1.26,0,0,0,1.044.513l-.068-.49s.517.314,2.526.032c0,0-.433,2.718-4.191,2.517S31.718,80.331,31.718,80.331Z" transform="translate(-20.038 -56.952)" fill="#fff"/>
                    <ellipse id="Ellipse_467" data-name="Ellipse 467" cx="1.496" cy="1.811" rx="1.496" ry="1.811" transform="translate(11.18 14.593) rotate(-8.033)" fill="#fff"/>
                    <ellipse id="Ellipse_468" data-name="Ellipse 468" cx="1.09" cy="1.32" rx="1.09" ry="1.32" transform="translate(11.502 15.043) rotate(-8.033)" fill="#131d35"/>
                    <ellipse id="Ellipse_469" data-name="Ellipse 469" cx="1.368" cy="1.655" rx="1.368" ry="1.655" transform="translate(17.868 13.559) rotate(-8.033)" fill="#fff"/>
                    <ellipse id="Ellipse_470" data-name="Ellipse 470" cx="0.963" cy="1.262" rx="0.963" ry="1.262" transform="matrix(0.99, -0.14, 0.14, 0.99, 18.114, 13.935)" fill="#131d35"/>
                    <ellipse id="Ellipse_471" data-name="Ellipse 471" cx="1.665" cy="1.439" rx="1.665" ry="1.439" transform="translate(16.514 17.931) rotate(-7.902)" fill="#f2ccbf"/>
                    <path id="Tracé_85692" data-name="Tracé 85692" d="M37.184,73.811a1.57,1.57,0,0,0-.586.453.443.443,0,0,0,.033.595c.289.32.865.142,1.3-.027l.109-.042.075.1a1.575,1.575,0,0,0,1.662.473,1.415,1.415,0,0,0,1.1-1.257c.024-.283-.178-.488-.424-.714s-.51-.418-.78-.62a4.685,4.685,0,0,1-1.436-1.419,5.587,5.587,0,0,0,1.578,1.226c.286.182.576.362.852.579a1.218,1.218,0,0,1,.564.944,1.715,1.715,0,0,1-1.35,1.616,1.9,1.9,0,0,1-2.02-.645l.184.053a3.025,3.025,0,0,1-.79.157.872.872,0,0,1-.78-.3.587.587,0,0,1,.05-.774A1.627,1.627,0,0,1,37.184,73.811Z" transform="translate(-21.027 -55.033)" fill="#f1aa90"/>
                    <g id="Groupe_23145" data-name="Groupe 23145" transform="translate(4.753 15.745)">
                      <path id="Tracé_85693" data-name="Tracé 85693" d="M23.478,72.444,22.91,72.4l2.347-1.781.266.268Z" transform="translate(-22.91 -70.624)" fill="#445473"/>
                    </g>
                    <g id="Groupe_23146" data-name="Groupe 23146" transform="translate(21.873 11.879)">
                      <path id="Tracé_85694" data-name="Tracé 85694" d="M44.68,66.572l1.14-.865.266.268L44.72,67.012Z" transform="translate(-44.68 -65.707)" fill="#445473"/>
                    </g>
                    <path id="Tracé_85695" data-name="Tracé 85695" d="M42.337,65.9l-.036-.152c-.3-1.278-.516-2.2-2.572-2.425-2.364-.256-4.985.069-5.241,1.751a4.785,4.785,0,0,0,.02,1.273,1.045,1.045,0,0,0-.3.087c0-.01-.007-.023-.012-.032a2.692,2.692,0,0,0-1.576-1.681c-1.729-.508-5.779.907-6.67,2.331-.511.818-.392,2.631.271,4.131a3.471,3.471,0,0,0,2.362,2.244,8.138,8.138,0,0,0,1.449.136A4.388,4.388,0,0,0,34.166,71.4a6.27,6.27,0,0,0,.237-4.41.447.447,0,0,1,.2-.064,6.325,6.325,0,0,0,1.185,2.665A5.686,5.686,0,0,0,39.848,71.5a2.215,2.215,0,0,0,1.255-.317C42.22,70.407,42.807,67.889,42.337,65.9Zm-8.694,5.227c-.783,1.5-2.634,2.141-4.957,1.72-1.026-.186-1.648-1.272-1.927-1.9a4.7,4.7,0,0,1-.308-3.579c.6-.969,3.462-2.171,5.255-2.171a2.65,2.65,0,0,1,.746.093,2.175,2.175,0,0,1,1.2,1.344A5.819,5.819,0,0,1,33.644,71.129Zm7.123-.43c-.779.538-3.213.069-4.523-1.486a6.129,6.129,0,0,1-1.172-4.048c.143-.945,1.6-1.327,3.269-1.327a12.412,12.412,0,0,1,1.325.074c1.64.178,1.772.74,2.06,1.972l.036.153C42.21,67.925,41.583,70.131,40.767,70.7Z" transform="translate(-18.739 -53.303)" fill="#445473"/>
                    <ellipse id="Ellipse_472" data-name="Ellipse 472" cx="1.572" cy="2.008" rx="1.572" ry="2.008" transform="translate(3.233 19.485) rotate(-27.391)" fill="#f2ccbf"/>
                    <circle id="Ellipse_473" data-name="Ellipse 473" cx="0.307" cy="0.307" r="0.307" transform="translate(12.632 15.398)" fill="#fff"/>
                    <circle id="Ellipse_474" data-name="Ellipse 474" cx="0.307" cy="0.307" r="0.307" transform="translate(19.08 14.225)" fill="#fff"/>
                  </g>
                </g>
              </g>
            </g>
          </g>
        </g>
      </g>
    </g>
    <g id="aj" transform="matrix(0.914, -0.407, 0.407, 0.914, 796.053, 88.359)">
      <g id="aj-2" data-name="aj" transform="translate(-23.053 -21.624)">
        <g id="ak" transform="translate(0.373)" opacity="0.1">
          <path id="al" d="M28.7,5.918l.942-.133,2.3,15.942a4.378,4.378,0,0,1-8.666,1.253h0l-1.6-11.06.94-.141,1.6,11.062a3.424,3.424,0,1,0,6.795-.859c-.008-.04-.008-.083-.016-.122L28.7,5.918Z" transform="translate(-8.792 -2.246)" fill="#1d144c"/>
          <path id="am" d="M25.015.037A4.081,4.081,0,0,1,29.6,3.531l-.943.133a3.089,3.089,0,0,0-6.141.664c.006.074.019.145.03.221l-.931.11a4.1,4.1,0,0,1,3.4-4.627h0Z" transform="translate(-8.747 0)" fill="#1d144c"/>
          <path id="an" d="M21.587,7.58l.931-.111L23.9,16.791a2.561,2.561,0,0,0,5.081-.649c-.006-.031-.006-.059-.011-.091L27.85,8.271l.931-.11L29.9,15.936a3.518,3.518,0,1,1-6.914,1.3c-.017-.094-.03-.193-.043-.292L21.581,7.577Z" transform="translate(-8.751 -2.9)" fill="#1d144c"/>
          <path id="ao" d="M9.732,35.883l8.178,13.8a4.5,4.5,0,0,1,.512,3.375,4.4,4.4,0,0,1-1.98,2.749,4.309,4.309,0,0,1-3.313.5,4.4,4.4,0,0,1-2.7-2.034L4.759,44.709l.831-.488,5.683,9.55a3.441,3.441,0,0,0,2.108,1.59,3.346,3.346,0,0,0,2.592-.37A3.523,3.523,0,0,0,17.118,50.2L8.926,36.391l.8-.511Z" transform="translate(-2.221 -13.928)" fill="#1d144c"/>
          <path id="ap" d="M4.078,32.666a4.045,4.045,0,0,1,4.049,1.957l-.835.494a3.063,3.063,0,0,0-4.187-1.11l-.051.031A3.171,3.171,0,0,0,2.026,38.36l-.831.488a4.154,4.154,0,0,1,1.357-5.641,3.946,3.946,0,0,1,1.529-.532h0Z" transform="translate(-0.61 -12.665)" fill="#1d144c"/>
          <path id="aq" d="M8.405,39l4,6.735a3.636,3.636,0,0,1-1.183,4.919,3.5,3.5,0,0,1-4.8-1.179c-.006-.017-.02-.031-.025-.048L1.6,41.339l.831-.488L7.2,48.921a2.541,2.541,0,0,0,3.476.926c.012-.009.032-.02.043-.028a2.635,2.635,0,0,0,.86-3.582l-4-6.741L8.4,39Z" transform="translate(-0.994 -15.139)" fill="#1d144c"/>
          <path id="ar" d="M57.158,39.112a4.471,4.471,0,0,1,2.007,8.665L48.738,51.222l-.292-.923,10.427-3.445a3.5,3.5,0,0,0,2.189-4.393,3.435,3.435,0,0,0-4.3-2.268.084.084,0,0,1-.031.006L41.72,45.126l-.3-.921,15-4.934a5.167,5.167,0,0,1,.727-.171h0Z" transform="translate(-16.452 -15.169)" fill="#1d144c"/>
          <path id="as" d="M39.662,47.482l.295.918a3.073,3.073,0,0,0-1.794,1.557,3.157,3.157,0,0,0-.177,2.407,3.112,3.112,0,0,0,3.9,2.029l.292.924a4.046,4.046,0,0,1-5.083-2.624l-.011-.034a4.152,4.152,0,0,1,.232-3.147,4.006,4.006,0,0,1,2.344-2.039Z" transform="translate(-14.688 -18.429)" fill="#1d144c"/>
          <path id="at" d="M52.262,44.178a3.469,3.469,0,0,1,2.091.365,3.61,3.61,0,0,1-.493,6.6l-8.8,2.894-.292-.923,8.787-2.891a2.629,2.629,0,0,0,.359-4.811,2.515,2.515,0,0,0-1.955-.168l-7.327,2.41-.306-.909,7.332-2.422a3.972,3.972,0,0,1,.6-.138h0Z" transform="translate(-17.582 -17.137)" fill="#1d144c"/>
        </g>
        <path id="au" d="M28.1,7.106,29.034,7l2.3,15.942a4.375,4.375,0,0,1-8.578,1.724c-.031-.165-.058-.335-.073-.5L21.077,13.126l.939-.142,1.6,11.068a3.424,3.424,0,1,0,6.795-.86c-.008-.04-.008-.082-.016-.122L28.1,7.106Z" transform="translate(-8.182 -2.716)" fill="#cc44b8"/>
        <path id="av" d="M24.407,1.256a4.081,4.081,0,0,1,4.584,3.495l-.931.111a3.086,3.086,0,0,0-6.108.88l-.931.11a4.092,4.092,0,0,1,3.382-4.6h0Z" transform="translate(-8.144 -0.474)" fill="#cc44b8"/>
        <path id="aw" d="M20.983,8.772l.931-.111L23.3,17.983a2.562,2.562,0,0,0,5.07-.739L27.249,9.472l.945-.138,1.12,7.78a3.513,3.513,0,0,1-6.947,1.06c0-.023-.008-.04-.011-.062L20.98,8.763Z" transform="translate(-8.144 -3.362)" fill="#cc44b8"/>
        <path id="ax" d="M9.121,37.087l8.178,13.8a4.507,4.507,0,0,1,.512,3.375,4.367,4.367,0,0,1-1.98,2.749,4.3,4.3,0,0,1-3.312.5,4.4,4.4,0,0,1-2.7-2.033L4.148,45.912l.831-.488L10.671,55a3.443,3.443,0,0,0,2.108,1.59,3.354,3.354,0,0,0,2.6-.395,3.524,3.524,0,0,0,1.145-4.789l-8.2-13.8.8-.511Z" transform="translate(-1.61 -14.397)" fill="#ffb732"/>
        <path id="ay" d="M3.468,33.868a4.043,4.043,0,0,1,4.048,1.957l-.834.494A3.062,3.062,0,0,0,2.5,35.209c-.02.011-.031.02-.051.031a3.171,3.171,0,0,0-1.028,4.321l-.831.488a4.154,4.154,0,0,1,1.357-5.641,3.945,3.945,0,0,1,1.529-.532h0Z" transform="translate(0 -13.132)" fill="#ffb732"/>
        <path id="az" d="M7.8,40.191l4,6.735a3.635,3.635,0,0,1-1.183,4.919A3.488,3.488,0,0,1,5.83,50.678l-.034-.06-4.8-8.088.831-.488,4.77,8.07a2.542,2.542,0,0,0,3.477.926l.043-.028a2.634,2.634,0,0,0,.859-3.582l-4-6.741L7.8,40.2Z" transform="translate(-0.385 -15.602)" fill="#ffb732"/>
        <path id="ba" d="M56.554,40.313a4.471,4.471,0,0,1,2.007,8.666L48.133,52.424l-.292-.924,10.425-3.44a3.5,3.5,0,0,0,2.188-4.393,3.442,3.442,0,0,0-4.3-2.264l-.017.006L41.119,46.336l-.295-.918,15-4.934a5.2,5.2,0,0,1,.727-.171Z" transform="translate(-15.847 -15.636)" fill="#0792c9"/>
        <path id="bb" d="M39.057,48.683l.295.918a3.069,3.069,0,0,0-1.794,1.557,3.152,3.152,0,0,0,3.73,4.419l.292.924A4.047,4.047,0,0,1,36.5,53.876l-.011-.034a4.152,4.152,0,0,1,.232-3.147,3.988,3.988,0,0,1,2.335-2.022Z" transform="translate(-14.084 -18.895)" fill="#0792c9"/>
        <path id="bc" d="M51.655,45.379a3.469,3.469,0,0,1,2.091.365,3.61,3.61,0,0,1-.493,6.6l-8.8,2.895-.292-.924,8.787-2.891a2.628,2.628,0,0,0,.359-4.81,2.512,2.512,0,0,0-1.956-.168l-7.326,2.409-.3-.921,7.333-2.421a3.829,3.829,0,0,1,.59-.127h0Z" transform="translate(-16.975 -17.603)" fill="#0792c9"/>
      </g>
    </g>
    <g id="Illustration_148" data-name="Illustration 148" transform="matrix(-0.996, -0.087, 0.087, -0.996, 776.19, 38.692)">
      <g id="Groupe_23157" data-name="Groupe 23157" transform="translate(-35.863 -63.183)">
        <g id="Groupe_23156" data-name="Groupe 23156" transform="translate(0 9.467)">
          <g id="Groupe_23155" data-name="Groupe 23155" transform="translate(0 0)">
            <path id="Tracé_85696" data-name="Tracé 85696" d="M23.346,80.53a7.725,7.725,0,0,0-.557-4.019L20.125,79l-.514-1.609-1.11.591L16.718,81.2a6.2,6.2,0,0,0-.7-2.824,16.859,16.859,0,0,1-2.763,2.091l-1.538-6.2c-.739,1.079-2.592.614-3.249-.517a5.911,5.911,0,0,1-.3-3.834l-3.048,2.5q-.268-1.7-.535-3.4L2.167,71.751A19.606,19.606,0,0,1,1.421,67.4l-.914.093a10.709,10.709,0,0,0,.362-1.055c2.56-9.256,2.155-13.251,1.346-22.782C1.4,33.995-1.738,29.927,1.3,22.8c3.142-7.378,11.9-3.029,17.057.911s10.527,17.18,11.424,30.414c.367,5.417-.865,13.2-2.878,21.206-.009-.222-.014-.444-.025-.666A58.531,58.531,0,0,0,23.346,80.53Z" transform="translate(41.882 -18.795)" fill="#e5edf9"/>
            <path id="Tracé_85697" data-name="Tracé 85697" d="M48.907,111.355a19.606,19.606,0,0,0,.745,4.351l2.419-2.742q.268,1.7.535,3.4l3.048-2.5a5.911,5.911,0,0,0,.3,3.834c.657,1.131,2.51,1.6,3.249.517l1.538,6.2a16.858,16.858,0,0,0,2.763-2.091,6.2,6.2,0,0,1,.7,2.824l1.783-3.215,1.11-.591.514,1.609,2.665-2.489a7.725,7.725,0,0,1,.557,4.019,58.528,58.528,0,0,1,3.531-5.869c.011.222.016.444.025.666-2.9,11.549-7.433,23.547-11.127,29.512-6.254,10.1-20.429,30.856-20.429,30.856L5.6,164.849s38.429-43.405,42.39-53.4Z" transform="translate(-5.603 -62.75)" fill="#101b2f"/>
          </g>
          <path id="Tracé_85698" data-name="Tracé 85698" d="M38.8,30.91s-3.23-4.55-8.643-3.44c-1.121.231-2.8,1-3.212,4.388" transform="translate(18.783 -22.832)" fill="none" stroke="#d7e3f4" stroke-miterlimit="10" stroke-width="1.05"/>
          <path id="Tracé_85699" data-name="Tracé 85699" d="M53.1,40.435a3.978,3.978,0,0,0,1.6-4.029c-.467-2.736-.717-4.41-1.642-4.634s-1.556,1.1-1.26,3.17S51.869,40.567,53.1,40.435Z" transform="translate(-10.212 -24.946)" fill="#eeb2ca"/>
          <path id="Tracé_85700" data-name="Tracé 85700" d="M49.1,45.463a3.979,3.979,0,0,0,1.6-4.029c-.467-2.736-.717-4.409-1.642-4.634s-1.556,1.1-1.26,3.17S47.866,45.594,49.1,45.463Z" transform="translate(-4.107 -27.334)" fill="#fcbbd5"/>
          <path id="Tracé_85701" data-name="Tracé 85701" d="M47.715,55.974a1.81,1.81,0,0,1,1.622-1.8l.037,0c1.244-.088,2.292,4.256,1.372,6.657-.634,1.655-1.675,1.817-2.454.835C47.71,60.935,47.689,57.61,47.715,55.974Z" transform="translate(-4.422 -35.596)" fill="#fcbbd5"/>
        </g>
        <path id="Tracé_85702" data-name="Tracé 85702" d="M27.313,5.467s-3.468-6.6-9.253-4.158" transform="translate(34.93 -0.768)" fill="none" stroke="#6c7c9d" stroke-miterlimit="10" stroke-width="1.05"/>
        <path id="Tracé_85703" data-name="Tracé 85703" d="M29,13.369s-4.57-8.691-12.191-5.479" transform="translate(33.903 -3.812)" fill="none" stroke="#6c7c9d" stroke-miterlimit="10" stroke-width="1.05"/>
      </g>
    </g>
    <g id="Illustration_64" data-name="Illustration 64" transform="translate(909.93 28.738) rotate(16)">
      <g id="Groupe_23220" data-name="Groupe 23220" transform="translate(-75.98 -88.194)">
        <g id="Groupe_23201" data-name="Groupe 23201" transform="translate(6.261 4.696)" opacity="0.14" style="mix-blend-mode: multiply;isolation: isolate">
          <circle id="Ellipse_478" data-name="Ellipse 478" cx="60.725" cy="60.725" r="60.725" transform="translate(20.047 25.121)" fill="#1c124c"/>
          <path id="Tracé_85765" data-name="Tracé 85765" d="M84.227,122.624c-2.66-.3-4.884,3.17-7.728,3.264-1.789.061-3.294-1.223-4.784-2.215s-3.563-1.719-4.979-.626c-.43.332-.765.814-1.277.994-.872.308-1.742-.377-2.5-.911-4.479-3.175-11.565-2.447-14.55-7.055-.424-.654-.809-1.45-1.558-1.67-.986-.291-1.936.6-2.963.651-2.763.142-2.619-4.809-5.136-5.958-1.21-.554-2.94-.152-3.674-1.262-.493-.744-.2-1.727-.189-2.617.038-4.4-6.848-6.382-6.864-10.782,0-.853.274-1.683.346-2.533.362-4.225-4.233-8.073-2.923-12.1a26.514,26.514,0,0,0,1.022-2.542c.493-2.312-1.492-4.715-.726-6.952.258-.759.816-1.4,1.022-2.171.574-2.149-1.67-4.053-1.9-6.265-.272-2.664,2.34-4.649,4.71-5.894a3.254,3.254,0,0,0,1.429-1.13c.6-1.069-.175-2.368-.244-3.594-.24-4.245,7.424-5.335,7.506-9.588a13.56,13.56,0,0,1-.08-2.088c.25-1.4,4.018-2.132,5.361-2.611,3.278-1.171,4.457-1.893,7.935-2.044a5.512,5.512,0,0,0,2.093-.343,1.506,1.506,0,0,0,.848-1.4c.275-3.527,3.985-5.9,7.021-4.084a7.029,7.029,0,0,1,.689.47,2.914,2.914,0,0,0,1.271.72c1.561.224,2.135-2.329,3.672-2.671,1.825-.405,3.038,2.539,4.892,2.29.886-.121,1.482-.938,2.229-1.431,2.5-1.655,5.627.581,8.321,1.9a2.168,2.168,0,0,0,1.756.261c.549-.236.823-.839,1.2-1.306,1.16-1.446,3.42-1.564,5.1-.77,1.986.939,3.12,2.866,5.147,3.755a74.619,74.619,0,0,1,7.191,3.984c2.439,1.41,4.939,2.872,6.689,5.08,2.259,2.847,3.049,6.664,4.743,9.679l2.038,4.817c.938,3.942,3.139,7.653,3.971,11.721a36.035,36.035,0,0,1,.312,9.092c-.238,4.586-.629,9.5-3.517,13.075a2.518,2.518,0,0,0-.814,1.676,3.575,3.575,0,0,0,.57,1.24c.936,1.794-.139,3.938-1.19,5.667l-6.157,10.122a15.047,15.047,0,0,1-3.713,4.6c-2.547,1.846-5.914,1.908-9.007,2.476s-6.509,2.185-7.152,5.264c-.23,1.107-.2,2.511-1.212,3.02-1.2.6-2.431-.711-3.713-1.1A2.928,2.928,0,0,0,84.227,122.624Z" transform="translate(7.79 10.896)" fill="#1c124c"/>
          <path id="Tracé_85766" data-name="Tracé 85766" d="M129.934,64.329A60.666,60.666,0,0,0,90.089,21.036,60.715,60.715,0,0,1,28.5,122.091,60.72,60.72,0,0,0,129.934,64.329Z" transform="translate(9.851 7.197)" fill="#1c124c" opacity="0.35"/>
          <path id="Tracé_85767" data-name="Tracé 85767" d="M15.962,96.6a64.918,64.918,0,1,1,78.395,47.779A64.993,64.993,0,0,1,15.962,96.6ZM133.987,67.961A56.532,56.532,0,1,0,92.38,136.228,56.595,56.595,0,0,0,133.987,67.961Z" transform="translate(1.724 4.555)" fill="#1c124c"/>
          <path id="Tracé_85768" data-name="Tracé 85768" d="M46.44,73.884C41.414,46.476,52.723,15.906,68.415,3V96.167S48.99,87.786,46.44,73.884Z" transform="translate(19.311 -3)" fill="#1c124c"/>
          <path id="Tracé_85769" data-name="Tracé 85769" d="M82.015,73.884C87.043,46.476,75.732,15.906,60.042,3V96.167S79.467,87.786,82.015,73.884Z" transform="translate(27.684 -3)" fill="#1c124c"/>
          <path id="Tracé_85770" data-name="Tracé 85770" d="M72.477,56.02c2.3-13.547-14.713-28.638-21.325-36.518C45.9,33.111,43.646,49.321,46.44,64.555c2.55,13.9,21.975,22.283,21.975,22.283s19.425-8.382,21.973-22.283a78.183,78.183,0,0,0,.919-20.483A44.217,44.217,0,0,0,72.477,56.02Z" transform="translate(19.311 6.33)" fill="#1c124c"/>
          <path id="Tracé_85771" data-name="Tracé 85771" d="M80.854,80.87c-2.127,27.178-21.021,54.489-39.657,64.083L65.116,55.6S81.932,67.085,80.854,80.87Z" transform="translate(17.03 26.739)" fill="#1c124c"/>
          <path id="Tracé_85772" data-name="Tracé 85772" d="M41.828,73.073c-11.945,25.393-8.749,56.719,3.261,71.88L69.007,55.6S47.887,60.193,41.828,73.073Z" transform="translate(13.138 26.739)" fill="#1c124c"/>
          <path id="Tracé_85773" data-name="Tracé 85773" d="M60.684,84.666c3.616,6.117,9.143,20.6,15.6,24.163A81.165,81.165,0,0,0,84.019,80.87C85.1,67.085,68.281,55.6,68.281,55.6S47.161,60.193,41.1,73.073a77.829,77.829,0,0,0-5.5,16.263S52.706,90.162,60.684,84.666Z" transform="translate(13.864 26.739)" fill="#1c124c"/>
          <path id="Tracé_85774" data-name="Tracé 85774" d="M44.41,76.184C24.572,72.659,9.79,52.909,4,40.832L68.073,62.667S54.47,77.97,44.41,76.184Z" transform="translate(-4 18.389)" fill="#1c124c"/>
          <path id="Tracé_85775" data-name="Tracé 85775" d="M62.078,44.838C44.217,35.514,15.961,36.464,4,42.492L68.073,64.327S71.137,49.566,62.078,44.838Z" transform="translate(-4 16.729)" fill="#1c124c"/>
          <path id="Tracé_85776" data-name="Tracé 85776" d="M64.082,50.007c12.526-10.984,34-14.691,47.914-10.742l-50.162,28.7S57.73,55.576,64.082,50.007Z" transform="translate(27.96 16.635)" fill="#1c124c"/>
          <path id="Tracé_85777" data-name="Tracé 85777" d="M83.111,71.648c16.986-5.9,28.427-21.037,28.414-32.937l-50.162,28.7S74.495,74.644,83.111,71.648Z" transform="translate(28.431 17.19)" fill="#1c124c"/>
          <path id="Tracé_85778" data-name="Tracé 85778" d="M66.821,51.015a36.138,36.138,0,0,0,.205-6.92c-1.021.736-2.015,1.5-2.944,2.314-6.352,5.57-2.248,17.962-2.248,17.962S74.966,71.6,83.582,68.6A46.777,46.777,0,0,0,105.7,52.391C78.771,46.694,66.821,51.015,66.821,51.015Z" transform="translate(27.96 20.233)" fill="#1c124c"/>
          <path id="Tracé_85779" data-name="Tracé 85779" d="M76.367,50.964c21.521,6.67,38.938,28.745,42.044,47.507l-66.5-37.454S65.453,47.582,76.367,50.964Z" transform="translate(23.087 23.808)" fill="#1c124c"/>
          <path id="Tracé_85780" data-name="Tracé 85780" d="M59.3,85.157c17.607,15.367,43.83,17.873,59.147,9.486L51.95,57.189S50.373,77.363,59.3,85.157Z" transform="translate(23.048 27.636)" fill="#1c124c"/>
          <path id="Tracé_85781" data-name="Tracé 85781" d="M70.961,50.365c-8.8,0-19.011,10.682-19.011,10.682S50.373,81.221,59.3,89.015a58.164,58.164,0,0,0,5.28,4.064,70.22,70.22,0,0,0,7.27,4.176c1.462-10.432,1.622-15.472-3.4-26.783C69.7,66.7,72.218,60.419,70.961,50.365Z" transform="translate(23.048 23.778)" fill="#1c124c"/>
          <path id="Tracé_85782" data-name="Tracé 85782" d="M47.083,76.114c-12.645-20.722-15.284-48.618-9-63.48L69.485,87.9S53.495,86.622,47.083,76.114Z" transform="translate(13.418 2.447)" fill="#1c124c"/>
          <path id="Tracé_85783" data-name="Tracé 85783" d="M75.683,63.688C69.852,40.123,51.884,18.623,36.9,12.634L68.3,87.9S78.642,75.638,75.683,63.688Z" transform="translate(14.6 2.447)" fill="#1c124c"/>
          <path id="Tracé_85784" data-name="Tracé 85784" d="M64.179,61.784C54.767,54,50.03,51.924,42.2,53.557c.233.4.463.8.7,1.2,6.412,10.508,22.4,11.789,22.4,11.789s6.147-7.3,7.6-16.123A87.609,87.609,0,0,1,64.179,61.784Z" transform="translate(17.597 23.808)" fill="#1c124c"/>
          <path id="Tracé_85785" data-name="Tracé 85785" d="M69.481,78.744C54.341,86.9,33,84.575,21.127,76.233L77.085,60.052S77.159,74.611,69.481,78.744Z" transform="translate(5.683 29.255)" fill="#1c124c"/>
          <path id="Tracé_85786" data-name="Tracé 85786" d="M57.924,53.065C40.14,54.434,24.752,67.374,21.127,80.2L77.085,64.019S66.943,52.371,57.924,53.065Z" transform="translate(5.683 25.288)" fill="#1c124c"/>
          <path id="Tracé_85787" data-name="Tracé 85787" d="M55.113,74.25c2.794-5.756,2.758-13.215,2.758-13.215s-1.01-1.16-2.674-2.724C55.445,61.786,55.825,69.1,55.113,74.25Z" transform="translate(24.897 28.271)" fill="#1c124c" opacity="0.27"/>
          <path id="Tracé_85788" data-name="Tracé 85788" d="M67.077,50.166A69.123,69.123,0,0,1,56.914,63.921a.611.611,0,0,0-.18.46A77.912,77.912,0,0,1,54.867,84.95a.636.636,0,0,0,1.121.549c4.007-5.341,12.657-18.794,12.288-35.022A.643.643,0,0,0,67.077,50.166Z" transform="translate(24.746 23.484)" fill="#1c124c"/>
        </g>
        <g id="Groupe_23219" data-name="Groupe 23219">
          <g id="Groupe_23218" data-name="Groupe 23218">
            <g id="Groupe_23203" data-name="Groupe 23203" transform="translate(15.847 20.919)">
              <g id="Groupe_23202" data-name="Groupe 23202">
                <circle id="Ellipse_479" data-name="Ellipse 479" cx="60.725" cy="60.725" r="60.725" transform="translate(4.2 4.202)" fill="#2e1d6d"/>
                <path id="Tracé_85789" data-name="Tracé 85789" d="M80.227,119.624c-2.66-.3-4.884,3.17-7.728,3.264-1.789.061-3.294-1.223-4.784-2.215s-3.563-1.719-4.979-.626c-.43.332-.765.814-1.277.994-.872.308-1.742-.377-2.5-.911-4.478-3.175-11.565-2.447-14.55-7.055-.424-.654-.809-1.45-1.558-1.67-.986-.291-1.936.6-2.963.651-2.763.142-2.619-4.809-5.136-5.958-1.21-.554-2.94-.152-3.674-1.262-.493-.744-.2-1.727-.189-2.617.038-4.4-6.848-6.382-6.864-10.782,0-.853.274-1.683.346-2.533.362-4.225-4.233-8.073-2.923-12.1a26.513,26.513,0,0,0,1.022-2.542c.493-2.312-1.492-4.715-.726-6.952.258-.759.816-1.4,1.022-2.171.574-2.149-1.67-4.053-1.9-6.265-.272-2.664,2.34-4.649,4.71-5.894a3.254,3.254,0,0,0,1.429-1.13c.6-1.069-.175-2.368-.244-3.594-.24-4.245,7.424-5.335,7.506-9.588a13.559,13.559,0,0,1-.08-2.088c.25-1.4,4.018-2.132,5.361-2.611,3.278-1.171,4.457-1.893,7.935-2.044a5.512,5.512,0,0,0,2.093-.343,1.506,1.506,0,0,0,.848-1.4c.276-3.527,3.985-5.9,7.021-4.084a7.03,7.03,0,0,1,.689.47,2.914,2.914,0,0,0,1.271.72c1.561.224,2.135-2.329,3.672-2.671,1.825-.405,3.038,2.539,4.892,2.29.886-.121,1.482-.938,2.229-1.431,2.5-1.655,5.627.581,8.321,1.9a2.168,2.168,0,0,0,1.756.261c.549-.236.823-.839,1.2-1.306,1.16-1.446,3.42-1.564,5.1-.77,1.986.939,3.12,2.866,5.147,3.755a74.622,74.622,0,0,1,7.191,3.984c2.439,1.41,4.939,2.872,6.689,5.08,2.259,2.847,3.049,6.664,4.743,9.679l2.038,4.817c.938,3.942,3.139,7.653,3.971,11.721a36.036,36.036,0,0,1,.312,9.092c-.238,4.587-.629,9.5-3.517,13.075a2.518,2.518,0,0,0-.814,1.676,3.574,3.574,0,0,0,.57,1.24c.936,1.794-.139,3.938-1.19,5.667l-6.157,10.122a15.047,15.047,0,0,1-3.713,4.6c-2.547,1.846-5.914,1.908-9.007,2.476s-6.509,2.185-7.152,5.264c-.23,1.107-.2,2.511-1.212,3.02-1.2.6-2.431-.711-3.713-1.1A2.927,2.927,0,0,0,80.227,119.624Z" transform="translate(-4.058 -7.023)" fill="#281924"/>
                <path id="Tracé_85790" data-name="Tracé 85790" d="M125.934,61.329A60.666,60.666,0,0,0,86.089,18.036,60.715,60.715,0,0,1,24.5,119.091,60.72,60.72,0,0,0,125.934,61.329Z" transform="translate(-1.996 -10.722)" fill="#231652" opacity="0.35"/>
                <path id="Tracé_85791" data-name="Tracé 85791" d="M11.962,93.6a64.918,64.918,0,1,1,78.395,47.779A64.993,64.993,0,0,1,11.962,93.6ZM129.987,64.961A56.532,56.532,0,1,0,88.38,133.228,56.595,56.595,0,0,0,129.987,64.961Z" transform="translate(-10.124 -13.364)" fill="#fffdfd"/>
              </g>
            </g>
            <g id="Groupe_23217" data-name="Groupe 23217">
              <g id="Groupe_23204" data-name="Groupe 23204" transform="translate(64.544)">
                <path id="Tracé_85792" data-name="Tracé 85792" d="M42.44,70.884C37.414,43.476,48.723,12.906,64.415,0V93.167S44.99,84.786,42.44,70.884Z" transform="translate(-41.233)" fill="#228272"/>
                <path id="Tracé_85793" data-name="Tracé 85793" d="M78.015,70.884C83.043,43.476,71.732,12.906,56.042,0V93.167S75.467,84.786,78.015,70.884Z" transform="translate(-32.86)" fill="#00796b"/>
              </g>
              <g id="Groupe_23205" data-name="Groupe 23205" transform="translate(64.544 25.832)" opacity="0.5">
                <path id="Tracé_85794" data-name="Tracé 85794" d="M68.477,53.02c2.3-13.547-14.713-28.638-21.325-36.518C41.9,30.111,39.646,46.321,42.44,61.555c2.55,13.9,21.975,22.283,21.975,22.283s19.425-8.383,21.973-22.283a78.183,78.183,0,0,0,.919-20.483A44.217,44.217,0,0,0,68.477,53.02Z" transform="translate(-41.233 -16.502)" fill="#004d40"/>
              </g>
              <g id="Groupe_23206" data-name="Groupe 23206" transform="translate(47.452 82.341)">
                <path id="Tracé_85795" data-name="Tracé 85795" d="M76.854,77.87c-2.127,27.178-21.021,54.489-39.657,64.083L61.116,52.6S77.932,64.085,76.854,77.87Z" transform="translate(-26.422 -52.602)" fill="#00897b"/>
                <path id="Tracé_85796" data-name="Tracé 85796" d="M37.828,70.073c-11.945,25.393-8.749,56.719,3.261,71.88L65.007,52.6S43.887,57.193,37.828,70.073Z" transform="translate(-30.314 -52.602)" fill="#00796b"/>
              </g>
              <g id="Groupe_23207" data-name="Groupe 23207" transform="translate(49.462 82.341)" opacity="0.7">
                <path id="Tracé_85797" data-name="Tracé 85797" d="M56.684,81.666c3.616,6.117,9.143,20.6,15.6,24.163A81.165,81.165,0,0,0,80.019,77.87C81.1,64.085,64.281,52.6,64.281,52.6S43.161,57.193,37.1,70.073a77.829,77.829,0,0,0-5.5,16.263S48.706,87.162,56.684,81.666Z" transform="translate(-31.598 -52.602)" fill="#004d40"/>
              </g>
              <g id="Groupe_23208" data-name="Groupe 23208" transform="translate(0 54.625)">
                <path id="Tracé_85798" data-name="Tracé 85798" d="M40.41,73.184C20.572,69.659,5.79,49.909,0,37.832L64.073,59.667S50.47,74.97,40.41,73.184Z" transform="translate(0 -33.236)" fill="#228272"/>
                <path id="Tracé_85799" data-name="Tracé 85799" d="M58.078,41.838C40.217,32.514,11.961,33.464,0,39.492L64.073,61.327S67.137,46.566,58.078,41.838Z" transform="translate(0 -34.896)" fill="#00796b"/>
              </g>
              <g id="Groupe_23209" data-name="Groupe 23209" transform="translate(88.489 54.366)">
                <path id="Tracé_85800" data-name="Tracé 85800" d="M60.082,47.007c12.526-10.984,34-14.691,47.914-10.742l-50.162,28.7S53.73,52.576,60.082,47.007Z" transform="translate(-56.53 -34.731)" fill="#228272"/>
                <path id="Tracé_85801" data-name="Tracé 85801" d="M79.111,68.648c16.986-5.9,28.427-21.037,28.414-32.937l-50.162,28.7S70.495,71.644,79.111,68.648Z" transform="translate(-56.059 -34.176)" fill="#00796b"/>
              </g>
              <g id="Groupe_23210" data-name="Groupe 23210" transform="translate(88.489 64.328)" opacity="0.37">
                <path id="Tracé_85802" data-name="Tracé 85802" d="M62.821,48.015a36.138,36.138,0,0,0,.205-6.92c-1.021.736-2.015,1.5-2.944,2.314-6.352,5.57-2.248,17.962-2.248,17.962S70.966,68.6,79.582,65.6A46.777,46.777,0,0,0,101.7,49.391C74.771,43.693,62.821,48.015,62.821,48.015Z" transform="translate(-56.53 -41.095)" fill="#004d40"/>
              </g>
              <g id="Groupe_23211" data-name="Groupe 23211" transform="translate(74.891 74.226)">
                <path id="Tracé_85803" data-name="Tracé 85803" d="M72.367,47.964c21.521,6.67,38.938,28.745,42.044,47.507l-66.5-37.454S61.453,44.582,72.367,47.964Z" transform="translate(-47.804 -47.418)" fill="#1a9687"/>
                <path id="Tracé_85804" data-name="Tracé 85804" d="M55.3,82.157c17.607,15.367,43.83,17.873,59.147,9.486L47.95,54.189S46.373,74.363,55.3,82.157Z" transform="translate(-47.842 -43.59)" fill="#26a69a"/>
              </g>
              <g id="Groupe_23212" data-name="Groupe 23212" transform="translate(74.891 74.143)" opacity="0.4">
                <path id="Tracé_85805" data-name="Tracé 85805" d="M66.961,47.365c-8.8,0-19.011,10.682-19.011,10.682S46.373,78.221,55.3,86.015a58.166,58.166,0,0,0,5.28,4.064,70.223,70.223,0,0,0,7.27,4.176c1.462-10.432,1.622-15.472-3.4-26.783C65.7,63.7,68.218,57.419,66.961,47.365Z" transform="translate(-47.842 -47.365)" fill="#004d40"/>
              </g>
              <g id="Groupe_23213" data-name="Groupe 23213" transform="translate(48.228 15.081)">
                <path id="Tracé_85806" data-name="Tracé 85806" d="M43.083,73.114C30.438,52.392,27.8,24.5,34.082,9.634L65.485,84.9S49.495,83.622,43.083,73.114Z" transform="translate(-30.809 -9.634)" fill="#1a9687"/>
                <path id="Tracé_85807" data-name="Tracé 85807" d="M71.683,60.688C65.852,37.123,47.884,15.623,32.9,9.634L64.3,84.9S74.642,72.638,71.683,60.688Z" transform="translate(-29.627 -9.634)" fill="#26a69a"/>
              </g>
              <g id="Groupe_23214" data-name="Groupe 23214" transform="translate(59.797 74.226)" opacity="0.27">
                <path id="Tracé_85808" data-name="Tracé 85808" d="M60.179,58.784C50.767,51,46.03,48.924,38.2,50.557c.233.4.463.8.7,1.2,6.412,10.508,22.4,11.789,22.4,11.789s6.147-7.3,7.6-16.123A87.609,87.609,0,0,1,60.179,58.784Z" transform="translate(-38.2 -47.418)" fill="#004d40"/>
              </g>
              <g id="Groupe_23215" data-name="Groupe 23215" transform="translate(26.81 78.323)">
                <path id="Tracé_85809" data-name="Tracé 85809" d="M65.481,75.744C50.341,83.9,29,81.575,17.127,73.233L73.085,57.052S73.159,71.611,65.481,75.744Z" transform="translate(-17.127 -46.068)" fill="#1a9687"/>
                <path id="Tracé_85810" data-name="Tracé 85810" d="M53.924,50.065C36.14,51.434,20.752,64.374,17.127,77.2L73.085,61.019S62.943,49.371,53.924,50.065Z" transform="translate(-17.127 -50.035)" fill="#26a69a"/>
              </g>
              <g id="Groupe_23216" data-name="Groupe 23216" transform="translate(80.01 86.583)">
                <path id="Tracé_85811" data-name="Tracé 85811" d="M51.113,71.25c2.794-5.756,2.758-13.215,2.758-13.215s-1.01-1.16-2.674-2.724C51.445,58.786,51.825,66.1,51.113,71.25Z" transform="translate(-51.113 -55.312)" fill="#004d40" opacity="0.27"/>
              </g>
              <path id="Tracé_85812" data-name="Tracé 85812" d="M63.077,47.166A69.123,69.123,0,0,1,52.914,60.921a.611.611,0,0,0-.18.46A77.912,77.912,0,0,1,50.867,81.95a.636.636,0,0,0,1.121.549c4.007-5.341,12.657-18.794,12.288-35.022A.643.643,0,0,0,63.077,47.166Z" transform="translate(28.746 26.484)" fill="#26a69a"/>
            </g>
          </g>
        </g>
      </g>
    </g>
  </g>
</svg>
