<svg xmlns="http://www.w3.org/2000/svg" width="414.835" height="422.923" viewBox="0 0 414.835 422.923">
  <g id="Groupe_21920" data-name="Groupe 21920" transform="translate(207.417 211.461)">
    <g id="Groupe_21920-2" data-name="Groupe 21920" transform="translate(-207.417 -211.461)">
      <path id="Tracé_28746" data-name="Tracé 28746" d="M375.943,314.724c-31.5-17.4-16.3-32.7-4.9-39.9s45.8-24.1,43.7,4C412.743,306.824,393.943,324.624,375.943,314.724Z" transform="translate(0 0)" fill="#e9f8e9"/>
      <path id="Tracé_28745" data-name="Tracé 28745" d="M258.243,262.024c71.7,146.4-24.3,163.6-85.3,160.6-61.1-3-232.2-29.4-151.9-128.2S217.243,178.324,258.243,262.024Z" transform="translate(0 0)" fill="#fff1eb"/>
      <path id="Tracé_28744" data-name="Tracé 28744" d="M112.643,49.524c14.8-70.4,52.9-50.3,73.3-32.7,20.5,17.6,72.8,73.3,18,85.9C149.143,115.224,104.143,89.724,112.643,49.524Z" transform="translate(0 0)" fill="#f8e5a9"/>
    </g>
  </g>
</svg>
