<svg id="logo_mention" data-name="logo + mention" xmlns="http://www.w3.org/2000/svg" width="172.59" height="55.652" viewBox="0 0 172.59 55.652">
  <g id="Groupe_16703" data-name="Groupe 16703" transform="translate(0)">
    <path id="Tracé_5098" data-name="Tracé 5098" d="M55.9,42.38c-.969,6.973-5.2,11.31-12.519,12.237a126.717,126.717,0,0,1-15.085.66,147.887,147.887,0,0,1-15.082-.66C6.277,53.887,1.442,49.649.694,42.387A149.146,149.146,0,0,1,0,27.426,123.2,123.2,0,0,1,.688,12.871C1.543,5.978,5.874,1.345,13.249.636,17.309.245,22.373,0,28.3,0A141.562,141.562,0,0,1,43.345.636C50.6,1.444,54.93,6.077,55.906,12.879a108.53,108.53,0,0,1,.685,14.548A115.065,115.065,0,0,1,55.9,42.38" transform="translate(0 0)" fill="#ff7b3d"/>
    <path id="Tracé_5099" data-name="Tracé 5099" d="M467.553,118.409H464.3A1.621,1.621,0,0,0,462.647,120v13.788a5.064,5.064,0,0,1-4.823,3.353c-.039,0-.078,0-.117,0s-.089,0-.134,0a3.3,3.3,0,0,1-3.361-3.227l0,0V120a1.621,1.621,0,0,0-1.653-1.587h-2.947A1.621,1.621,0,0,0,447.956,120v15.348h0a7.659,7.659,0,0,0,7.768,7.675l.063,0,.056,0a10.69,10.69,0,0,0,6.8-2.41v1.545a.648.648,0,0,0,.661.635h4.245a1.621,1.621,0,0,0,1.653-1.587V120a1.621,1.621,0,0,0-1.653-1.587" transform="translate(-368.737 -105.864)" fill="#2a3551"/>
    <path id="Tracé_5100" data-name="Tracé 5100" d="M375.55,85.275V61.987a1.72,1.72,0,0,0-1.219-1.633l-3.669-1.15a1.749,1.749,0,0,0-2.292,1.633V85.113h0v.279h.007c.151,4.509,2.918,8.277,7.611,8.277h2.558a1.718,1.718,0,0,0,1.592-2.438l-1.359-2.853a.877.877,0,0,0-.711-.491,2.519,2.519,0,0,1-2.519-2.612" transform="translate(-303.225 -56.818)" fill="#2a3551"/>
    <path id="Tracé_5101" data-name="Tracé 5101" d="M596.411,133.985a6.325,6.325,0,0,1,0-12.615,5.88,5.88,0,0,1,4.422,2.272,1.913,1.913,0,0,0,2.279.484l2.559-1.2a1.522,1.522,0,0,0,.674-2.18,11.7,11.7,0,0,0-9.908-5.659c-6.554,0-11.868,5.638-11.868,12.592s5.313,12.592,11.868,12.592a11.7,11.7,0,0,0,9.908-5.659,1.522,1.522,0,0,0-.674-2.18l-2.559-1.2a1.912,1.912,0,0,0-2.278.484,5.88,5.88,0,0,1-4.422,2.272" transform="translate(-481.191 -103.115)" fill="#2a3551"/>
    <path id="Tracé_5102" data-name="Tracé 5102" d="M732.226,133.907a6.329,6.329,0,0,1,0-12.623,5.884,5.884,0,0,1,4.424,2.273,1.914,1.914,0,0,0,2.28.485l2.561-1.2a1.524,1.524,0,0,0,.675-2.182,11.707,11.707,0,0,0-9.915-5.663c-6.558,0-11.875,5.641-11.875,12.6s5.317,12.6,11.875,12.6a11.707,11.707,0,0,0,9.915-5.663,1.524,1.524,0,0,0-.675-2.182l-2.56-1.2a1.914,1.914,0,0,0-2.28.485,5.884,5.884,0,0,1-4.425,2.273" transform="translate(-592.981 -103.04)" fill="#2a3551"/>
    <path id="Tracé_5103" data-name="Tracé 5103" d="M879.532,123.007c0-4.287-3.5-7.275-9.118-7.275s-8.34,1.871-10.486,5.181a1.516,1.516,0,0,0,.711,2.234l2.472,1.016a1.59,1.59,0,0,0,1.911-.567,5.23,5.23,0,0,1,4.511-2.461c1.806,0,3.794.735,3.794,2.46v.935s-1.206.216-2.912.508c-5.065.831-6.78,1.771-7.372,2.078a8.907,8.907,0,0,0-1.684,1.075,6.373,6.373,0,0,0-2.008,2.753,7.019,7.019,0,0,0-.528,2.674,7.275,7.275,0,0,0,7.359,7.188,11.334,11.334,0,0,0,6.468-2.123,4.457,4.457,0,0,0,.68-.489V139.7a.619.619,0,0,0,.625.611h4.016a1.546,1.546,0,0,0,1.564-1.528Zm-9.112,7.081c2.366-.659,2.907-.747,2.907-.747V133.5a.386.386,0,0,1-.2.338c-.175.1-.488.268-1.02.557a11.19,11.19,0,0,1-3.753,1.406h-.24a2.306,2.306,0,0,1-2.333-2.278,2.408,2.408,0,0,1,.582-1.506c.673-.792,1.868-1.321,4.058-1.931" transform="translate(-706.943 -103.65)" fill="#2a3551"/>
    <path id="Tracé_5104" data-name="Tracé 5104" d="M89.861,29.939A14.723,14.723,0,1,0,104.93,44.658,14.9,14.9,0,0,0,89.861,29.939m5.9,21.71a2.33,2.33,0,0,1-3.227-.3,2.2,2.2,0,0,1,.306-3.152,4.636,4.636,0,0,0,1.744-3.616,4.8,4.8,0,0,0-9.6,0A4.636,4.636,0,0,0,86.734,48.2a2.2,2.2,0,0,1,.306,3.152,2.33,2.33,0,0,1-3.227.3,9.059,9.059,0,0,1-3.407-7.067,9.386,9.386,0,0,1,18.768,0,9.059,9.059,0,0,1-3.407,7.067" transform="translate(-61.566 -24.767)" fill="#fff"/>
    <path id="Tracé_5105" data-name="Tracé 5105" d="M108.555,202.465a2.743,2.743,0,0,1-1.633-.536,9.712,9.712,0,0,1-4.009-7.868,10.1,10.1,0,0,1,20.191,0,9.712,9.712,0,0,1-4.008,7.867,2.753,2.753,0,0,1-3.8-.514,2.607,2.607,0,0,1,.526-3.709,4.5,4.5,0,0,0,1.858-3.644,4.675,4.675,0,0,0-9.347,0,4.5,4.5,0,0,0,1.858,3.644,2.608,2.608,0,0,1,.526,3.709,2.73,2.73,0,0,1-2.164,1.051" transform="translate(-84.713 -152.381)" fill="#fff"/>
    <rect id="Rectangle_634" data-name="Rectangle 634" width="172.59" height="55.277" transform="translate(0)" fill="none"/>
  </g>
  <path id="Tracé_85765" data-name="Tracé 85765" d="M62.688,19.3a3.753,3.753,0,0,1-.744-.064,4.007,4.007,0,0,1-.536-.144l.352-1.376q.16.048.328.088a1.48,1.48,0,0,0,.344.04.723.723,0,0,0,.712-.36,2.365,2.365,0,0,0,.184-1.048V8.144h1.856V16.4a4.885,4.885,0,0,1-.128,1.152,2.474,2.474,0,0,1-.424.92,1.959,1.959,0,0,1-.776.608A2.837,2.837,0,0,1,62.688,19.3ZM64.256,6.768a1.181,1.181,0,0,1-.808-.288.953.953,0,0,1-.328-.752.977.977,0,0,1,.328-.76,1.162,1.162,0,0,1,.808-.3,1.184,1.184,0,0,1,.824.3.977.977,0,0,1,.328.76.953.953,0,0,1-.328.752A1.2,1.2,0,0,1,64.256,6.768Zm6.48,9.424a3.718,3.718,0,0,1-1.408-.272,3.5,3.5,0,0,1-1.192-.8,3.827,3.827,0,0,1-.824-1.3,4.708,4.708,0,0,1-.3-1.744,4.708,4.708,0,0,1,.3-1.744,3.827,3.827,0,0,1,.824-1.3,3.624,3.624,0,0,1,2.6-1.088,3.684,3.684,0,0,1,1.416.28,3.5,3.5,0,0,1,1.192.808,4,4,0,0,1,.824,1.3,4.6,4.6,0,0,1,.312,1.744,4.6,4.6,0,0,1-.312,1.744,4,4,0,0,1-.824,1.3,3.4,3.4,0,0,1-1.192.8A3.778,3.778,0,0,1,70.736,16.192Zm0-1.5a1.57,1.57,0,0,0,1.36-.712,3.257,3.257,0,0,0,.5-1.9,3.289,3.289,0,0,0-.5-1.912,1.57,1.57,0,0,0-1.36-.712,1.551,1.551,0,0,0-1.352.712A3.33,3.33,0,0,0,68.9,12.08a3.3,3.3,0,0,0,.488,1.9A1.551,1.551,0,0,0,70.736,14.688Zm9.376,1.5a2.524,2.524,0,0,1-1.1-.264,3.82,3.82,0,0,1-1.048-.76H77.92L77.76,16H76.3V4.7h1.84V7.616L78.1,8.928a4.586,4.586,0,0,1,1.08-.7,2.8,2.8,0,0,1,1.192-.272,2.964,2.964,0,0,1,1.312.28,2.717,2.717,0,0,1,.976.8,3.675,3.675,0,0,1,.608,1.256,6.057,6.057,0,0,1,.208,1.648,5.382,5.382,0,0,1-.28,1.8,4.183,4.183,0,0,1-.744,1.336,3.2,3.2,0,0,1-1.072.832A2.919,2.919,0,0,1,80.112,16.192Zm-.384-1.52a1.6,1.6,0,0,0,1.312-.68,3.264,3.264,0,0,0,.528-2.024,3.543,3.543,0,0,0-.4-1.84,1.4,1.4,0,0,0-1.3-.656,2.552,2.552,0,0,0-1.728.88v3.664a2.542,2.542,0,0,0,.824.512A2.293,2.293,0,0,0,79.728,14.672Zm7.712,1.52a4.354,4.354,0,0,1-1.608-.312,5.2,5.2,0,0,1-1.368-.776l.864-1.184a5,5,0,0,0,1.048.648A2.737,2.737,0,0,0,87.5,14.8a1.415,1.415,0,0,0,.944-.264.859.859,0,0,0,.3-.68.669.669,0,0,0-.144-.424,1.383,1.383,0,0,0-.384-.328,3.691,3.691,0,0,0-.544-.264q-.3-.12-.608-.248-.384-.144-.784-.336a3.152,3.152,0,0,1-.712-.464,2.34,2.34,0,0,1-.512-.632,1.736,1.736,0,0,1-.2-.856,2.127,2.127,0,0,1,.768-1.7,3.122,3.122,0,0,1,2.1-.656A3.625,3.625,0,0,1,89.2,8.24a5.48,5.48,0,0,1,1.136.656l-.848,1.12a4.389,4.389,0,0,0-.84-.488,2.207,2.207,0,0,0-.888-.184,1.29,1.29,0,0,0-.872.248.79.79,0,0,0-.28.616.628.628,0,0,0,.136.408,1.26,1.26,0,0,0,.36.3,3.665,3.665,0,0,0,.52.24q.3.112.616.224.4.144.8.328a3.285,3.285,0,0,1,.728.456,2.08,2.08,0,0,1,.528.664,2.037,2.037,0,0,1,.2.936,2.273,2.273,0,0,1-.2.952,2.2,2.2,0,0,1-.584.768,2.844,2.844,0,0,1-.96.52A4.141,4.141,0,0,1,87.44,16.192Z" transform="translate(81.614 36.356)" fill="#96a6c5"/>
</svg>
